<svg width="31" height="17" viewBox="0 0 31 17" fill="none" xmlns="http://www.w3.org/2000/svg">
<path d="M2.78231 16.57C4.18086 16.57 5.31461 15.4362 5.31461 14.0377C5.31461 12.6391 4.18086 11.5054 2.78231 11.5054C1.38375 11.5054 0.25 12.6391 0.25 14.0377C0.25 15.4362 1.38375 16.57 2.78231 16.57Z" fill="#696969" stroke="#696969" stroke-width="0.5" stroke-linecap="round" stroke-linejoin="round"/>
<path d="M12.5762 6.77695C13.9747 6.77695 15.1085 5.6432 15.1085 4.24465C15.1085 2.84609 13.9747 1.71234 12.5762 1.71234C11.1776 1.71234 10.0439 2.84609 10.0439 4.24465C10.0439 5.6432 11.1776 6.77695 12.5762 6.77695Z" fill="#696969" stroke="#696969" stroke-width="0.5" stroke-linecap="round" stroke-linejoin="round"/>
<path d="M19.4154 13.6161C20.814 13.6161 21.9477 12.4824 21.9477 11.0838C21.9477 9.68527 20.814 8.55151 19.4154 8.55151C18.0169 8.55151 16.8831 9.68527 16.8831 11.0838C16.8831 12.4824 18.0169 13.6161 19.4154 13.6161Z" fill="#696969" stroke="#696969" stroke-width="0.5" stroke-linecap="round" stroke-linejoin="round"/>
<path d="M27.7177 5.31461C29.1163 5.31461 30.25 4.18086 30.25 2.78231C30.25 1.38375 29.1163 0.25 27.7177 0.25C26.3191 0.25 25.1854 1.38375 25.1854 2.78231C25.1854 4.18086 26.3191 5.31461 27.7177 5.31461Z" fill="#696969" stroke="#696969" stroke-width="0.5" stroke-linecap="round" stroke-linejoin="round"/>
<path d="M25.9269 4.57227L21.2054 9.2938M14.3662 6.03457L17.6246 9.29303M4.57309 12.2476L10.7869 6.0338" stroke="#696969" stroke-width="0.5" stroke-linecap="round" stroke-linejoin="round"/>
</svg>
