<svg width="68" height="18" viewBox="0 0 68 18" fill="none" xmlns="http://www.w3.org/2000/svg">
<g clip-path="url(#clip0_60_2197)">
<path d="M32.9936 5.19373C31.6722 5.19373 30.3724 5.76896 29.3759 6.90834V1.29993H27.4154V10.7468C27.4154 13.811 29.8525 16.2999 32.8528 16.2999C35.8532 16.2999 38.2903 13.811 38.2903 10.7468C38.2903 7.68267 35.994 5.19373 32.9936 5.19373ZM32.8528 14.1649C31.0006 14.1649 29.5059 12.6384 29.5059 10.7468C29.5059 8.8663 31.0006 7.32869 32.8528 7.32869C34.705 7.32869 36.1998 8.85524 36.1998 10.7468C36.1889 12.6273 34.6942 14.1649 32.8528 14.1649ZM45.1683 5.19373C43.8468 5.19373 42.5471 5.76896 41.5506 6.90834V1.29993H39.59V10.7468C39.59 13.811 42.0271 16.2999 45.0275 16.2999C48.0278 16.2999 50.4649 13.811 50.4649 10.7468C50.4649 7.68267 48.1686 5.19373 45.1683 5.19373ZM45.0275 14.1649C43.1753 14.1649 41.6805 12.6384 41.6805 10.7468C41.6805 8.8663 43.1753 7.32869 45.0275 7.32869C46.8797 7.32869 48.3744 8.85524 48.3744 10.7468C48.3744 12.6273 46.8797 14.1649 45.0275 14.1649ZM16.3456 11.7203V5.49241H18.4577V11.6981C18.4577 13.28 19.3567 14.2977 20.8731 14.2977C22.4112 14.2977 23.2886 13.3242 23.2886 11.6981V5.49241H25.4116V11.7203C25.4116 14.5964 23.7002 16.2999 20.8731 16.2999C18.1111 16.2999 16.3456 14.541 16.3456 11.7203ZM54.2776 16.0455H52.1655V1.29993H54.2776V16.0455ZM66.214 11.5986H58.1445C58.4477 13.2468 59.5851 14.3641 61.5781 14.3641C62.7479 14.3641 64.1668 13.9105 65.0875 13.2247L65.9648 14.8065C64.9142 15.6141 63.2461 16.2778 61.5022 16.2778C57.6354 16.2778 55.9673 13.5123 55.9673 10.7358C55.9673 9.15391 56.4439 7.83754 57.4296 6.79772C58.4044 5.75789 59.6934 5.22692 61.2423 5.22692C62.7154 5.22692 63.9502 5.69152 64.8817 6.65391C65.824 7.6163 66.3006 8.89948 66.3006 10.5477C66.2789 10.8574 66.2681 11.2114 66.214 11.5986ZM58.1336 9.83975H64.156C63.9827 8.1694 62.7804 7.09639 61.2206 7.09639C59.6284 7.09639 58.4477 8.19152 58.1336 9.83975ZM9.65167 5.19373C8.33022 5.19373 7.03044 5.76896 6.03394 6.90834V1.29993H4.07343V10.7468C4.07343 13.811 6.51052 16.2999 9.51086 16.2999C12.5112 16.2999 14.9483 13.811 14.9483 10.7468C14.9483 7.68267 12.652 5.19373 9.65167 5.19373ZM9.51086 14.1649C7.65867 14.1649 6.16391 12.6384 6.16391 10.7468C6.16391 8.8663 7.65867 7.32869 9.51086 7.32869C11.3631 7.32869 12.8578 8.85524 12.8578 10.7468C12.8578 12.6273 11.3631 14.1649 9.51086 14.1649Z" fill="white"/>
<path d="M2.6431 16.2991C3.38488 16.2991 3.98621 15.685 3.98621 14.9274C3.98621 14.1699 3.38488 13.5558 2.6431 13.5558C1.90132 13.5558 1.29999 14.1699 1.29999 14.9274C1.29999 15.685 1.90132 16.2991 2.6431 16.2991Z" fill="#F1F1F1"/>
</g>
<defs>
<clipPath id="clip0_60_2197">
<rect width="67.47" height="17.47" fill="white"/>
</clipPath>
</defs>
</svg>
