<svg width="63" height="59" viewBox="0 0 63 59" fill="none" xmlns="http://www.w3.org/2000/svg">
<g filter="url(#filter0_d_469_59)">
<path d="M25.5 44.6667V40.8333H17.0973C16.2144 40.8333 15.4778 40.5382 14.8874 39.9478C14.2971 39.3575 14.0013 38.6202 14 37.736V17.0973C14 16.2144 14.2958 15.4777 14.8874 14.8874C15.479 14.2971 16.215 14.0013 17.0954 14H45.4046C46.2863 14 47.0223 14.2958 47.6126 14.8874C48.2029 15.479 48.4987 16.2157 48.5 17.0973V37.7379C48.5 38.6196 48.2042 39.3562 47.6126 39.9478C47.021 40.5394 46.285 40.8346 45.4046 40.8333H37V44.6667H25.5ZM16.714 27.4167L21.6973 22.4333L20.3403 21.0763L14 27.4167L20.3403 33.757L21.6973 32.4L16.714 27.4167ZM45.7879 27.4167L40.8046 32.4L42.1597 33.757L48.5 27.4167L42.1597 21.0763L40.8046 22.4333L45.7879 27.4167Z" fill="#696969"/>
</g>
<defs>
<filter id="filter0_d_469_59" x="0" y="0" width="62.5" height="58.6667" filterUnits="userSpaceOnUse" color-interpolation-filters="sRGB">
<feFlood flood-opacity="0" result="BackgroundImageFix"/>
<feColorMatrix in="SourceAlpha" type="matrix" values="0 0 0 0 0 0 0 0 0 0 0 0 0 0 0 0 0 0 127 0" result="hardAlpha"/>
<feOffset/>
<feGaussianBlur stdDeviation="7"/>
<feComposite in2="hardAlpha" operator="out"/>
<feColorMatrix type="matrix" values="0 0 0 0 0.774038 0 0 0 0 0.774038 0 0 0 0 0.774038 0 0 0 0.25 0"/>
<feBlend mode="normal" in2="BackgroundImageFix" result="effect1_dropShadow_469_59"/>
<feBlend mode="normal" in="SourceGraphic" in2="effect1_dropShadow_469_59" result="shape"/>
</filter>
</defs>
</svg>
