<svg width="24" height="21" viewBox="0 0 24 21" fill="none" xmlns="http://www.w3.org/2000/svg">
<g clip-path="url(#clip0_126_624)">
<path d="M19.359 4.141C23.547 8.329 23.547 15.1715 19.359 19.359C19.0276 19.6726 18.5869 19.8445 18.1307 19.8382C17.6745 19.832 17.2388 19.648 16.9161 19.3254C16.5935 19.0028 16.4094 18.5671 16.403 18.1109C16.3966 17.6547 16.5685 17.214 16.882 16.8825C17.5592 16.2103 18.0966 15.4107 18.4634 14.5298C18.8302 13.6489 19.019 12.7042 19.019 11.75C19.019 10.7958 18.8302 9.85107 18.4634 8.9702C18.0966 8.08932 17.5592 7.28973 16.882 6.6175C16.2098 5.94048 15.4103 5.40315 14.5295 5.03648C13.6487 4.6698 12.7041 4.48103 11.75 4.48103C10.7959 4.48103 9.85131 4.6698 8.97053 5.03648C8.08974 5.40315 7.29021 5.94048 6.618 6.6175C5.9409 7.28972 5.40351 8.08928 5.03679 8.97011C4.67007 9.85094 4.48128 10.7956 4.48128 11.7498C4.48128 12.7039 4.67007 13.6486 5.03679 14.5294C5.40351 15.4102 5.9409 16.2098 6.618 16.882C6.93367 17.2131 7.10733 17.6545 7.10188 18.1119C7.09644 18.5693 6.91232 19.0064 6.58886 19.3299C6.2654 19.6533 5.82827 19.8374 5.37086 19.8429C4.91346 19.8483 4.47207 19.6747 4.141 19.359C-0.0469999 15.171 -0.0469999 8.3285 4.141 4.141C6.2345 2.047 8.9925 1 11.75 1C14.508 1 17.266 2.047 19.359 4.141ZM19.359 4.141L16.882 6.618" stroke="#F1F1F1" stroke-width="0.5" stroke-linecap="round" stroke-linejoin="round"/>
<path d="M15.734 7.17865C13.782 8.1574 11.051 9.40147 10.3365 10.0224C10.1924 10.1426 10.0774 10.2865 9.99809 10.4457C9.91884 10.6049 9.87696 10.7763 9.87493 10.9498C9.87289 11.1233 9.91073 11.2953 9.98623 11.456C10.0617 11.6166 10.1734 11.7625 10.3146 11.8852C10.4559 12.0078 10.6239 12.1048 10.8088 12.1704C10.9938 12.2359 11.1919 12.2688 11.3917 12.267C11.5914 12.2652 11.7887 12.2289 11.9721 12.16C12.1555 12.0912 12.3212 11.9913 12.4595 11.8662C13.2145 11.2105 14.619 8.85521 15.734 7.17865Z" stroke="#F1F1F1" stroke-width="0.5" stroke-linecap="round" stroke-linejoin="round"/>
</g>
<defs>
<clipPath id="clip0_126_624">
<rect width="24" height="20.843" fill="white"/>
</clipPath>
</defs>
</svg>
