<svg width="20" height="20" viewBox="0 0 20 20" fill="none" xmlns="http://www.w3.org/2000/svg">
<path d="M18.5641 5.54955C19.6048 7.72624 19.8024 10.2113 19.1187 12.5251C18.4349 14.8389 16.9184 16.8174 14.8617 18.0788C12.805 19.3401 10.3539 19.795 7.98157 19.3555C5.60924 18.9159 3.4838 17.6133 2.01546 15.6988C0.547117 13.7844 -0.160031 11.3939 0.0304931 8.98871C0.221017 6.58354 1.29571 4.3342 3.04715 2.6748C4.79859 1.01541 7.10262 0.0636005 9.51456 0.0030742C11.9265 -0.0574521 14.2754 0.777595 16.1078 2.34705L18.2332 0.220803C18.3739 0.0800724 18.5648 0.00101087 18.7638 0.00101087C18.9628 0.00101087 19.1537 0.0800724 19.2944 0.220803C19.4351 0.361533 19.5142 0.552405 19.5142 0.751428C19.5142 0.950451 19.4351 1.14132 19.2944 1.28205L10.2944 10.2821C10.1537 10.4228 9.9628 10.5018 9.76378 10.5018C9.56476 10.5018 9.37389 10.4228 9.23316 10.2821C9.09243 10.1413 9.01336 9.95045 9.01336 9.75143C9.01336 9.55241 9.09243 9.36153 9.23316 9.2208L11.8319 6.62205C11.1276 6.15626 10.2867 5.9418 9.44538 6.01338C8.60403 6.08496 7.81146 6.4384 7.19598 7.01648C6.5805 7.59456 6.17813 8.36344 6.05401 9.19866C5.9299 10.0339 6.09129 10.8865 6.51208 11.6186C6.93286 12.3507 7.5884 12.9193 8.37258 13.2325C9.15676 13.5456 10.0237 13.5849 10.833 13.3441C11.6423 13.1032 12.3466 12.5963 12.8319 11.9053C13.3173 11.2143 13.5552 10.3798 13.5072 9.53674C13.5017 9.43825 13.5156 9.33963 13.5482 9.24652C13.5807 9.1534 13.6313 9.06762 13.6971 8.99405C13.7628 8.92049 13.8424 8.8606 13.9312 8.81779C14.0201 8.77498 14.1165 8.75009 14.215 8.74455C14.4139 8.73336 14.6092 8.80165 14.7577 8.93439C14.8313 9.00012 14.8912 9.07969 14.934 9.16856C14.9768 9.25744 15.0017 9.35387 15.0072 9.45237C15.0756 10.6456 14.7348 11.8264 14.0411 12.7997C13.3474 13.773 12.3424 14.4805 11.1922 14.8052C10.042 15.13 8.81539 15.0525 7.71515 14.5856C6.61491 14.1188 5.70689 13.2905 5.14117 12.2377C4.57545 11.1849 4.3859 9.97054 4.60384 8.79539C4.82178 7.62024 5.43416 6.55463 6.33978 5.77467C7.2454 4.99472 8.39004 4.54712 9.58452 4.50584C10.779 4.46457 11.9518 4.8321 12.9091 5.54768L15.0419 3.41487C13.4789 2.11717 11.4916 1.4427 9.46158 1.521C7.4316 1.59929 5.50211 2.42483 4.04371 3.83905C2.5853 5.25327 1.70082 7.15646 1.56013 9.18308C1.41945 11.2097 2.03248 13.2168 3.28149 14.819C4.5305 16.4212 6.32742 17.5054 8.32711 17.8634C10.3268 18.2214 12.3883 17.828 14.1156 16.7588C15.8429 15.6895 17.1143 14.0197 17.6855 12.0702C18.2567 10.1206 18.0875 8.02881 17.2103 6.19643C17.1246 6.01691 17.1136 5.81067 17.1799 5.62307C17.2462 5.43548 17.3843 5.2819 17.5638 5.19612C17.7433 5.11033 17.9495 5.09938 18.1371 5.16566C18.3247 5.23195 18.4783 5.37004 18.5641 5.54955Z" fill="#F1F1F1"/>
</svg>
