<?xml version="1.0" encoding="utf-8"?>
<!-- Generator: Adobe Adobe Illustrator 29.2.0, SVG Export Plug-In . SVG Version: 6.00 Build 0)  -->
<svg version="1.1" id="Layer_1" xmlns="http://www.w3.org/2000/svg" xmlns:xlink="http://www.w3.org/1999/xlink" x="0px" y="0px"
	 viewBox="0 0 800 800" style="enable-background:new 0 0 800 800;" xml:space="preserve">
<style type="text/css">
	.st0{fill:#D5D5D5;stroke:#D5D5D5;stroke-miterlimit:10;}
	.st1{fill:#D5D5D5;}
	.st2{fill:#1E1E1E;}
	.st3{font-family:'Rubik-Regular';}
	.st4{font-size:60px;}
	.st5{fill:none;stroke:#1E1E1E;stroke-width:20;stroke-linecap:round;stroke-linejoin:round;stroke-miterlimit:10;}
</style>
<g>
	<g>
		<rect x="150.1" y="576.3" class="st0" width="500" height="110"/>
		<g>
			<polygon class="st1" points="113.7,630.3 83.4,681.3 143.9,681.3 143.9,581.3 83.4,581.3 			"/>
			<path class="st1" d="M142.9,582.3v98H85.2l29.3-49.5l0.3-0.5l-0.3-0.5l-29.3-47.5H142.9 M143.9,581.3H83.4l30.2,49l-30.2,51h60.5
				V581.3L143.9,581.3z"/>
		</g>
		<g>
			<polygon class="st1" points="686.3,630.3 716.6,681.3 656.1,681.3 656.1,581.3 716.6,581.3 			"/>
			<path class="st1" d="M714.8,582.3l-29.3,47.5l-0.3,0.5l0.3,0.5l29.3,49.5h-57.7v-98H714.8 M716.6,581.3h-60.5v100h60.5l-30.2-51
				L716.6,581.3L716.6,581.3z"/>
		</g>
		<text transform="matrix(1 0 0 1 193.3622 648.6197)" class="st2 st3 st4">Top Rated Plus</text>
	</g>
	<g>
		<path class="st1" d="M368.5,122.2c19.5-11.2,43.5-11.2,62.9,0l127.8,73.8c19.5,11.2,31.5,32,31.5,54.5v147.6
			c0,22.5-12,43.3-31.5,54.5l-127.8,73.8c-19.5,11.2-43.5,11.2-62.9,0l-127.8-73.8c-19.5-11.2-31.5-32-31.5-54.5V250.5
			c0-22.5,12-43.3,31.5-54.5L368.5,122.2z"/>
		<path id="_x3C_Compound_Path_x3E_" class="st5" d="M462,393.4c3.1,11.5-9.4,19.9-18.8,13.6l-42.8-28.2L357.5,407
			c-9.4,6.3-22-3.1-18.8-13.6l11.5-49.1l-39.7-32.4c-9.4-7.3-4.2-22,7.3-23l51.2-3.1l18.8-48.1c4.2-10.4,19.9-10.4,24,0l18.8,48.1
			 M456.8,288.9v73.2 M494.4,325.5h-73.2"/>
	</g>
</g>
</svg>
