<svg xmlns="http://www.w3.org/2000/svg" viewBox="0 0 64 64" role="img" aria-labelledby="title description">
  <title id="title">Discovery and product strategy compass</title>
  <desc id="description">A refined compass representing direction, discovery, and product planning.</desc>
  <defs>
    <linearGradient id="ring" x1="11" y1="9" x2="53" y2="55" gradientUnits="userSpaceOnUse">
      <stop stop-color="#F4F4F4"/>
      <stop offset="1" stop-color="#747474"/>
    </linearGradient>
    <linearGradient id="needle" x1="24" y1="19" x2="41" y2="46" gradientUnits="userSpaceOnUse">
      <stop stop-color="#FFFFFF"/>
      <stop offset="1" stop-color="#8C8C8C"/>
    </linearGradient>
  </defs>

  <circle cx="32" cy="32" r="23" fill="#111111" stroke="url(#ring)" stroke-width="2"/>
  <circle cx="32" cy="32" r="17.25" fill="none" stroke="#4D4D4D" stroke-width="1.25"/>

  <path d="M32 7.5V12.5M32 51.5V56.5M7.5 32H12.5M51.5 32H56.5" stroke="#CFCFCF" stroke-width="2" stroke-linecap="round"/>
  <path d="M16.8 16.8L20.25 20.25M43.75 43.75L47.2 47.2M47.2 16.8L43.75 20.25M20.25 43.75L16.8 47.2" stroke="#6C6C6C" stroke-width="1.5" stroke-linecap="round"/>

  <path d="M39.6 20.25L35.25 35.25L20.25 39.6L28.8 28.8L39.6 20.25Z" fill="#242424" stroke="url(#needle)" stroke-width="1.6" stroke-linejoin="round"/>
  <path d="M39.6 20.25L35.25 35.25L28.8 28.8L39.6 20.25Z" fill="url(#needle)"/>
  <path d="M20.25 39.6L28.8 28.8L35.25 35.25L20.25 39.6Z" fill="#606060"/>
  <circle cx="32" cy="32" r="2.75" fill="#F2F2F2" stroke="#171717" stroke-width="1.25"/>
</svg>
