<svg xmlns="http://www.w3.org/2000/svg" viewBox="0 0 64 64" role="img" aria-labelledby="title description">
  <title id="title">Full-stack product development</title>
  <desc id="description">Connected software layers representing frontend, APIs, data, and cloud infrastructure.</desc>
  <defs>
    <linearGradient id="layer" x1="10" y1="9" x2="54" y2="55" gradientUnits="userSpaceOnUse">
      <stop stop-color="#F4F4F4"/>
      <stop offset="1" stop-color="#747474"/>
    </linearGradient>
    <linearGradient id="topFill" x1="20" y1="11" x2="43" y2="30" gradientUnits="userSpaceOnUse">
      <stop stop-color="#303030"/>
      <stop offset="1" stop-color="#121212"/>
    </linearGradient>
  </defs>

  <path d="M32 8.5L54 19.75L32 31L10 19.75L32 8.5Z" fill="url(#topFill)" stroke="url(#layer)" stroke-width="2" stroke-linejoin="round"/>
  <path d="M10 29L32 40.25L54 29" fill="none" stroke="#A8A8A8" stroke-width="2" stroke-linecap="round" stroke-linejoin="round"/>
  <path d="M10 38.5L32 49.75L54 38.5" fill="none" stroke="#747474" stroke-width="2" stroke-linecap="round" stroke-linejoin="round"/>
  <path d="M10 48L32 59.25L54 48" fill="none" stroke="#4E4E4E" stroke-width="2" stroke-linecap="round" stroke-linejoin="round"/>

  <path d="M10 19.75V48M54 19.75V48M32 31V59.25" stroke="#555555" stroke-width="1.3" stroke-linecap="round"/>

  <path d="M25.5 16L21.5 19.75L25.5 23.5M38.5 16L42.5 19.75L38.5 23.5M34.5 14.5L29.5 25" fill="none" stroke="#E9E9E9" stroke-width="1.8" stroke-linecap="round" stroke-linejoin="round"/>

  <circle cx="10" cy="29" r="2.2" fill="#DADADA" stroke="#151515" stroke-width="1"/>
  <circle cx="54" cy="29" r="2.2" fill="#A0A0A0" stroke="#151515" stroke-width="1"/>
  <circle cx="32" cy="40.25" r="2.2" fill="#EEEEEE" stroke="#151515" stroke-width="1"/>
</svg>
