<svg xmlns="http://www.w3.org/2000/svg" viewBox="0 0 64 64" role="img" aria-labelledby="title description">
  <title id="title">Launch, measurement, and iteration</title>
  <desc id="description">An upward analytics chart inside a continuous delivery loop representing launch visibility and iteration.</desc>
  <defs>
    <linearGradient id="loop" x1="10" y1="10" x2="55" y2="55" gradientUnits="userSpaceOnUse">
      <stop stop-color="#F4F4F4"/>
      <stop offset="1" stop-color="#707070"/>
    </linearGradient>
    <linearGradient id="bars" x1="21" y1="43" x2="45" y2="20" gradientUnits="userSpaceOnUse">
      <stop stop-color="#686868"/>
      <stop offset="1" stop-color="#EEEEEE"/>
    </linearGradient>
  </defs>

  <path d="M17.25 15.6A23 23 0 1 1 10 32" fill="none" stroke="url(#loop)" stroke-width="2.2" stroke-linecap="round"/>
  <path d="M9.75 23.5L10 32L18.25 29.75" fill="none" stroke="#DADADA" stroke-width="2.2" stroke-linecap="round" stroke-linejoin="round"/>
  <path d="M46.75 48.4A23 23 0 0 1 17.25 15.6" fill="none" stroke="#4B4B4B" stroke-width="1.25" stroke-linecap="round" stroke-dasharray="2.5 4"/>

  <rect x="20" y="37" width="6" height="9" rx="2" fill="#3E3E3E" stroke="#8A8A8A" stroke-width="1.3"/>
  <rect x="29" y="30" width="6" height="16" rx="2" fill="#4E4E4E" stroke="#AAAAAA" stroke-width="1.3"/>
  <rect x="38" y="22" width="6" height="24" rx="2" fill="url(#bars)" stroke="#D3D3D3" stroke-width="1.3"/>

  <path d="M21 31.5L30.5 25.75L34.5 27.75L44 17.5" fill="none" stroke="#EFEFEF" stroke-width="1.8" stroke-linecap="round" stroke-linejoin="round"/>
  <path d="M39.7 17.7L44 17.5L43.75 21.8" fill="none" stroke="#EFEFEF" stroke-width="1.8" stroke-linecap="round" stroke-linejoin="round"/>

  <circle cx="17.25" cy="15.6" r="2.3" fill="#ECECEC" stroke="#151515" stroke-width="1"/>
  <circle cx="52.5" cy="40.5" r="2.3" fill="#989898" stroke="#151515" stroke-width="1"/>
  <circle cx="10" cy="32" r="2.3" fill="#D5D5D5" stroke="#151515" stroke-width="1"/>
</svg>
