<svg width="24" height="24" viewBox="0 0 24 24" fill="none" xmlns="http://www.w3.org/2000/svg">
<g clip-path="url(#clip0_60_3138)">
<path d="M7.5 23.25H16.5M0.75 15H23.25M17.25 8.25002L16.476 5.21002C16.4226 5.00554 16.3026 4.82469 16.1349 4.6961C15.9671 4.56751 15.7613 4.49851 15.55 4.50002H13.432C13.432 4.87981 13.2811 5.24405 13.0126 5.5126C12.744 5.78115 12.3798 5.93202 12 5.93202C11.6202 5.93202 11.256 5.78115 10.9874 5.5126C10.7189 5.24405 10.568 4.87981 10.568 4.50002H8.45C8.23867 4.49851 8.03286 4.56751 7.86515 4.6961C7.69743 4.82469 7.57739 5.00554 7.524 5.21002L6.75 8.25002H9V12H15V8.25002H17.25Z" stroke="#C7C7C7" stroke-width="1.5" stroke-linecap="round" stroke-linejoin="round"/>
<path d="M12 23.25V18.75M2.25 0.75H21.75C21.75 0.75 23.25 0.75 23.25 2.25V17.25C23.25 17.25 23.25 18.75 21.75 18.75H2.25C2.25 18.75 0.75 18.75 0.75 17.25V2.25C0.75 2.25 0.75 0.75 2.25 0.75Z" stroke="#C7C7C7" stroke-width="1.5" stroke-linecap="round" stroke-linejoin="round"/>
</g>
<defs>
<clipPath id="clip0_60_3138">
<rect width="24" height="24" fill="white"/>
</clipPath>
</defs>
</svg>
