<svg width="24" height="24" viewBox="0 0 24 24" fill="none" xmlns="http://www.w3.org/2000/svg">
<g clip-path="url(#clip0_60_3150)">
<path fill-rule="evenodd" clip-rule="evenodd" d="M0.859497 6.15046C0.602138 6.27151 0.384541 6.46329 0.232127 6.70341C0.079714 6.94353 -0.0012207 7.22206 -0.0012207 7.50646C-0.0012207 7.79087 0.079714 8.0694 0.232127 8.30951C0.384541 8.54963 0.602138 8.74142 0.859497 8.86246L3.0045 9.87496V15.755C3.0045 16.868 3.366 18.11 4.4205 18.875C5.7495 19.835 8.1705 21.005 12.0105 21.005C15.8505 21.005 18.2655 19.8275 19.6005 18.875C20.655 18.113 21.0165 16.88 21.0165 15.755V9.87496L22.5165 9.16546V15.7505C22.5165 15.9494 22.5955 16.1401 22.7362 16.2808C22.8768 16.4214 23.0676 16.5005 23.2665 16.5005C23.4654 16.5005 23.6562 16.4214 23.7968 16.2808C23.9375 16.1401 24.0165 15.9494 24.0165 15.7505V7.50046C24.0166 7.21639 23.936 6.93814 23.7841 6.69809C23.6322 6.45803 23.4152 6.26605 23.1585 6.14446L14.5785 2.09446C13.7766 1.71524 12.9006 1.51855 12.0135 1.51855C11.1264 1.51855 10.2504 1.71524 9.4485 2.09446L0.868497 6.14446L0.859497 6.15046ZM4.5045 15.7505V10.5755L9.4395 12.9155C10.2414 13.2947 11.1174 13.4914 12.0045 13.4914C12.8916 13.4914 13.7676 13.2947 14.5695 12.9155L19.5045 10.5755V15.7505C19.5045 16.5845 19.2345 17.2655 18.7095 17.6405C17.6235 18.425 15.5145 19.5005 12.0045 19.5005C8.4945 19.5005 6.3795 18.4325 5.2995 17.6405C4.776 17.2625 4.5045 16.577 4.5045 15.7505ZM10.0845 3.45046C10.6846 3.16618 11.3404 3.01871 12.0045 3.01871C12.6686 3.01871 13.3244 3.16618 13.9245 3.45046L22.5045 7.50046L13.9245 11.5505C13.3244 11.8347 12.6686 11.9822 12.0045 11.9822C11.3404 11.9822 10.6846 11.8347 10.0845 11.5505L1.5045 7.50046L10.0845 3.45046Z" fill="#C7C7C7"/>
</g>
<defs>
<clipPath id="clip0_60_3150">
<rect width="24" height="24" fill="white"/>
</clipPath>
</defs>
</svg>
