<svg width="24" height="24" viewBox="0 0 24 24" fill="none" xmlns="http://www.w3.org/2000/svg">
<path d="M8.692 11.2334V7.49838C8.692 7.27572 8.77067 7.08572 8.928 6.92838C9.08467 6.77105 9.27533 6.69238 9.5 6.69238C9.72467 6.69238 9.91533 6.77105 10.072 6.92838C10.2293 7.08572 10.308 7.27572 10.308 7.49838V11.2334C10.308 11.456 10.2293 11.646 10.072 11.8034C9.91466 11.9607 9.724 12.0394 9.5 12.0394C9.276 12.0394 9.08533 11.9607 8.928 11.8034C8.77067 11.646 8.692 11.456 8.692 11.2334ZM13.039 12.5444V3.50038C13.039 3.27638 13.1173 3.08572 13.274 2.92838C13.4313 2.77105 13.622 2.69238 13.846 2.69238C14.0707 2.69238 14.2613 2.77105 14.418 2.92838C14.5753 3.08572 14.654 3.27638 14.654 3.50038V12.5444C14.654 12.8137 14.5713 13.0157 14.406 13.1504C14.24 13.285 14.0543 13.3524 13.849 13.3524C13.6437 13.3524 13.457 13.285 13.289 13.1504C13.121 13.0157 13.0377 12.8137 13.039 12.5444ZM4.308 14.6864V11.5004C4.308 11.2764 4.38633 11.0857 4.543 10.9284C4.70033 10.771 4.89133 10.6924 5.116 10.6924C5.34067 10.6924 5.53133 10.771 5.688 10.9284C5.84467 11.0857 5.923 11.2764 5.923 11.5004V14.6874C5.923 14.9567 5.84033 15.1584 5.675 15.2924C5.50967 15.427 5.324 15.4944 5.118 15.4944C4.91267 15.4944 4.726 15.427 4.558 15.2924C4.39133 15.1584 4.308 14.9567 4.308 14.6874M5.393 20.5504C5.16967 20.5504 5.01533 20.4487 4.93 20.2454C4.84467 20.0427 4.88333 19.8597 5.046 19.6964L8.954 15.7894C9.09867 15.644 9.277 15.563 9.489 15.5464C9.701 15.5297 9.88933 15.5941 10.054 15.7394L13.039 18.3044L19.792 11.5504H18C17.858 11.5504 17.7393 11.5024 17.644 11.4064C17.5487 11.3104 17.5007 11.1914 17.5 11.0494C17.4993 10.9074 17.5473 10.7887 17.644 10.6934C17.7407 10.598 17.8593 10.5504 18 10.5504H20.692C20.9213 10.5504 21.1133 10.6277 21.268 10.7824C21.4227 10.937 21.5 11.1291 21.5 11.3584V14.0504C21.5 14.1924 21.452 14.3111 21.356 14.4064C21.26 14.5017 21.141 14.5497 20.999 14.5504C20.857 14.551 20.7383 14.503 20.643 14.4064C20.5477 14.3097 20.5 14.191 20.5 14.0504V12.2584L13.596 19.1624C13.4513 19.3071 13.273 19.3877 13.061 19.4044C12.849 19.421 12.6607 19.3567 12.496 19.2114L9.511 16.6464L5.754 20.4044C5.71133 20.4444 5.65767 20.4787 5.593 20.5074C5.52833 20.5361 5.46167 20.5504 5.393 20.5504Z" fill="#C7C7C7"/>
</svg>
