<svg width="24" height="24" viewBox="0 0 24 24" fill="none" xmlns="http://www.w3.org/2000/svg">
<path d="M18 20L21.824 16.176C21.9366 16.0636 21.9999 15.9111 22 15.752V10.5C22 10.1022 21.842 9.72064 21.5607 9.43934C21.2794 9.15804 20.8978 9 20.5 9C20.1022 9 19.7206 9.15804 19.4393 9.43934C19.158 9.72064 19 10.1022 19 10.5V15" stroke="#C7C7C7" stroke-width="1.5" stroke-linecap="round" stroke-linejoin="round"/>
<path d="M18 16L18.858 15.142C18.9033 15.0971 18.9391 15.0437 18.9635 14.9848C18.9879 14.9259 19.0003 14.8627 19 14.799C18.9993 14.7092 18.9739 14.6213 18.9267 14.545C18.8794 14.4686 18.8121 14.4067 18.732 14.366L18.289 14.145C17.9137 13.9573 17.4889 13.8925 17.0747 13.9596C16.6604 14.0267 16.2778 14.2224 15.981 14.519L15.086 15.414C14.7109 15.789 14.5001 16.2976 14.5 16.828V20M6 20L2.176 16.176C2.06345 16.0636 2.00014 15.9111 2 15.752V10.5C2 10.1022 2.15804 9.72064 2.43934 9.43934C2.72064 9.15804 3.10218 9 3.5 9C3.89782 9 4.27936 9.15804 4.56066 9.43934C4.84196 9.72064 5 10.1022 5 10.5V15" stroke="#C7C7C7" stroke-width="1.5" stroke-linecap="round" stroke-linejoin="round"/>
<path d="M6 16L5.142 15.142C5.0524 15.0501 5.00156 14.9273 5 14.799C5 14.616 5.104 14.449 5.268 14.366L5.711 14.145C6.08631 13.9573 6.51114 13.8925 6.92534 13.9596C7.33955 14.0267 7.72216 14.2224 8.019 14.519L8.914 15.414C9.2891 15.789 9.49989 16.2976 9.5 16.828V20M13.667 12H10.333V9.667H8V6.333H10.333V4H13.667V6.333H16V9.667H13.667V12Z" stroke="#C7C7C7" stroke-width="1.5" stroke-linecap="round" stroke-linejoin="round"/>
</svg>
