<svg width="24" height="24" viewBox="0 0 24 24" fill="none" xmlns="http://www.w3.org/2000/svg">
<path d="M4.76398 19.4622V17.8462H7.78598L5.19898 9.3812C4.76164 9.16986 4.41331 8.8672 4.15398 8.4732C3.89398 8.07986 3.76398 7.62753 3.76398 7.1162C3.76398 6.42353 4.00764 5.83353 4.49498 5.3462C4.98231 4.85886 5.57231 4.61553 6.26498 4.6162C6.87631 4.6162 7.40098 4.80353 7.83898 5.1782C8.27698 5.55286 8.57031 6.0322 8.71898 6.6162H12.379V5.1162C12.379 4.97353 12.427 4.85453 12.523 4.7592C12.619 4.66386 12.738 4.6162 12.88 4.6162C12.9913 4.6162 13.089 4.64953 13.173 4.7162C13.257 4.78286 13.3103 4.86986 13.333 4.9772V5.2472L15.149 3.5692C15.2863 3.43186 15.4396 3.34886 15.609 3.3202C15.7796 3.29153 15.9456 3.32086 16.107 3.4082L19.891 5.1692C20.0143 5.2312 20.107 5.31953 20.169 5.4342C20.231 5.54886 20.2333 5.66553 20.176 5.7842C20.1146 5.90753 20.0266 5.98553 19.912 6.0182C19.7973 6.05086 19.68 6.03853 19.56 5.9812L15.768 4.2152L13.38 6.4152V7.8152L15.768 9.9652L19.56 8.2002C19.6793 8.14286 19.7973 8.13153 19.914 8.1662C20.03 8.2002 20.117 8.27686 20.175 8.3962C20.2363 8.51953 20.235 8.63753 20.171 8.7502C20.107 8.86353 20.0136 8.95086 19.891 9.0122L16.106 10.7852C15.944 10.8719 15.7783 10.9009 15.609 10.8722C15.439 10.8435 15.2853 10.7605 15.148 10.6232L13.333 8.9852V9.2542C13.3096 9.3542 13.256 9.43953 13.172 9.5102C13.088 9.58086 12.9903 9.6162 12.879 9.6162C12.7363 9.6162 12.6173 9.5682 12.522 9.4722C12.4266 9.37686 12.379 9.2582 12.379 9.1162V7.6162H8.71698C8.66698 7.83886 8.58398 8.05986 8.46798 8.2792C8.35198 8.49853 8.22464 8.6812 8.08598 8.8272L12.933 17.8472H16.763V19.4612L4.76398 19.4622ZM6.26398 8.6162C6.67531 8.6162 7.02798 8.46886 7.32198 8.1742C7.61664 7.8802 7.76398 7.52753 7.76398 7.1162C7.76398 6.7042 7.61664 6.35086 7.32198 6.0562C7.02798 5.76286 6.67531 5.6162 6.26398 5.6162C5.85264 5.6162 5.49931 5.76286 5.20398 6.0562C4.91064 6.35086 4.76398 6.7042 4.76398 7.1162C4.76398 7.52753 4.91064 7.8802 5.20398 8.1742C5.49864 8.46886 5.85198 8.6162 6.26398 8.6162Z" fill="#C7C7C7"/>
</svg>
