<svg width="24" height="24" viewBox="0 0 24 24" fill="none" xmlns="http://www.w3.org/2000/svg">
<path fill-rule="evenodd" clip-rule="evenodd" d="M13.155 3.35987C12.484 3.00987 11.575 3.00487 10.898 3.35387C8.305 4.69387 5.953 6.22887 3.892 7.93187C3.573 8.19487 3.347 8.57787 3.351 9.02787C3.355 9.47687 3.585 9.85387 3.902 10.1129C5.946 11.7839 8.3 13.3209 10.845 14.6499C11.517 14.9999 12.425 15.0049 13.102 14.6559C15.695 13.3159 18.047 11.7809 20.108 10.0779C20.427 9.81487 20.653 9.43187 20.649 8.98187C20.645 8.53287 20.414 8.15587 20.098 7.89687C18.054 6.22587 15.7 4.68887 13.155 3.35987ZM11.585 4.68687C11.723 4.62554 11.8723 4.5941 12.0233 4.59461C12.1743 4.59513 12.3235 4.62759 12.461 4.68987C14.89 5.95787 17.128 7.41687 19.067 8.99187C17.117 10.5929 14.885 12.0469 12.414 13.3229C12.174 13.4469 11.781 13.4459 11.539 13.3199C9.11 12.0519 6.872 10.5929 4.932 9.01787C6.883 7.41687 9.11501 5.96287 11.586 4.68687" fill="#F1F1F1"/>
<path d="M21.197 12.6983C21.3022 12.867 21.3361 13.0706 21.2913 13.2643C21.2465 13.458 21.1266 13.626 20.958 13.7313L14.851 17.5443C14.022 18.0623 12.994 18.3013 12 18.3013C11.006 18.3013 9.97799 18.0613 9.14899 17.5453L3.10899 13.7753C2.94018 13.6701 2.82011 13.502 2.7752 13.3082C2.73028 13.1144 2.7642 12.9107 2.86949 12.7418C2.97478 12.573 3.14282 12.453 3.33664 12.408C3.53046 12.3631 3.73418 12.3971 3.90299 12.5023L9.94299 16.2723C10.487 16.6123 11.226 16.8013 12 16.8013C12.773 16.8013 13.512 16.6113 14.056 16.2713L20.164 12.4593C20.3327 12.3541 20.5363 12.3202 20.73 12.365C20.9237 12.4098 21.0917 12.5297 21.197 12.6983Z" fill="#F1F1F1"/>
<path d="M21.197 16.4527C21.3022 16.6214 21.3362 16.8249 21.2913 17.0186C21.2465 17.2124 21.1266 17.3803 20.958 17.4857L15.67 20.7897C14.612 21.4497 13.29 21.7607 12 21.7607C10.712 21.7607 9.39 21.4507 8.331 20.7907L3.109 17.5307C2.94019 17.4252 2.82017 17.2571 2.77535 17.0632C2.73053 16.8693 2.76458 16.6655 2.87 16.4967C2.97542 16.3279 3.14359 16.2078 3.3375 16.163C3.53142 16.1182 3.73519 16.1522 3.904 16.2577L9.126 19.5177C9.899 20.0007 10.933 20.2607 12.001 20.2607C13.069 20.2607 14.103 20.0007 14.876 19.5177L20.164 16.2147C20.2476 16.1624 20.3406 16.1271 20.4378 16.1109C20.535 16.0946 20.6345 16.0977 20.7305 16.1199C20.8266 16.142 20.9173 16.183 20.9975 16.2402C21.0777 16.2975 21.1458 16.37 21.198 16.4537" fill="#F1F1F1"/>
</svg>
