<svg xmlns="http://www.w3.org/2000/svg" width="600" height="400" viewBox="0 0 600 400">
  <!-- Connected hexagon grid background for the hero section -->
  <defs>
    <g id="hex">
      <!-- Hexagon outline - smaller size -->
      <polygon
        points="15,0 30,8.66 30,25.98 15,34.64 0,25.98 0,8.66"
        fill="none"
        stroke="#2A2A2A"
        stroke-width="0.8"
      />
      <!-- Six corner dots - smaller -->
      <circle cx="15" cy="0" r="1.2" fill="#333333" />
      <circle cx="30" cy="8.66" r="1.2" fill="#333333" />
      <circle cx="30" cy="25.98" r="1.2" fill="#333333" />
      <circle cx="15" cy="34.64" r="1.2" fill="#333333" />
      <circle cx="0" cy="25.98" r="1.2" fill="#333333" />
      <circle cx="0" cy="8.66" r="1.2" fill="#333333" />
    </g>
  </defs>

  <!-- Transparent base so the page background shows through -->
  <rect width="600" height="400" fill="transparent" />

  <!-- Hexagon grid (darker, more subtle) -->
  <g opacity="0.25">
    <!-- Row 1 -->
    <use href="#hex" x="0" y="0" />
    <use href="#hex" x="30" y="0" />
    <use href="#hex" x="60" y="0" />
    <use href="#hex" x="90" y="0" />
    <use href="#hex" x="120" y="0" />
    <use href="#hex" x="150" y="0" />
    <use href="#hex" x="180" y="0" />
    <use href="#hex" x="210" y="0" />
    <use href="#hex" x="240" y="0" />
    <use href="#hex" x="270" y="0" />
    <use href="#hex" x="300" y="0" />
    <use href="#hex" x="330" y="0" />
    <use href="#hex" x="360" y="0" />
    <use href="#hex" x="390" y="0" />
    <use href="#hex" x="420" y="0" />
    <use href="#hex" x="450" y="0" />
    <use href="#hex" x="480" y="0" />
    <use href="#hex" x="510" y="0" />
    <use href="#hex" x="540" y="0" />
    <use href="#hex" x="570" y="0" />

    <!-- Row 2 (staggered) -->
    <use href="#hex" x="15" y="25.98" />
    <use href="#hex" x="45" y="25.98" />
    <use href="#hex" x="75" y="25.98" />
    <use href="#hex" x="105" y="25.98" />
    <use href="#hex" x="135" y="25.98" />
    <use href="#hex" x="165" y="25.98" />
    <use href="#hex" x="195" y="25.98" />
    <use href="#hex" x="225" y="25.98" />
    <use href="#hex" x="255" y="25.98" />
    <use href="#hex" x="285" y="25.98" />
    <use href="#hex" x="315" y="25.98" />
    <use href="#hex" x="345" y="25.98" />
    <use href="#hex" x="375" y="25.98" />
    <use href="#hex" x="405" y="25.98" />
    <use href="#hex" x="435" y="25.98" />
    <use href="#hex" x="465" y="25.98" />
    <use href="#hex" x="495" y="25.98" />
    <use href="#hex" x="525" y="25.98" />
    <use href="#hex" x="555" y="25.98" />

    <!-- Row 3 -->
    <use href="#hex" x="0" y="51.96" />
    <use href="#hex" x="30" y="51.96" />
    <use href="#hex" x="60" y="51.96" />
    <use href="#hex" x="90" y="51.96" />
    <use href="#hex" x="120" y="51.96" />
    <use href="#hex" x="150" y="51.96" />
    <use href="#hex" x="180" y="51.96" />
    <use href="#hex" x="210" y="51.96" />
    <use href="#hex" x="240" y="51.96" />
    <use href="#hex" x="270" y="51.96" />
    <use href="#hex" x="300" y="51.96" />
    <use href="#hex" x="330" y="51.96" />
    <use href="#hex" x="360" y="51.96" />
    <use href="#hex" x="390" y="51.96" />
    <use href="#hex" x="420" y="51.96" />
    <use href="#hex" x="450" y="51.96" />
    <use href="#hex" x="480" y="51.96" />
    <use href="#hex" x="510" y="51.96" />
    <use href="#hex" x="540" y="51.96" />
    <use href="#hex" x="570" y="51.96" />

    <!-- Row 4 (staggered) -->
    <use href="#hex" x="15" y="77.94" />
    <use href="#hex" x="45" y="77.94" />
    <use href="#hex" x="75" y="77.94" />
    <use href="#hex" x="105" y="77.94" />
    <use href="#hex" x="135" y="77.94" />
    <use href="#hex" x="165" y="77.94" />
    <use href="#hex" x="195" y="77.94" />
    <use href="#hex" x="225" y="77.94" />
    <use href="#hex" x="255" y="77.94" />
    <use href="#hex" x="285" y="77.94" />
    <use href="#hex" x="315" y="77.94" />
    <use href="#hex" x="345" y="77.94" />
    <use href="#hex" x="375" y="77.94" />
    <use href="#hex" x="405" y="77.94" />
    <use href="#hex" x="435" y="77.94" />
    <use href="#hex" x="465" y="77.94" />
    <use href="#hex" x="495" y="77.94" />
    <use href="#hex" x="525" y="77.94" />
    <use href="#hex" x="555" y="77.94" />

    <!-- Continue this pattern for more rows to fill 400px height -->
    <!-- Row 5 -->
    <use href="#hex" x="0" y="103.92" />
    <use href="#hex" x="30" y="103.92" />
    <use href="#hex" x="60" y="103.92" />
    <use href="#hex" x="90" y="103.92" />
    <use href="#hex" x="120" y="103.92" />
    <use href="#hex" x="150" y="103.92" />
    <use href="#hex" x="180" y="103.92" />
    <use href="#hex" x="210" y="103.92" />
    <use href="#hex" x="240" y="103.92" />
    <use href="#hex" x="270" y="103.92" />
    <use href="#hex" x="300" y="103.92" />
    <use href="#hex" x="330" y="103.92" />
    <use href="#hex" x="360" y="103.92" />
    <use href="#hex" x="390" y="103.92" />
    <use href="#hex" x="420" y="103.92" />
    <use href="#hex" x="450" y="103.92" />
    <use href="#hex" x="480" y="103.92" />
    <use href="#hex" x="510" y="103.92" />
    <use href="#hex" x="540" y="103.92" />
    <use href="#hex" x="570" y="103.92" />

    <!-- Row 6 (staggered) -->
    <use href="#hex" x="15" y="129.9" />
    <use href="#hex" x="45" y="129.9" />
    <use href="#hex" x="75" y="129.9" />
    <use href="#hex" x="105" y="129.9" />
    <use href="#hex" x="135" y="129.9" />
    <use href="#hex" x="165" y="129.9" />
    <use href="#hex" x="195" y="129.9" />
    <use href="#hex" x="225" y="129.9" />
    <use href="#hex" x="255" y="129.9" />
    <use href="#hex" x="285" y="129.9" />
    <use href="#hex" x="315" y="129.9" />
    <use href="#hex" x="345" y="129.9" />
    <use href="#hex" x="375" y="129.9" />
    <use href="#hex" x="405" y="129.9" />
    <use href="#hex" x="435" y="129.9" />
    <use href="#hex" x="465" y="129.9" />
    <use href="#hex" x="495" y="129.9" />
    <use href="#hex" x="525" y="129.9" />
    <use href="#hex" x="555" y="129.9" />

    <!-- Row 7 -->
    <use href="#hex" x="0" y="155.88" />
    <use href="#hex" x="30" y="155.88" />
    <use href="#hex" x="60" y="155.88" />
    <use href="#hex" x="90" y="155.88" />
    <use href="#hex" x="120" y="155.88" />
    <use href="#hex" x="150" y="155.88" />
    <use href="#hex" x="180" y="155.88" />
    <use href="#hex" x="210" y="155.88" />
    <use href="#hex" x="240" y="155.88" />
    <use href="#hex" x="270" y="155.88" />
    <use href="#hex" x="300" y="155.88" />
    <use href="#hex" x="330" y="155.88" />
    <use href="#hex" x="360" y="155.88" />
    <use href="#hex" x="390" y="155.88" />
    <use href="#hex" x="420" y="155.88" />
    <use href="#hex" x="450" y="155.88" />
    <use href="#hex" x="480" y="155.88" />
    <use href="#hex" x="510" y="155.88" />
    <use href="#hex" x="540" y="155.88" />
    <use href="#hex" x="570" y="155.88" />

    <!-- Row 8 (staggered) -->
    <use href="#hex" x="15" y="181.86" />
    <use href="#hex" x="45" y="181.86" />
    <use href="#hex" x="75" y="181.86" />
    <use href="#hex" x="105" y="181.86" />
    <use href="#hex" x="135" y="181.86" />
    <use href="#hex" x="165" y="181.86" />
    <use href="#hex" x="195" y="181.86" />
    <use href="#hex" x="225" y="181.86" />
    <use href="#hex" x="255" y="181.86" />
    <use href="#hex" x="285" y="181.86" />
    <use href="#hex" x="315" y="181.86" />
    <use href="#hex" x="345" y="181.86" />
    <use href="#hex" x="375" y="181.86" />
    <use href="#hex" x="405" y="181.86" />
    <use href="#hex" x="435" y="181.86" />
    <use href="#hex" x="465" y="181.86" />
    <use href="#hex" x="495" y="181.86" />
    <use href="#hex" x="525" y="181.86" />
    <use href="#hex" x="555" y="181.86" />

    <!-- Row 9 -->
    <use href="#hex" x="0" y="207.84" />
    <use href="#hex" x="30" y="207.84" />
    <use href="#hex" x="60" y="207.84" />
    <use href="#hex" x="90" y="207.84" />
    <use href="#hex" x="120" y="207.84" />
    <use href="#hex" x="150" y="207.84" />
    <use href="#hex" x="180" y="207.84" />
    <use href="#hex" x="210" y="207.84" />
    <use href="#hex" x="240" y="207.84" />
    <use href="#hex" x="270" y="207.84" />
    <use href="#hex" x="300" y="207.84" />
    <use href="#hex" x="330" y="207.84" />
    <use href="#hex" x="360" y="207.84" />
    <use href="#hex" x="390" y="207.84" />
    <use href="#hex" x="420" y="207.84" />
    <use href="#hex" x="450" y="207.84" />
    <use href="#hex" x="480" y="207.84" />
    <use href="#hex" x="510" y="207.84" />
    <use href="#hex" x="540" y="207.84" />
    <use href="#hex" x="570" y="207.84" />

    <!-- Row 10 (staggered) -->
    <use href="#hex" x="15" y="233.82" />
    <use href="#hex" x="45" y="233.82" />
    <use href="#hex" x="75" y="233.82" />
    <use href="#hex" x="105" y="233.82" />
    <use href="#hex" x="135" y="233.82" />
    <use href="#hex" x="165" y="233.82" />
    <use href="#hex" x="195" y="233.82" />
    <use href="#hex" x="225" y="233.82" />
    <use href="#hex" x="255" y="233.82" />
    <use href="#hex" x="285" y="233.82" />
    <use href="#hex" x="315" y="233.82" />
    <use href="#hex" x="345" y="233.82" />
    <use href="#hex" x="375" y="233.82" />
    <use href="#hex" x="405" y="233.82" />
    <use href="#hex" x="435" y="233.82" />
    <use href="#hex" x="465" y="233.82" />
    <use href="#hex" x="495" y="233.82" />
    <use href="#hex" x="525" y="233.82" />
    <use href="#hex" x="555" y="233.82" />

    <!-- Row 11 -->
    <use href="#hex" x="0" y="259.8" />
    <use href="#hex" x="30" y="259.8" />
    <use href="#hex" x="60" y="259.8" />
    <use href="#hex" x="90" y="259.8" />
    <use href="#hex" x="120" y="259.8" />
    <use href="#hex" x="150" y="259.8" />
    <use href="#hex" x="180" y="259.8" />
    <use href="#hex" x="210" y="259.8" />
    <use href="#hex" x="240" y="259.8" />
    <use href="#hex" x="270" y="259.8" />
    <use href="#hex" x="300" y="259.8" />
    <use href="#hex" x="330" y="259.8" />
    <use href="#hex" x="360" y="259.8" />
    <use href="#hex" x="390" y="259.8" />
    <use href="#hex" x="420" y="259.8" />
    <use href="#hex" x="450" y="259.8" />
    <use href="#hex" x="480" y="259.8" />
    <use href="#hex" x="510" y="259.8" />
    <use href="#hex" x="540" y="259.8" />
    <use href="#hex" x="570" y="259.8" />

    <!-- Row 12 (staggered) -->
    <use href="#hex" x="15" y="285.78" />
    <use href="#hex" x="45" y="285.78" />
    <use href="#hex" x="75" y="285.78" />
    <use href="#hex" x="105" y="285.78" />
    <use href="#hex" x="135" y="285.78" />
    <use href="#hex" x="165" y="285.78" />
    <use href="#hex" x="195" y="285.78" />
    <use href="#hex" x="225" y="285.78" />
    <use href="#hex" x="255" y="285.78" />
    <use href="#hex" x="285" y="285.78" />
    <use href="#hex" x="315" y="285.78" />
    <use href="#hex" x="345" y="285.78" />
    <use href="#hex" x="375" y="285.78" />
    <use href="#hex" x="405" y="285.78" />
    <use href="#hex" x="435" y="285.78" />
    <use href="#hex" x="465" y="285.78" />
    <use href="#hex" x="495" y="285.78" />
    <use href="#hex" x="525" y="285.78" />
    <use href="#hex" x="555" y="285.78" />
  </g>
</svg>