<svg width="17" height="17" viewBox="0 0 17 17" fill="none" xmlns="http://www.w3.org/2000/svg">
<path d="M12.7708 0.5V2.875M3.27083 0.5V2.875M0.895833 5.25H15.1458M6.83333 1.6875H9.20833C12.1937 1.6875 13.6868 1.6875 14.6138 2.61533C15.5409 3.54317 15.5417 5.03546 15.5417 8.02083V10C15.5417 12.9854 15.5417 14.4785 14.6138 15.4055C13.686 16.3325 12.1937 16.3333 9.20833 16.3333H6.83333C3.84796 16.3333 2.35488 16.3333 1.42783 15.4055C0.500792 14.4777 0.5 12.9854 0.5 10V8.02083C0.5 5.03546 0.5 3.54237 1.42783 2.61533C2.35567 1.68829 3.84796 1.6875 6.83333 1.6875Z" stroke="white" stroke-linecap="round" stroke-linejoin="round"/>
<path d="M5.20569 10.418C5.82577 10.3394 6.40212 10.0569 6.84409 9.61491C7.28607 9.17294 7.56858 8.59658 7.64719 7.9765C7.67094 7.78333 7.8261 7.625 8.02085 7.625C8.2156 7.625 8.36998 7.78333 8.39452 7.9765C8.47313 8.59658 8.75564 9.17294 9.19761 9.61491C9.63958 10.0569 10.2159 10.3394 10.836 10.418C11.0292 10.4417 11.1875 10.5969 11.1875 10.7917C11.1875 10.9864 11.0292 11.1408 10.836 11.1653C10.2159 11.2439 9.63958 11.5265 9.19761 11.9684C8.75564 12.4104 8.47313 12.9868 8.39452 13.6068C8.37077 13.8 8.2156 13.9583 8.02085 13.9583C7.8261 13.9583 7.67173 13.8 7.64719 13.6068C7.56858 12.9868 7.28607 12.4104 6.84409 11.9684C6.40212 11.5265 5.82577 11.2439 5.20569 11.1653C5.01252 11.1416 4.85419 10.9864 4.85419 10.7917C4.85419 10.5969 5.01252 10.4425 5.20569 10.418Z" stroke="white" stroke-linecap="round" stroke-linejoin="round"/>
</svg>
