<svg width="29" height="29" viewBox="0 0 29 29" fill="none" xmlns="http://www.w3.org/2000/svg">
<path d="M19.7724 18.7238C18.839 19.5373 17.6734 20.5497 15.5599 20.5497H14.2961C12.7666 20.5497 11.3756 20.0037 10.3799 19.014C9.40725 18.0469 8.87183 16.7233 8.87183 15.2866V13.5881C8.87183 12.1513 9.40725 10.8278 10.3799 9.86069C11.3756 8.87096 12.7666 8.32578 14.2961 8.32578H15.5599C17.6759 8.32578 18.839 9.33731 19.7724 10.1509C20.7416 10.9896 21.5776 11.7227 23.8072 11.7227C24.1473 11.7226 24.4868 11.696 24.8225 11.643L24.8149 11.6237C24.6813 11.298 24.5247 10.9818 24.3461 10.6776L22.8559 8.14209C22.184 6.99907 21.2175 6.04991 20.0537 5.39002C18.8899 4.73013 17.5698 4.38276 16.226 4.38281H13.2449C11.9011 4.38276 10.5809 4.73013 9.41711 5.39002C8.25331 6.04991 7.28685 6.99907 6.61487 8.14209L5.12475 10.6776C4.453 11.8208 4.09937 13.1174 4.09937 14.4373C4.09937 15.7572 4.453 17.0539 5.12475 18.197L6.61487 20.7326C7.28685 21.8756 8.25331 22.8247 9.41711 23.4846C10.5809 24.1445 11.9011 24.4919 13.2449 24.4918H16.226C17.5698 24.4919 18.8899 24.1445 20.0537 23.4846C21.2175 22.8247 22.184 21.8756 22.8559 20.7326L24.3461 18.2012C24.5247 17.897 24.6813 17.5809 24.8149 17.2551L24.8225 17.2367C24.487 17.1819 24.1474 17.1539 23.8072 17.1528C21.5776 17.1528 20.7416 17.8817 19.7724 18.7246" fill="#006BFF"/>
<path d="M15.5599 9.86523H14.2961C11.9682 9.86523 10.4388 11.4983 10.4388 13.5884V15.2869C10.4388 17.3771 11.9682 19.0101 14.2961 19.0101H15.5599C18.9518 19.0101 18.6853 15.6132 23.8072 15.6132C24.2925 15.6127 24.7768 15.6565 25.2538 15.744C25.4092 14.8798 25.4092 13.9955 25.2538 13.1313C24.7767 13.2185 24.2925 13.2623 23.8072 13.2622C18.6836 13.2622 18.9518 9.86523 15.5599 9.86523Z" fill="#006BFF"/>
<path d="M28.1961 16.9851C27.3239 16.3577 26.318 15.9329 25.2543 15.743C25.2543 15.7522 25.2543 15.7597 25.2543 15.7681C25.1627 16.2689 25.0197 16.7593 24.8273 17.2317C25.706 17.3654 26.5397 17.7027 27.2594 18.2156C27.2594 18.2223 27.2551 18.2307 27.2525 18.2382C26.3263 21.1841 24.355 23.7059 21.6967 25.3456C19.0385 26.9852 15.8696 27.634 12.7658 27.1739C9.66198 26.7139 6.82911 25.1756 4.78181 22.8385C2.7345 20.5014 1.60858 17.5206 1.60858 14.4374C1.60858 11.3543 2.7345 8.37345 4.78181 6.03635C6.82911 3.69926 9.66198 2.16098 12.7658 1.70094C15.8696 1.24091 19.0385 1.88966 21.6967 3.52932C24.355 5.16899 26.3263 7.69079 27.2525 10.6366C27.2525 10.6442 27.2568 10.6526 27.2594 10.6593C26.5398 11.1723 25.7061 11.5093 24.8273 11.6423C25.0195 12.1154 25.1625 12.6063 25.2543 13.1076C25.2538 13.1154 25.2538 13.1233 25.2543 13.1311C26.318 12.9414 27.3239 12.517 28.1961 11.8897C29.0347 11.28 28.8725 10.5914 28.7452 10.1837C27.7084 6.88082 25.4997 4.05284 22.5203 2.21368C19.5409 0.374522 15.9887 -0.35377 12.509 0.161149C9.02939 0.676067 5.85328 2.40002 3.55784 5.01975C1.26241 7.63948 0 10.9811 0 14.4374C0 17.8938 1.26241 21.2354 3.55784 23.8551C5.85328 26.4749 9.02939 28.1988 12.509 28.7137C15.9887 29.2287 19.5409 28.5004 22.5203 26.6612C25.4997 24.822 27.7084 21.9941 28.7452 18.6912C28.8725 18.2835 29.0347 17.5949 28.1961 16.9851Z" fill="#006BFF"/>
<path d="M24.8225 11.642C24.487 11.6968 24.1474 11.7248 23.8072 11.7259C21.5776 11.7259 20.7416 10.997 19.7732 10.1541C18.839 9.3405 17.6759 8.32812 15.5599 8.32812H14.296C12.7658 8.32812 11.3756 8.87415 10.3799 9.86388C9.40725 10.831 8.87183 12.1545 8.87183 13.5913V15.2898C8.87183 16.7265 9.40725 18.0501 10.3799 19.0172C11.3756 20.0069 12.7658 20.5521 14.296 20.5521H15.5599C17.6759 20.5521 18.839 19.5405 19.7732 18.727C20.7416 17.8882 21.5776 17.1551 23.8072 17.1551C24.1473 17.1552 24.4868 17.1819 24.8225 17.2348C25.0153 16.7625 25.1583 16.2721 25.2495 15.7712C25.25 15.7628 25.25 15.7544 25.2495 15.746C24.7724 15.6592 24.2882 15.6156 23.8029 15.616C18.6793 15.616 18.9474 19.0138 15.5556 19.0138H14.2918C11.9639 19.0138 10.4345 17.3799 10.4345 15.2898V13.5879C10.4345 11.4978 11.9639 9.86472 14.2918 9.86472H15.5556C18.9474 9.86472 18.681 13.2608 23.8029 13.2608C24.2882 13.2616 24.7725 13.2181 25.2495 13.1308C25.2495 13.1233 25.2495 13.1157 25.2495 13.1073C25.1577 12.606 25.0147 12.1151 24.8225 11.642Z" fill="#0AE8F0"/>
<path d="M24.8225 11.642C24.487 11.6968 24.1474 11.7248 23.8072 11.7259C21.5776 11.7259 20.7416 10.997 19.7732 10.1541C18.839 9.3405 17.6759 8.32812 15.5599 8.32812H14.296C12.7658 8.32812 11.3756 8.87415 10.3799 9.86388C9.40725 10.831 8.87183 12.1545 8.87183 13.5913V15.2898C8.87183 16.7265 9.40725 18.0501 10.3799 19.0172C11.3756 20.0069 12.7658 20.5521 14.296 20.5521H15.5599C17.6759 20.5521 18.839 19.5405 19.7732 18.727C20.7416 17.8882 21.5776 17.1551 23.8072 17.1551C24.1473 17.1552 24.4868 17.1819 24.8225 17.2348C25.0153 16.7625 25.1583 16.2721 25.2495 15.7712C25.25 15.7628 25.25 15.7544 25.2495 15.746C24.7724 15.6592 24.2882 15.6156 23.8029 15.616C18.6793 15.616 18.9474 19.0138 15.5556 19.0138H14.2918C11.9639 19.0138 10.4345 17.3799 10.4345 15.2898V13.5879C10.4345 11.4978 11.9639 9.86472 14.2918 9.86472H15.5556C18.9474 9.86472 18.681 13.2608 23.8029 13.2608C24.2882 13.2616 24.7725 13.2181 25.2495 13.1308C25.2495 13.1233 25.2495 13.1157 25.2495 13.1073C25.1577 12.606 25.0147 12.1151 24.8225 11.642Z" fill="#0AE8F0"/>
</svg>
