<svg width="349" height="283" viewBox="0 0 349 283" fill="none" xmlns="http://www.w3.org/2000/svg">
<path d="M200.429 74.1723C200.308 74.3923 200.186 74.6199 200.05 74.84C199.989 74.9537 199.913 75.0675 199.86 75.1738C199.822 75.2723 199.784 75.3862 199.754 75.4924C199.617 75.94 199.496 76.4256 199.382 76.8959L198.684 79.7561C198.464 80.712 198.251 81.668 198.054 82.6239C197.932 83.2612 197.811 83.8909 197.735 84.5585L221.203 61.7377C219.104 57.2388 217.724 52.4389 217.112 47.5127C213.469 49.2424 208.809 51.3895 202.517 53.9993C192.065 58.3313 189.257 80.7576 189.257 80.7576C189.257 80.7576 194.077 81.8197 196.794 81.0307C196.838 80.4801 196.917 79.9328 197.029 79.392C197.235 78.3629 197.556 77.3602 197.985 76.4028C198.203 75.9123 198.465 75.4425 198.767 74.9993C198.843 74.8855 198.934 74.7717 199.033 74.6503L199.238 74.3392C199.382 74.1344 199.511 73.922 199.64 73.7095C200.703 72.0025 201.712 70.2349 202.706 68.4747L205.704 63.1716C204.885 65.0303 204.042 66.879 203.177 68.7175C202.296 70.5459 201.416 72.3743 200.429 74.1723ZM190.767 80.5451C190.472 80.5346 190.193 80.4101 189.988 80.1979C189.783 79.9856 189.669 79.7021 189.669 79.4071C189.669 79.1121 189.783 78.8286 189.988 78.6164C190.193 78.4041 190.472 78.2796 190.767 78.2691C191.062 78.2796 191.342 78.4041 191.547 78.6164C191.752 78.8286 191.866 79.1121 191.866 79.4071C191.866 79.7021 191.752 79.9856 191.547 80.1979C191.342 80.4101 191.062 80.5346 190.767 80.5451ZM194.502 80.5451C194.207 80.5346 193.927 80.4101 193.722 80.1979C193.517 79.9856 193.403 79.7021 193.403 79.4071C193.403 79.1121 193.517 78.8286 193.722 78.6164C193.927 78.4041 194.207 78.2796 194.502 78.2691C194.797 78.2796 195.076 78.4041 195.281 78.6164C195.486 78.8286 195.6 79.1121 195.6 79.4071C195.6 79.7021 195.486 79.9856 195.281 80.1979C195.076 80.4101 194.797 80.5346 194.502 80.5451Z" fill="white"/>
<path d="M197.672 85.5957C198.936 86.1473 200.278 86.4986 201.651 86.6369C202.309 86.6932 202.971 86.6684 203.623 86.563C204.298 86.4809 204.955 86.2706 205.701 86.1053C205.208 86.6901 204.575 87.1416 203.861 87.4185C203.135 87.7187 202.346 87.8396 201.563 87.7712C200.785 87.7122 200.03 87.4859 199.348 87.1076C198.672 86.751 198.096 86.2313 197.672 85.5957ZM130.579 121.87C130.458 120.83 130.397 119.783 130.397 118.736L130.579 121.87Z" fill="white"/>
<path d="M130.632 122.795L130.579 121.869C130.77 123.944 131.391 125.956 132.401 127.779C130.48 124.964 130.632 122.795 130.632 122.795ZM132.469 127.885C132.712 128.242 132.993 128.606 133.304 128.978C132.99 128.642 132.71 128.276 132.469 127.885ZM292.526 141.777L11.6978 139.872V135.282C35.0672 135.654 58.4366 135.935 81.8061 136.125C105.175 136.382 128.545 136.466 151.914 136.602C175.284 136.769 198.661 136.777 222.03 136.822L257.088 136.86L291.873 136.785L292.526 141.777Z" fill="white"/>
<path d="M337.261 109.291V114.002L292.526 141.777L292.442 136.687L303.63 129.889L314.847 123.038L337.261 109.291Z" fill="white"/>
<path d="M187.307 122.011L188.825 122.038" stroke="white" stroke-width="1.936" stroke-miterlimit="10"/>
<path d="M191.948 122.095L227.855 122.741" stroke="white" stroke-width="1.936" stroke-miterlimit="10" stroke-dasharray="3.98 3.98"/>
<path d="M229.416 122.77L230.934 122.797" stroke="white" stroke-width="1.936" stroke-miterlimit="10"/>
<path d="M188.967 119.297L190.486 119.324" stroke="white" stroke-width="1.936" stroke-miterlimit="10"/>
<path d="M193.608 119.38L229.516 120.027" stroke="white" stroke-width="1.936" stroke-miterlimit="10" stroke-dasharray="3.98 3.98"/>
<path d="M231.077 120.055L232.595 120.082" stroke="white" stroke-width="1.936" stroke-miterlimit="10"/>
<path d="M190.971 116.615L192.49 116.642" stroke="white" stroke-width="1.936" stroke-miterlimit="10"/>
<path d="M195.612 116.698L231.519 117.346" stroke="white" stroke-width="1.936" stroke-miterlimit="10" stroke-dasharray="3.98 3.98"/>
<path d="M233.081 117.374L234.599 117.401" stroke="white" stroke-width="1.936" stroke-miterlimit="10"/>
<path d="M61.6717 113.649C62.0619 124.654 62.32 135.659 62.6489 146.664L63.3821 179.679C63.5161 185.181 63.6708 190.684 63.8462 196.186C64.0019 201.688 64.01 207.191 63.8707 212.693L63.5837 220.947C63.4385 223.698 63.3415 226.449 63.146 229.201C62.8061 234.703 62.3719 240.205 61.6716 245.708C61.6641 245.767 61.6351 245.822 61.5901 245.862C61.5452 245.901 61.4873 245.923 61.4273 245.923C61.3674 245.923 61.3095 245.901 61.2645 245.862C61.2196 245.822 61.1906 245.767 61.183 245.708C60.4828 240.205 60.0486 234.703 59.7089 229.201C59.5132 226.449 59.4161 223.698 59.271 220.947L58.984 212.693C58.8425 207.191 58.8506 201.688 59.0085 196.186C59.1896 190.684 59.3443 185.181 59.4726 179.679L60.2057 146.664C60.5347 135.659 60.7928 124.654 61.183 113.649C61.1853 113.586 61.2121 113.526 61.2576 113.482C61.3032 113.439 61.364 113.414 61.4273 113.414C61.4906 113.414 61.5514 113.439 61.597 113.482C61.6425 113.526 61.6693 113.586 61.6717 113.649ZM17.9536 141.692C18.3438 152.697 18.6019 163.702 18.9309 174.707L19.664 207.722C19.7981 213.224 19.9528 218.727 20.1282 224.229C20.284 229.731 20.2922 235.234 20.1527 240.736L19.8656 248.99C19.7205 251.741 19.6234 254.492 19.4279 257.244C19.0881 262.746 18.654 268.248 17.9536 273.751C17.9461 273.81 17.9171 273.865 17.8721 273.905C17.8271 273.944 17.7692 273.966 17.7093 273.966C17.6493 273.966 17.5914 273.944 17.5464 273.905C17.5014 273.865 17.4725 273.81 17.4649 273.751C16.7647 268.248 16.3305 262.746 15.9908 257.244C15.7951 254.492 15.698 251.741 15.5529 248.99L15.2659 240.736C15.1244 235.234 15.1325 229.731 15.2904 224.229C15.4715 218.727 15.6262 213.224 15.7545 207.722L16.4876 174.707C16.8166 163.702 17.0747 152.697 17.4649 141.692C17.4672 141.629 17.4939 141.569 17.5395 141.525C17.585 141.481 17.6459 141.457 17.7092 141.457C17.7726 141.457 17.8335 141.481 17.879 141.525C17.9246 141.569 17.9514 141.629 17.9536 141.692ZM331.57 113.649C331.96 124.654 332.218 135.659 332.547 146.664L333.28 179.679C333.414 185.181 333.569 190.684 333.744 196.186C333.9 201.688 333.908 207.191 333.769 212.693L333.482 220.947C333.337 223.698 333.24 226.449 333.044 229.201C332.704 234.703 332.27 240.205 331.57 245.708C331.562 245.767 331.533 245.822 331.488 245.862C331.443 245.901 331.386 245.923 331.326 245.923C331.266 245.923 331.208 245.901 331.163 245.862C331.118 245.822 331.089 245.767 331.081 245.708C330.381 240.205 329.947 234.703 329.607 229.201C329.411 226.449 329.314 223.698 329.169 220.947L328.882 212.693C328.741 207.191 328.749 201.688 328.907 196.186C329.088 190.684 329.243 185.181 329.371 179.679L330.104 146.664C330.433 135.659 330.691 124.654 331.081 113.649C331.084 113.586 331.11 113.526 331.156 113.482C331.201 113.439 331.262 113.414 331.326 113.414C331.389 113.414 331.45 113.439 331.495 113.482C331.541 113.526 331.568 113.586 331.57 113.649ZM287.852 141.692C288.242 152.697 288.5 163.702 288.829 174.707L289.562 207.722C289.696 213.224 289.851 218.727 290.026 224.229C290.182 229.731 290.19 235.234 290.051 240.736L289.764 248.99C289.619 251.741 289.522 254.492 289.326 257.244C288.986 262.746 288.552 268.248 287.852 273.751C287.844 273.81 287.815 273.865 287.77 273.905C287.725 273.944 287.667 273.966 287.607 273.966C287.548 273.966 287.49 273.944 287.445 273.905C287.4 273.865 287.371 273.81 287.363 273.751C286.663 268.248 286.229 262.746 285.889 257.244C285.693 254.492 285.596 251.741 285.451 248.99L285.164 240.736C285.023 235.234 285.031 229.731 285.189 224.229C285.37 218.727 285.524 213.224 285.653 207.722L286.386 174.707C286.715 163.702 286.973 152.697 287.363 141.692C287.366 141.629 287.392 141.57 287.438 141.526C287.483 141.482 287.544 141.457 287.607 141.457C287.671 141.457 287.732 141.482 287.777 141.526C287.823 141.57 287.85 141.629 287.852 141.692ZM226.472 41.6007C225.192 41.5596 223.971 41.0547 223.035 40.1801C222.084 39.3626 221.244 38.4237 220.536 37.3875C219.823 36.3731 219.183 35.3098 218.619 34.2054C218.045 33.1054 217.536 31.9731 217.093 30.8142L218.305 31.1358C218.097 31.3132 217.855 31.4454 217.593 31.524C217.331 31.6026 217.056 31.6258 216.785 31.5923C216.331 31.5223 215.901 31.3406 215.535 31.0636C214.898 30.5917 214.394 29.9618 214.075 29.2362C213.741 28.5336 213.589 27.7585 213.631 26.9818C213.676 26.1974 213.948 25.4428 214.413 24.8097C214.865 24.2166 215.443 23.7319 216.106 23.3911C216.45 23.2065 216.826 23.0883 217.214 23.0426C217.637 22.9943 218.064 23.0974 218.418 23.3335C218.988 23.8177 219.381 24.4765 219.537 25.2073C219.714 25.87 219.822 26.5493 219.86 27.2342L219.652 26.9862C220.516 27.1647 221.415 27.0402 222.198 26.6339C222.997 26.2213 223.718 25.6719 224.329 25.0106C225.551 23.651 226.591 22.1388 227.425 20.5119C228.288 18.8948 229.07 17.2303 229.796 15.5406C230.522 13.8567 231.192 12.1214 231.76 10.4015C231.817 10.2263 231.929 10.0738 232.078 9.96544C232.227 9.8571 232.407 9.79848 232.592 9.79786C232.776 9.79724 232.956 9.85466 233.106 9.96199C233.256 10.0693 233.369 10.2211 233.428 10.3959L233.44 10.4322C234.237 12.8405 235.117 15.259 236.082 17.604C236.586 18.7674 237.113 19.9162 237.705 21.012C238.227 22.0644 238.957 23.0006 239.849 23.7645L239.931 23.8233C240.001 23.874 240.059 23.9389 240.102 24.0138C240.144 24.0887 240.17 24.1718 240.178 24.2576C240.325 25.8962 240.365 27.5202 240.353 29.1562C240.344 29.9758 240.291 30.7943 240.193 31.6081C240.126 32.4349 239.921 33.2447 239.589 34.0045C239.579 34.0237 239.563 34.0387 239.543 34.0466C239.523 34.0544 239.501 34.0546 239.481 34.0471C239.461 34.0396 239.444 34.0249 239.435 34.0058C239.425 33.9868 239.423 33.9648 239.428 33.9442L239.43 33.9373C239.61 33.165 239.681 32.3712 239.641 31.5792C239.621 30.7818 239.552 29.9854 239.487 29.1889C239.342 27.5983 239.101 26.0022 238.84 24.4375L239.169 24.9302C237.994 24.1311 237.019 23.0713 236.321 21.8335C235.625 20.7023 235.003 19.5278 234.457 18.3171C233.374 15.9266 232.469 13.4592 231.75 10.9351L233.43 10.9658C232.766 12.7607 232.028 14.4774 231.219 16.1862C230.415 17.8975 229.488 19.5483 228.445 21.1257C227.414 22.7269 226.195 24.1989 224.813 25.5102C224.105 26.1682 223.301 26.7146 222.428 27.1308C221.529 27.5621 220.516 27.6935 219.537 27.5055C219.481 27.4941 219.431 27.4652 219.394 27.423C219.357 27.3808 219.334 27.3276 219.329 27.2714L219.328 27.2573C219.287 26.6197 219.166 25.9899 218.966 25.3828C218.822 24.8138 218.487 24.3111 218.018 23.958C217.167 23.525 215.916 24.5546 215.367 25.4475C215.103 25.9307 214.969 26.4735 214.977 27.0236C214.985 27.5736 215.134 28.1124 215.41 28.5881C215.653 29.0675 216.001 29.486 216.428 29.8123C216.591 29.937 216.781 30.0214 216.984 30.0588C217.041 30.0702 217.1 30.0691 217.157 30.0557C217.215 30.0423 217.268 30.0168 217.315 29.9809L217.381 29.9343C217.546 29.8197 217.749 29.7751 217.946 29.8103C218.144 29.8454 218.319 29.9575 218.434 30.1218C218.472 30.1778 218.503 30.2386 218.526 30.3026C218.914 31.4 219.394 32.5102 219.875 33.5938C220.371 34.6759 220.909 35.7378 221.504 36.7615C222.087 37.7845 222.776 38.7438 223.559 39.6234C224.303 40.5364 225.332 41.1724 226.481 41.429C226.493 41.4308 226.503 41.4347 226.513 41.4407C226.523 41.4466 226.531 41.4544 226.538 41.4636C226.544 41.4727 226.549 41.4832 226.552 41.4942C226.555 41.5052 226.555 41.5167 226.553 41.5279C226.55 41.5474 226.54 41.5652 226.525 41.5784C226.511 41.5917 226.492 41.5995 226.472 41.6007Z" fill="white"/>
<path d="M222.229 38.6395C222.303 39.2441 222.366 39.8486 222.421 40.4531C222.496 41.0817 222.492 41.7173 222.407 42.3447C222.213 43.6446 221.657 44.8636 220.802 45.8623C220.369 46.367 219.867 46.8085 219.312 47.174C219.037 47.3551 218.753 47.5203 218.459 47.6687L217.646 48.0744C216.557 48.6064 215.472 49.1476 214.363 49.6373C212.154 50.6368 209.861 51.4477 207.588 52.2945C206.446 52.7062 205.314 53.136 204.192 53.5934C203.064 53.9855 201.986 54.5083 200.979 55.1512C199.087 56.5779 197.546 58.4165 196.471 60.5275C195.329 62.6042 194.359 64.7712 193.571 67.0067C192.046 71.5295 190.831 76.1509 189.934 80.8388L189.406 80.0912C190.726 80.4308 192.066 80.686 193.419 80.855C194.095 80.9414 194.775 80.9845 195.457 80.9839C196.136 80.9938 196.813 80.8905 197.459 80.6782C197.47 80.674 197.481 80.6719 197.492 80.6721C197.503 80.6722 197.515 80.6746 197.525 80.6791C197.536 80.6836 197.545 80.6901 197.553 80.6983C197.561 80.7064 197.567 80.716 197.571 80.7266C197.578 80.7452 197.579 80.7656 197.573 80.7845C197.567 80.8035 197.554 80.8198 197.538 80.831C196.915 81.1968 196.227 81.4371 195.512 81.5383C194.807 81.6661 194.093 81.7326 193.377 81.7371C192.665 81.752 191.952 81.7297 191.243 81.6702C190.531 81.6131 189.834 81.5422 189.113 81.4181C188.953 81.3906 188.81 81.3043 188.711 81.1762C188.613 81.0481 188.566 80.8876 188.58 80.7265L188.585 80.6702C188.815 78.2298 189.212 75.808 189.774 73.4218C190.321 71.0286 191.058 68.6826 191.977 66.4059C192.862 64.0978 194.004 61.8966 195.382 59.8438C196.776 57.7799 198.571 56.0179 200.661 54.6628C201.727 54.0568 202.836 53.5314 203.98 53.0912C205.089 52.6109 206.178 52.0832 207.254 51.5297C209.416 50.4427 211.537 49.2727 213.721 48.2466C214.809 47.7239 215.916 47.242 217.014 46.7403L217.84 46.3686C218.094 46.2605 218.342 46.1377 218.581 46.0007C219.054 45.7268 219.49 45.394 219.879 45.0103C220.679 44.2228 221.263 43.2445 221.579 42.1679C221.739 41.609 221.835 41.0337 221.865 40.4531C221.921 39.8486 221.983 39.2441 222.057 38.6396C222.06 38.6186 222.07 38.5993 222.086 38.5852C222.102 38.5712 222.122 38.5635 222.143 38.5635C222.164 38.5635 222.185 38.5712 222.201 38.5852C222.216 38.5993 222.227 38.6185 222.229 38.6395ZM197.672 85.5959C198.156 87.2873 198.415 89.0355 198.44 90.7948C198.533 92.5492 198.546 94.3052 198.481 96.0629C198.428 97.8198 198.314 99.5755 198.109 101.33C197.938 103.113 197.609 104.878 197.124 106.602L196.365 105.598L207.12 104.998L217.879 104.489L228.639 104.027C232.225 103.856 235.813 103.757 239.397 103.442C237.642 103.841 235.858 104.127 234.076 104.379C232.294 104.649 230.507 104.867 228.718 105.064C225.141 105.459 221.557 105.776 217.971 106.04C214.386 106.323 210.796 106.509 207.206 106.712C203.615 106.874 200.026 107.042 196.429 107.127L196.418 107.127C196.317 107.13 196.217 107.112 196.123 107.076C196.029 107.04 195.943 106.985 195.87 106.916C195.797 106.846 195.738 106.763 195.698 106.671C195.657 106.579 195.635 106.48 195.632 106.379C195.63 106.292 195.643 106.205 195.67 106.122C196.165 104.494 196.542 102.832 196.799 101.149C197.079 99.4448 197.283 97.7211 197.467 95.9952C197.633 94.2676 197.786 92.5347 197.868 90.7973C197.991 89.0615 197.925 87.3175 197.672 85.5959Z" fill="white"/>
<path d="M241.249 106.714C238.183 107.234 224.581 106.954 217.545 106.77C217.545 106.77 232.595 94.1757 232.642 89.4507C232.642 89.4507 237.887 102.945 239.397 103.442L241.249 106.714ZM190.042 80.9062C189.885 82.2518 189.65 83.5746 189.389 84.8897C189.133 86.2066 188.834 87.5107 188.52 88.8104C188.203 90.1096 187.862 91.4015 187.496 92.6863C187.154 93.978 186.734 95.2469 186.354 96.5276L186.346 96.5533C186.328 96.6126 186.303 96.6691 186.269 96.7214C185.363 98.132 184.438 99.5318 183.469 100.905C182.489 102.272 181.49 103.626 180.388 104.92C181.011 103.339 181.736 101.82 182.482 100.313C183.238 98.8118 184.038 97.3377 184.857 95.8743L184.772 96.0677C185.139 94.7832 185.465 93.4869 185.87 92.2134C186.248 90.9321 186.653 89.6588 187.086 88.3935C187.518 87.128 187.965 85.8669 188.456 84.6185C188.941 83.3684 189.453 82.126 190.042 80.9062ZM197.04 102.488C197.275 102.962 197.406 103.48 197.425 104.008C197.444 104.536 197.35 105.063 197.15 105.552C197.088 105.732 196.989 105.898 196.86 106.037C196.73 106.177 196.572 106.288 196.397 106.363C196.468 106.045 196.502 105.72 196.497 105.394C196.501 105.078 196.525 104.763 196.552 104.444C196.601 103.769 196.766 103.107 197.04 102.488Z" fill="white"/>
<path d="M214.247 106.713C216.207 105.934 218.072 104.934 219.806 103.732C221.514 102.553 223.12 101.235 224.609 99.7895C225.345 99.0576 226.089 98.3318 226.758 97.5315C227.493 96.7876 228.1 95.9367 228.786 95.1391C229.139 94.7468 229.424 94.3055 229.746 93.887L230.708 92.6225C231.329 91.7619 231.915 90.8734 232.595 90.0204C232.257 91.0433 231.863 92.0525 231.436 93.0499C230.933 94.0036 230.482 95.0013 229.885 95.9098C228.734 97.7712 227.365 99.4881 225.806 101.024C224.222 102.551 222.433 103.849 220.49 104.881C218.568 105.942 216.437 106.568 214.247 106.713ZM205.618 52.2261C206.442 47.4027 207.451 42.6321 208.477 37.8732L210.023 30.7506C210.287 29.5679 210.557 28.3885 210.751 27.2122C210.84 26.6319 210.878 26.085 210.951 25.4103C211.035 24.7888 211.153 24.1724 211.305 23.5641C211.909 21.1728 212.729 18.8414 213.756 16.5988C214.271 15.4762 214.863 14.3909 215.529 13.3507C216.188 12.2885 216.96 11.3003 217.83 10.4031C219.603 8.48584 222.02 7.28876 224.619 7.04078C225.272 6.99118 225.927 6.99443 226.579 7.05048C227.223 7.12426 227.862 7.24382 228.489 7.40826C229.729 7.73648 230.93 8.19535 232.072 8.77717L231.481 8.69878C232.828 8.42399 234.215 8.40233 235.571 8.6349C236.954 8.86288 238.259 9.42751 239.373 10.279C239.926 10.7113 240.429 11.2058 240.87 11.7527C241.068 12.0367 241.246 12.3344 241.432 12.6258C241.63 12.9068 241.793 13.2102 241.92 13.5296C242.212 14.1382 242.438 14.7765 242.594 15.4333C242.772 16.0706 242.895 16.7218 242.963 17.38C243.012 18.0312 243.12 18.6817 243.113 19.3296L243.059 21.267C242.996 22.5356 242.86 23.7409 242.833 24.9883C242.789 26.223 242.809 27.4591 242.894 28.6917C242.887 29.9129 243.225 31.1113 243.868 32.1496L243.876 32.1604C243.889 32.1771 243.895 32.1979 243.894 32.2189C243.892 32.2399 243.883 32.2596 243.868 32.2741C243.853 32.2887 243.833 32.2972 243.811 32.2979C243.79 32.2987 243.77 32.2916 243.754 32.2781C243.28 31.8252 242.925 31.2625 242.72 30.6399C242.513 30.0337 242.346 29.4144 242.222 28.7859C241.988 27.5363 241.841 26.2721 241.781 25.0022C241.697 23.7462 241.699 22.4495 241.692 21.2174L241.623 19.4004C241.585 18.7983 241.463 18.211 241.39 17.6178C241.303 17.0341 241.166 16.4592 240.979 15.8995C240.818 15.3456 240.607 14.8078 240.348 14.2927C240.24 14.0312 240.099 13.785 239.927 13.5605C239.769 13.33 239.622 13.0905 239.46 12.8653C239.101 12.4493 238.698 12.0739 238.257 11.7458C237.376 11.0643 236.339 10.613 235.24 10.4327C234.126 10.2162 232.982 10.1962 231.861 10.3738L231.808 10.3828C231.623 10.4144 231.434 10.3836 231.269 10.2953C229.279 9.12608 227.013 8.50601 224.705 8.49851C222.384 8.5896 220.17 9.49989 218.457 11.0677C216.674 12.6813 215.238 14.6404 214.237 16.8259C213.187 19.0054 212.469 21.3289 212.104 23.72C212.012 24.3067 211.953 24.898 211.927 25.4912C211.917 26.0321 211.929 26.7067 211.886 27.3382C211.782 28.5826 211.641 29.8088 211.439 31.0197C211.056 33.4471 210.496 35.8301 209.919 38.2046C208.748 42.9507 207.407 47.6493 205.785 52.2695C205.777 52.29 205.763 52.307 205.744 52.3171C205.724 52.3273 205.702 52.3299 205.681 52.3244C205.66 52.3189 205.642 52.3058 205.63 52.2876C205.619 52.2694 205.614 52.2475 205.618 52.2261ZM175.049 107.94C175.296 107.378 175.634 106.859 176.049 106.405C176.472 105.937 176.962 105.532 177.503 105.206C178.61 104.562 179.854 104.19 181.132 104.12L181.069 104.125C181.944 104.03 182.827 104.043 183.698 104.163C184.56 104.28 185.404 104.504 186.211 104.829C187.018 105.158 187.768 105.613 188.432 106.177C189.086 106.729 189.62 107.409 190.001 108.175C189.343 107.712 188.647 107.306 187.919 106.963C187.223 106.642 186.496 106.393 185.749 106.22C184.281 105.87 182.771 105.726 181.263 105.792L181.2 105.797C180.12 105.797 179.048 105.965 178.021 106.297C177.496 106.473 176.989 106.697 176.506 106.968C175.999 107.259 175.512 107.584 175.049 107.94Z" fill="white"/>
<path d="M190.042 114.002C184.898 126.355 176.928 121.481 176.928 121.481C176.928 121.481 180.506 119.327 181.121 108.991C181.121 108.991 182.675 106.718 184.68 108.991C186.356 110.777 188.147 112.451 190.042 114.002Z" fill="white"/>
<path d="M190.116 113.983C189.939 114.618 189.718 115.352 189.451 116.107C189.155 116.813 188.817 117.446 188.476 118.115C188.284 118.434 188.063 118.737 187.849 119.044C187.645 119.361 187.417 119.662 187.165 119.942L186.375 120.767C186.091 121.026 185.791 121.269 185.479 121.493C184.215 122.416 182.68 122.892 181.116 122.846C179.609 122.796 178.134 122.396 176.807 121.679C176.774 121.662 176.746 121.636 176.726 121.605C176.705 121.574 176.693 121.538 176.69 121.501C176.687 121.463 176.693 121.426 176.709 121.392C176.724 121.358 176.748 121.328 176.778 121.306L176.809 121.283C177.627 120.574 178.245 119.664 178.601 118.642C179.001 117.621 179.305 116.565 179.508 115.488C179.637 114.957 179.708 114.408 179.821 113.874C179.898 113.329 179.984 112.787 180.049 112.241C180.098 111.691 180.161 111.145 180.199 110.595C180.22 110.042 180.271 109.493 180.312 108.942L180.315 108.895C180.325 108.764 180.372 108.638 180.452 108.533C180.822 107.999 181.346 107.59 181.953 107.36C182.279 107.239 182.626 107.186 182.973 107.206C183.319 107.226 183.658 107.318 183.968 107.475C184.48 107.756 184.928 108.142 185.282 108.606C185.58 108.965 185.883 109.326 186.196 109.683C186.824 110.395 187.472 111.101 188.126 111.807L189.106 112.873C189.445 113.247 189.741 113.539 190.116 113.983ZM189.969 114.02C189.552 113.795 189.151 113.543 188.767 113.265C188.363 112.994 187.964 112.713 187.576 112.419C186.795 111.837 186.034 111.225 185.304 110.567C184.935 110.243 184.577 109.901 184.23 109.543C183.973 109.258 183.663 109.025 183.318 108.858C183.195 108.798 183.06 108.766 182.923 108.765C182.786 108.763 182.651 108.792 182.527 108.85C182.239 108.99 181.987 109.194 181.79 109.447L181.93 109.039C181.881 109.609 181.841 110.181 181.772 110.75C181.699 111.319 181.601 111.887 181.516 112.454C181.415 113.02 181.292 113.584 181.177 114.147C181.025 114.705 180.902 115.267 180.707 115.814C180.345 116.917 179.867 117.979 179.282 118.981C178.721 120.018 177.962 120.935 177.048 121.68L177.05 121.284C177.66 121.616 178.321 121.846 179.006 121.963C179.348 122.019 179.695 122.043 180.041 122.037C180.384 122.043 180.726 122.016 181.063 121.956C182.376 121.714 183.616 121.176 184.689 120.382C185.789 119.572 186.766 118.608 187.591 117.52C187.974 116.946 188.421 116.368 188.799 115.805L189.969 114.02ZM185.563 96.2976C185.989 96.0403 186.457 95.8605 186.946 95.7667C187.424 95.6646 187.912 95.6135 188.4 95.6143C189.388 95.6008 190.362 95.8358 191.235 96.2976C190.758 96.3828 190.276 96.4326 189.792 96.4465C189.322 96.4688 188.859 96.4717 188.396 96.4735C187.449 96.4777 186.503 96.4189 185.563 96.2976ZM147.589 140.823C146.831 141.013 146.117 141.349 145.487 141.811C144.845 142.26 144.243 142.764 143.688 143.317C142.572 144.427 141.544 145.623 140.613 146.892C138.759 149.448 137.044 152.103 135.476 154.844C132.295 160.31 129.52 166.007 126.784 171.714C124.067 177.433 121.502 183.226 119.032 189.059C116.554 194.887 114.091 200.732 111.784 206.623L111.653 205.907C113.791 208.325 116.064 210.668 118.403 212.917C120.736 215.175 123.192 217.302 125.76 219.289C128.274 221.321 131.079 222.963 134.082 224.16C135.551 224.748 137.151 224.93 138.715 224.688C139.474 224.523 140.186 224.187 140.796 223.706C141.406 223.226 141.899 222.612 142.236 221.913L142.239 221.907C142.258 221.871 142.285 221.839 142.319 221.815C142.353 221.791 142.391 221.775 142.432 221.769C143.924 221.569 145.437 221.588 146.923 221.826C148.412 222.047 149.853 222.523 151.181 223.232C151.846 223.587 152.477 224.003 153.066 224.474C153.644 224.958 154.176 225.496 154.653 226.081C155.139 226.656 155.57 227.276 155.943 227.931C156.329 228.575 156.593 229.283 156.922 229.958L156.686 229.762C159.91 230.06 163.162 229.747 166.271 228.842C169.393 227.969 172.388 226.691 175.178 225.042L177.23 223.743C177.921 223.322 178.536 222.787 179.193 222.315C180.489 221.345 181.732 220.306 182.915 219.201C183.541 218.687 184.079 218.076 184.651 217.503L186.346 215.763C187.408 214.538 188.432 213.28 189.477 212.042L189.328 212.58L185.906 186.99L184.222 174.192L182.606 161.385C182.59 161.252 182.603 161.116 182.647 160.988C182.69 160.861 182.762 160.745 182.857 160.649C182.952 160.554 183.067 160.481 183.195 160.437C183.322 160.392 183.457 160.377 183.591 160.393L183.603 160.395C189.708 161.107 195.848 161.488 201.994 161.534C208.142 161.636 214.288 161.267 220.379 160.429C226.428 159.524 232.493 158.132 237.928 155.31C240.659 153.938 243.117 152.08 245.184 149.829C247.233 147.533 248.673 144.759 249.371 141.762C249.376 141.74 249.39 141.721 249.409 141.709C249.428 141.697 249.451 141.693 249.473 141.698C249.495 141.702 249.514 141.716 249.526 141.734C249.539 141.753 249.544 141.776 249.539 141.798C248.947 144.877 247.591 147.759 245.595 150.179C243.573 152.585 241.111 154.586 238.341 156.073C235.594 157.572 232.696 158.776 229.695 159.664C226.709 160.568 223.665 161.267 220.584 161.755C214.432 162.707 208.217 163.186 201.992 163.187C198.883 163.215 195.776 163.127 192.673 162.95C189.566 162.771 186.482 162.53 183.368 162.151L184.365 161.16L186.027 173.961L187.621 186.771L190.757 212.397L190.761 212.433C190.772 212.523 190.764 212.614 190.737 212.7C190.711 212.786 190.667 212.866 190.608 212.934C189.519 214.185 188.451 215.453 187.345 216.686L185.579 218.439C185.007 219.039 184.403 219.609 183.771 220.146C182.53 221.249 181.23 222.283 179.877 223.244C179.191 223.712 178.548 224.24 177.828 224.656L175.691 225.935C172.79 227.554 169.692 228.793 166.473 229.622C163.247 230.473 159.893 230.729 156.576 230.377C156.53 230.372 156.486 230.355 156.448 230.328C156.41 230.301 156.379 230.265 156.359 230.223L156.339 230.182C156.026 229.534 155.779 228.849 155.414 228.23C155.064 227.603 154.657 227.009 154.198 226.456C153.749 225.897 153.248 225.381 152.702 224.915C152.144 224.463 151.547 224.063 150.917 223.719C149.648 223.029 148.269 222.562 146.842 222.34C145.415 222.118 143.963 222.11 142.534 222.318L142.729 222.174L142.047 223.249C141.75 223.556 141.479 223.894 141.154 224.172C140.485 224.723 139.693 225.105 138.845 225.284C137.171 225.569 135.452 225.397 133.868 224.787C130.777 223.609 127.869 221.998 125.231 220.003C122.579 218.064 120.038 215.979 117.619 213.757C115.193 211.542 112.855 209.255 110.605 206.84C110.518 206.747 110.46 206.632 110.435 206.508C110.411 206.384 110.422 206.255 110.467 206.137L110.473 206.123C112.747 200.183 115.113 194.293 117.633 188.459C120.17 182.635 122.802 176.851 125.587 171.138C128.369 165.423 131.377 159.811 134.693 154.376C136.341 151.646 138.162 149.025 140.145 146.528C141.142 145.276 142.234 144.103 143.411 143.02C144.002 142.475 144.644 141.987 145.327 141.564C146.005 141.119 146.762 140.81 147.557 140.654C147.58 140.651 147.602 140.656 147.621 140.669C147.639 140.682 147.652 140.701 147.656 140.723C147.66 140.745 147.655 140.768 147.643 140.787C147.63 140.806 147.611 140.819 147.589 140.823ZM268.075 56.5482C269.337 56.1274 270.66 55.9203 271.989 55.9353C273.349 55.9299 274.697 56.1823 275.962 56.679C277.244 57.2205 278.386 58.0456 279.302 59.0921C280.204 60.1451 280.911 61.3501 281.39 62.6508C282.292 65.2145 282.723 67.9197 282.662 70.6364C282.608 73.293 282.39 75.9437 282.008 78.5733C281.323 83.7898 280.497 88.9929 279.382 94.1408C278.342 99.3069 276.865 104.376 274.969 109.293C275.634 106.75 276.203 104.191 276.676 101.617C277.181 99.0479 277.628 96.4693 278.063 93.8901C278.902 88.7258 279.649 83.5475 280.303 78.3551C280.696 75.7937 280.941 73.2118 281.038 70.6223C281.158 68.0824 280.852 65.5403 280.131 63.1017C279.792 61.9049 279.218 60.7878 278.442 59.8156C277.665 58.8434 276.703 58.0357 275.611 57.4399C273.262 56.3341 270.617 56.0212 268.075 56.5482Z" fill="white"/>
<path d="M184.195 166.54C189.658 167.656 195.113 168.687 200.584 169.593L208.799 170.877C211.537 171.317 214.288 171.68 217.053 171.967C219.82 172.217 222.599 172.296 225.376 172.203C228.145 172.09 230.904 171.79 233.634 171.305C236.343 170.835 239.012 170.163 241.621 169.293C244.206 168.46 246.679 167.309 248.98 165.866L249.012 165.848L249.124 165.793C250.181 165.248 251.172 164.584 252.077 163.814C253.023 163.019 253.921 162.169 254.766 161.268C256.451 159.416 257.952 157.405 259.248 155.263C260.571 153.106 261.761 150.871 262.811 148.569L264.299 145.05C264.745 143.856 265.18 142.655 265.65 141.459L265.652 141.455C265.66 141.435 265.675 141.419 265.694 141.409C265.714 141.4 265.736 141.398 265.757 141.404C265.778 141.411 265.795 141.425 265.806 141.443C265.817 141.462 265.82 141.484 265.816 141.506C265.534 142.757 265.217 144.003 264.911 145.256C264.549 146.491 264.15 147.717 263.742 148.943C262.881 151.39 261.822 153.764 260.577 156.04C259.332 158.348 257.831 160.508 256.102 162.479C255.651 162.961 255.203 163.448 254.735 163.915C254.237 164.355 253.773 164.828 253.24 165.233C252.198 166.13 251.036 166.877 249.787 167.451L249.93 167.378C244.979 170.206 239.463 171.901 233.778 172.339C228.201 172.78 222.602 172.895 217.012 172.683C214.217 172.629 211.423 172.487 208.63 172.258C205.842 172.005 203.072 171.582 200.325 171.061C194.82 170.061 189.408 168.604 184.146 166.705C184.124 166.697 184.107 166.68 184.097 166.66C184.088 166.639 184.087 166.615 184.095 166.594C184.102 166.574 184.117 166.558 184.135 166.549C184.153 166.539 184.175 166.536 184.195 166.54ZM188.399 106.714C192.837 106.358 197.274 106.172 201.712 106.045C206.15 105.908 210.587 105.872 215.025 105.854C219.463 105.87 223.9 105.906 228.338 106.043C232.776 106.169 237.213 106.356 241.651 106.714C237.213 107.072 232.776 107.259 228.338 107.385C223.9 107.521 219.463 107.558 215.025 107.573C210.587 107.556 206.15 107.519 201.712 107.382C197.274 107.256 192.837 107.069 188.399 106.714Z" fill="white"/>
<path d="M260.329 109.291L258.098 109.253C256.35 110.763 254.185 111.707 251.889 111.961C250.385 112.09 248.871 111.895 247.449 111.388C246.027 110.882 244.73 110.076 243.646 109.025L190.001 108.175C191.237 109.727 191.977 111.615 192.126 113.592C192.126 113.592 191.238 117.067 184.354 108.593C184.354 108.593 181.614 107.508 181.037 109.162C180.468 110.823 180.976 123.941 172.559 122.226C172.559 122.226 171.147 112.879 175.049 107.94L168.102 107.83V108.871C168.102 109.499 167.978 110.12 167.738 110.7C167.498 111.279 167.146 111.806 166.702 112.25C166.258 112.693 165.731 113.045 165.151 113.285C164.571 113.525 163.95 113.649 163.322 113.649H130.105L130.397 118.736C130.397 118.402 130.412 118.213 130.412 118.213H144.013L133.304 128.978H116.636C115.169 128.977 113.761 128.399 112.717 127.368C111.673 126.337 111.077 124.937 111.058 123.47L110.936 113.649H78.0536C77.4259 113.649 76.8044 113.526 76.2245 113.285C75.6446 113.045 75.1177 112.693 74.6739 112.25C74.23 111.806 73.878 111.279 73.6378 110.7C73.3976 110.12 73.2739 109.499 73.2739 108.871V106.362H60.2584L11.698 135.283C35.0674 135.078 58.4368 134.967 81.8062 134.949C105.183 134.865 128.553 134.949 151.922 134.979C175.292 134.987 198.661 135.146 222.038 135.268L257.088 135.488L292.017 135.814L303.22 129.206L314.559 122.56L337.261 109.291L260.329 109.291ZM234.379 125.602L180.293 125.215L183.489 121.862L189.819 114.518H242.918L234.379 125.602Z" fill="white"/>
<path d="M130.109 113.532C133.459 113.416 136.809 113.336 140.16 113.259C143.51 113.179 146.86 113.088 150.211 113.049L160.262 112.894L162.774 112.856C162.978 112.851 163.207 112.853 163.389 112.842C163.564 112.836 163.738 112.818 163.91 112.788C164.252 112.732 164.586 112.631 164.902 112.488C165.529 112.2 166.07 111.754 166.473 111.194C166.876 110.634 167.125 109.978 167.198 109.292L167.096 89.2933C167.064 82.5954 167.084 75.8976 167.156 69.1997L167.47 49.1062L167.636 39.0595C167.677 38.4848 167.604 37.9077 167.421 37.3614C167.238 36.8152 166.948 36.3108 166.568 35.8773C166.188 35.4439 165.726 35.0902 165.209 34.8365C164.691 34.5829 164.128 34.4344 163.553 34.3998C162.756 34.3665 161.889 34.3756 161.061 34.3694C147.659 34.3027 134.258 34.4282 120.856 34.6235C107.455 34.8422 94.0535 34.9913 80.6521 35.0709L78.1394 35.0853C77.4838 35.0804 76.8381 35.2459 76.2658 35.5657C75.705 35.885 75.238 36.346 74.9116 36.9025C74.5852 37.459 74.4108 38.0916 74.4061 38.7367L74.4616 48.7724L74.4893 68.8659L74.3722 88.9594L74.1736 109.02C74.1931 109.709 74.393 110.381 74.7536 110.968C75.1141 111.556 75.6227 112.039 76.2283 112.368C76.855 112.706 77.5586 112.875 78.2703 112.859L80.783 112.901L90.8342 113.07C97.5349 113.189 104.236 113.343 110.936 113.532C110.966 113.532 110.994 113.545 111.015 113.566C111.035 113.587 111.047 113.616 111.047 113.645C111.047 113.675 111.035 113.704 111.015 113.725C110.994 113.746 110.966 113.758 110.936 113.759C104.235 113.948 97.5348 114.102 90.8342 114.221L80.783 114.39L78.2703 114.432C77.299 114.474 76.3328 114.27 75.4618 113.838C74.5746 113.389 73.8228 112.712 73.2838 111.877C72.7447 111.042 72.4378 110.079 72.3945 109.086L72.1779 88.9594L72.0607 68.8659L72.0885 48.7723L72.1488 38.7147C72.1668 37.6769 72.4577 36.6622 72.9923 35.7724C73.5268 34.8827 74.2862 34.1492 75.1942 33.6456C76.097 33.1537 77.1112 32.9023 78.1394 32.9155L80.6521 32.93C94.0534 32.9964 107.455 33.1456 120.856 33.3774C134.258 33.5727 147.659 33.6981 161.061 33.6314C161.907 33.6366 162.716 33.6091 163.593 33.6264C164.505 33.6627 165.391 33.9414 166.16 34.4337C166.932 34.9283 167.559 35.6175 167.98 36.4317C168.19 36.8391 168.347 37.2718 168.447 37.7192C168.531 38.161 168.573 38.6097 168.572 39.0594L168.737 49.1062L169.051 69.1997C169.119 75.8975 169.139 82.5953 169.112 89.2932L169.071 99.34L169.03 104.363L169.008 106.875L168.997 108.131L168.992 108.759C168.99 108.965 168.972 109.242 168.953 109.479C168.838 110.466 168.464 111.405 167.869 112.2C167.273 112.995 166.478 113.619 165.563 114.007C165.11 114.196 164.633 114.325 164.146 114.388C163.904 114.422 163.66 114.44 163.416 114.441C163.18 114.446 162.99 114.437 162.774 114.435L160.262 114.397L150.211 114.242C146.86 114.203 143.51 114.112 140.16 114.032C136.809 113.955 133.459 113.875 130.109 113.759C130.079 113.758 130.051 113.746 130.031 113.725C130.01 113.703 129.999 113.675 129.999 113.646C129.999 113.616 130.01 113.588 130.031 113.566C130.051 113.545 130.079 113.533 130.109 113.532Z" fill="white"/>
<path d="M128.903 72.247C128.926 74.7187 128.093 77.1224 126.545 79.0504C125.713 80.0333 124.667 80.8133 123.488 81.3307C122.308 81.8482 121.026 82.0896 119.739 82.0364C117.206 81.871 114.835 80.7329 113.123 78.8603C111.398 77.0692 110.359 74.7276 110.19 72.247C110.103 70.9681 110.285 69.6851 110.726 68.4812C111.166 67.2773 111.855 66.1795 112.748 65.2591C113.65 64.3177 114.728 63.5626 115.922 63.0368C117.123 62.5113 118.422 62.2453 119.733 62.2562C121.044 62.267 122.338 62.5545 123.53 63.0997C124.703 63.637 125.739 64.4341 126.558 65.4308C128.11 67.3607 128.939 69.7714 128.903 72.247ZM128.731 72.247C128.721 71.0712 128.44 69.9135 127.908 68.8646C127.382 67.8472 126.649 66.9504 125.758 66.2309C124.058 64.8453 121.932 64.089 119.739 64.0901C117.568 64.0986 115.481 64.9243 113.892 66.4026C112.285 67.9459 111.303 70.0262 111.132 72.247C111.057 73.3892 111.224 74.5344 111.622 75.6074C112.033 76.6893 112.681 77.6659 113.517 78.466C114.355 79.2249 115.339 79.8058 116.408 80.1735C117.478 80.5412 118.611 80.6881 119.739 80.6052C121.947 80.4942 124.061 79.6777 125.77 78.2759C126.663 77.5541 127.395 76.6547 127.921 75.6348C128.452 74.5842 128.729 73.4239 128.731 72.247ZM161.22 106.712C158.592 107.014 155.964 107.167 153.337 107.267C150.71 107.377 148.083 107.398 145.456 107.401C142.829 107.377 140.203 107.333 137.576 107.201C134.95 107.079 132.324 106.902 129.699 106.575C132.327 106.271 134.954 106.117 137.582 106.017C140.209 105.908 142.836 105.887 145.462 105.885C148.089 105.912 150.716 105.955 153.342 106.088C155.968 106.211 158.594 106.386 161.22 106.712ZM110.845 106.492C108.287 106.795 105.729 106.948 103.171 107.049C100.613 107.159 98.0561 107.181 95.499 107.185C92.9419 107.161 90.3848 107.118 87.8281 106.987C85.2713 106.865 82.715 106.689 80.159 106.363C82.7177 106.057 85.2755 105.903 87.833 105.803C90.3907 105.693 92.948 105.671 95.5053 105.669C98.0624 105.695 100.62 105.738 103.176 105.87C105.733 105.992 108.289 106.167 110.845 106.492ZM142.483 222.044C143.454 217.687 144.628 213.388 145.884 209.114C147.132 204.838 148.505 200.6 149.945 196.383C151.42 192.177 152.949 187.988 154.694 183.876C155.558 181.818 156.477 179.78 157.48 177.778C158 176.785 158.516 175.791 159.109 174.835C159.646 173.844 160.361 172.96 161.219 172.228C160.837 172.629 160.516 173.083 160.265 173.576C159.997 174.059 159.753 174.553 159.53 175.06C159.071 176.065 158.652 177.091 158.251 178.123C157.438 180.184 156.696 182.275 155.945 184.362L153.748 190.648L151.57 196.944C150.102 201.137 148.663 205.342 147.156 209.527C145.661 213.717 144.134 217.897 142.483 222.044Z" fill="white"/>
<path d="M156.631 230.069C156.122 226.369 155.783 222.661 155.503 218.951C155.213 215.241 155.023 211.527 154.853 207.812C154.715 204.096 154.598 200.379 154.581 196.658C154.554 192.937 154.588 189.214 154.792 185.484C155.303 189.184 155.644 192.892 155.923 196.603C156.212 200.312 156.402 204.026 156.57 207.741C156.706 211.457 156.823 215.174 156.839 218.896C156.866 222.616 156.833 226.339 156.631 230.069ZM229.034 28.1405C229.369 28.129 229.686 27.9882 229.918 27.7476C230.151 27.507 230.281 27.1855 230.281 26.8509C230.281 26.5163 230.151 26.1948 229.918 25.9542C229.686 25.7136 229.369 25.5727 229.034 25.5613C228.699 25.5727 228.382 25.7136 228.15 25.9542C227.917 26.1948 227.787 26.5163 227.787 26.8509C227.787 27.1855 227.917 27.507 228.15 27.7476C228.382 27.9882 228.699 28.129 229.034 28.1405ZM236.697 28.1405C237.032 28.129 237.349 27.9882 237.582 27.7476C237.814 27.507 237.944 27.1855 237.944 26.8509C237.944 26.5163 237.814 26.1948 237.582 25.9542C237.349 25.7136 237.032 25.5727 236.697 25.5613C236.363 25.5727 236.046 25.7136 235.813 25.9542C235.581 26.1948 235.451 26.5163 235.451 26.8509C235.451 27.1855 235.581 27.507 235.813 27.7476C236.046 27.9882 236.363 28.129 236.697 28.1405ZM238.942 23.9106C238.546 23.9743 238.146 24.0168 237.745 24.038C237.381 24.0682 237.042 24.0687 236.701 24.0763C236.361 24.0809 236.021 24.0692 235.658 24.05C235.253 24.0366 234.85 23.99 234.453 23.9106C234.693 23.5373 235.039 23.2436 235.446 23.0663C235.838 22.884 236.265 22.7888 236.697 22.7871C237.129 22.7855 237.557 22.8775 237.95 23.0567C238.364 23.2279 238.712 23.5272 238.942 23.9106ZM230.04 23.9106C229.705 24.0107 229.362 24.0811 229.015 24.1211C228.725 24.1598 228.433 24.1793 228.141 24.1793C227.852 24.1788 227.562 24.1596 227.275 24.1218C226.926 24.0846 226.582 24.0139 226.247 23.9106C226.433 23.5688 226.725 23.2966 227.079 23.1348C227.409 22.9676 227.775 22.8836 228.146 22.8901C228.514 22.8874 228.878 22.9721 229.207 23.1372C229.562 23.2964 229.855 23.5682 230.04 23.9106ZM235.459 29.6364C235.459 29.8417 235.417 30.0448 235.334 30.233C235.252 30.4211 235.132 30.5903 234.982 30.7299C234.682 31.022 234.307 31.224 233.898 31.3129C233.506 31.3959 233.1 31.393 232.709 31.3043C232.327 31.2172 231.97 31.0437 231.666 30.7971C232.024 30.7195 232.387 30.6653 232.752 30.6348C233.087 30.5745 233.411 30.5591 233.709 30.4747C234.354 30.3484 234.956 30.0599 235.459 29.6364ZM230.546 34.8611C230.627 34.6722 230.745 34.5018 230.894 34.3607C231.044 34.2197 231.22 34.1109 231.414 34.0413C231.804 33.8896 232.228 33.8504 232.639 33.9284C233.033 34.0054 233.405 34.1667 233.73 34.4011C234.048 34.6306 234.308 34.9298 234.492 35.2757C234.132 35.2071 233.777 35.1152 233.429 35.0005C233.097 34.9249 232.792 34.8125 232.485 34.7736C231.842 34.6377 231.175 34.6678 230.546 34.8611Z" fill="white"/>
<path d="M232.519 23.336C232.853 23.3246 233.17 23.1837 233.403 22.9431C233.636 22.7025 233.766 22.381 233.766 22.0464C233.766 21.7119 233.636 21.3904 233.403 21.1498C233.17 20.9092 232.853 20.7683 232.519 20.7568C232.184 20.7683 231.867 20.9092 231.635 21.1498C231.402 21.3904 231.272 21.7119 231.272 22.0464C231.272 22.381 231.402 22.7025 231.635 22.9431C231.867 23.1837 232.184 23.3246 232.519 23.336Z" fill="#4EA62F"/>
<path d="M211.605 171.892V234.346C211.605 234.346 224.609 239.492 232.595 234.346V171.892" fill="white"/>
<path d="M251.822 234.662C251.792 234.982 251.696 235.292 251.541 235.574C251.386 235.855 251.176 236.102 250.922 236.299C250.431 236.713 249.891 237.065 249.314 237.346C248.161 237.911 246.959 238.368 245.723 238.713C243.256 239.419 240.744 239.958 238.204 240.327C233.124 241.093 227.997 241.517 222.859 241.595C217.708 241.711 212.554 241.468 207.437 240.868C204.859 240.556 202.306 240.06 199.799 239.386C198.517 239.038 197.27 238.573 196.074 237.996C195.439 237.691 194.844 237.308 194.303 236.856C193.944 236.613 193.65 236.287 193.447 235.904C193.244 235.522 193.138 235.095 193.138 234.662C193.137 234.229 193.244 233.802 193.447 233.42C193.65 233.037 193.943 232.71 194.302 232.467C194.843 232.015 195.438 231.632 196.073 231.327C197.27 230.751 198.517 230.285 199.798 229.937C202.305 229.26 204.858 228.765 207.436 228.454C212.554 227.851 217.707 227.608 222.859 227.726C227.997 227.804 233.124 228.229 238.205 228.996C240.744 229.366 243.256 229.905 245.724 230.611C246.96 230.956 248.161 231.414 249.314 231.978C249.891 232.26 250.431 232.612 250.922 233.025C251.176 233.223 251.386 233.47 251.541 233.751C251.696 234.032 251.792 234.343 251.822 234.662ZM251.822 234.662C251.789 234.344 251.692 234.035 251.535 233.755C251.379 233.476 251.167 233.231 250.913 233.036C250.42 232.627 249.878 232.281 249.301 232.004C248.146 231.449 246.944 231.002 245.707 230.667C243.235 230.001 240.717 229.514 238.175 229.207C233.093 228.611 227.975 228.371 222.859 228.489C217.757 228.567 212.666 228.989 207.62 229.75C205.116 230.115 202.64 230.646 200.207 231.34C199.016 231.672 197.859 232.112 196.748 232.655C196.229 232.908 195.742 233.223 195.299 233.594C195.105 233.697 194.942 233.85 194.828 234.039C194.714 234.227 194.654 234.443 194.654 234.663C194.654 234.882 194.714 235.098 194.827 235.287C194.941 235.475 195.104 235.629 195.298 235.731C195.741 236.102 196.228 236.418 196.748 236.67C197.858 237.213 199.016 237.654 200.206 237.986C202.639 238.682 205.115 239.214 207.62 239.578C212.665 240.341 217.757 240.763 222.859 240.84C227.975 240.957 233.093 240.716 238.175 240.119C240.718 239.812 243.235 239.324 245.708 238.658C246.944 238.323 248.146 237.875 249.301 237.321C249.878 237.044 250.42 236.697 250.913 236.288C251.167 236.094 251.379 235.849 251.535 235.569C251.692 235.29 251.789 234.981 251.822 234.662ZM259.874 46.6094L249.453 44.4473V49.2193C249.455 55.3782 248.426 61.494 246.409 67.3135L243.998 74.2653L252.074 89.0161C252.074 89.0161 268.921 90.3088 270.446 90.1798C270.446 90.1798 273.505 48.5213 259.874 46.6094ZM250.28 79.8771C250.174 78.6784 250.09 77.4797 250.083 76.2734C250.049 75.0669 250.132 73.8599 250.333 72.6697C250.409 73.8684 250.561 75.0519 250.675 76.243L251.039 79.8012C251.252 82.1834 251.464 84.5656 251.494 86.9782C250.901 84.6472 250.495 82.2726 250.28 79.8771ZM254.037 86.8644C253.742 86.8546 253.462 86.7305 253.256 86.5181C253.05 86.3058 252.936 86.0219 252.936 85.7264C252.936 85.431 253.05 85.1471 253.256 84.9347C253.462 84.7224 253.742 84.5982 254.037 84.5884C254.333 84.5981 254.613 84.7222 254.818 84.9345C255.024 85.1469 255.139 85.4309 255.139 85.7264C255.139 86.022 255.024 86.3059 254.818 86.5183C254.613 86.7307 254.333 86.8547 254.037 86.8644ZM258.766 87.4941C258.471 87.4836 258.191 87.3592 257.986 87.1469C257.781 86.9346 257.667 86.6511 257.667 86.3561C257.667 86.0611 257.781 85.7776 257.986 85.5653C258.191 85.3531 258.471 85.2286 258.766 85.2181C259.061 85.2286 259.34 85.353 259.545 85.5653C259.75 85.7776 259.864 86.0611 259.864 86.3561C259.864 86.6511 259.75 86.9347 259.545 87.1469C259.34 87.3592 259.061 87.4837 258.766 87.4941ZM263.198 87.7369C262.903 87.7271 262.623 87.6029 262.417 87.3906C262.212 87.1782 262.097 86.8944 262.097 86.5989C262.097 86.3034 262.212 86.0195 262.417 85.8072C262.623 85.5948 262.903 85.4707 263.198 85.4609C263.494 85.4706 263.774 85.5948 263.979 85.8072C264.185 86.0195 264.3 86.3034 264.3 86.5989C264.3 86.8944 264.185 87.1783 263.979 87.3906C263.774 87.603 263.494 87.7271 263.198 87.7369ZM267.646 88.1162C267.35 88.1065 267.07 87.9823 266.865 87.7699C266.659 87.5576 266.544 87.2737 266.544 86.9782C266.544 86.6828 266.659 86.3989 266.865 86.1865C267.07 85.9742 267.35 85.85 267.646 85.8402C267.941 85.85 268.221 85.9741 268.427 86.1865C268.632 86.3988 268.747 86.6828 268.747 86.9782C268.747 87.2737 268.632 87.5576 268.427 87.77C268.221 87.9823 267.941 88.1065 267.646 88.1162Z" fill="white"/>
<path d="M242.639 41.8262C243.825 42.1245 244.986 42.5108 246.115 42.9819C247.237 43.439 248.331 43.8994 249.455 44.451C248.209 44.4395 246.977 44.1793 245.833 43.6857C244.677 43.2376 243.599 42.6101 242.639 41.8262ZM221.204 61.7349C222.074 60.1811 223.068 58.6997 224.176 57.3049C225.257 55.8891 226.451 54.5634 227.746 53.3409C226.877 54.8956 225.883 56.3772 224.774 57.7709C223.692 59.1857 222.498 60.5113 221.204 61.7349ZM114.671 206.679C114.967 206.668 115.246 206.544 115.451 206.332C115.657 206.119 115.771 205.836 115.771 205.541C115.771 205.245 115.657 204.962 115.451 204.749C115.246 204.537 114.967 204.413 114.671 204.403C114.376 204.413 114.097 204.537 113.892 204.749C113.686 204.962 113.572 205.245 113.572 205.541C113.572 205.836 113.686 206.119 113.892 206.332C114.097 206.544 114.376 206.668 114.671 206.679ZM118.36 210.639C118.655 210.629 118.935 210.504 119.14 210.292C119.345 210.08 119.46 209.796 119.46 209.501C119.46 209.206 119.345 208.922 119.14 208.71C118.935 208.497 118.655 208.373 118.36 208.363C118.065 208.373 117.785 208.497 117.58 208.71C117.375 208.922 117.26 209.206 117.26 209.501C117.26 209.796 117.375 210.08 117.58 210.292C117.785 210.504 118.065 210.629 118.36 210.639ZM122.595 214.599C122.891 214.589 123.17 214.465 123.375 214.252C123.581 214.04 123.695 213.756 123.695 213.461C123.695 213.166 123.581 212.882 123.375 212.67C123.17 212.458 122.891 212.333 122.595 212.323C122.3 212.333 122.021 212.458 121.815 212.67C121.61 212.882 121.496 213.166 121.496 213.461C121.496 213.756 121.61 214.04 121.815 214.252C122.021 214.465 122.3 214.589 122.595 214.599ZM127.24 218.423C127.536 218.413 127.815 218.288 128.02 218.076C128.226 217.864 128.34 217.58 128.34 217.285C128.34 216.99 128.226 216.706 128.02 216.494C127.815 216.281 127.536 216.157 127.24 216.147C126.945 216.157 126.666 216.281 126.461 216.494C126.255 216.706 126.141 216.99 126.141 217.285C126.141 217.58 126.255 217.864 126.461 218.076C126.666 218.288 126.945 218.413 127.24 218.423ZM132.569 221.837C132.864 221.827 133.143 221.702 133.349 221.49C133.554 221.278 133.668 220.994 133.668 220.699C133.668 220.404 133.554 220.12 133.349 219.908C133.143 219.695 132.864 219.571 132.569 219.561C132.273 219.571 131.994 219.695 131.789 219.908C131.583 220.12 131.469 220.404 131.469 220.699C131.469 220.994 131.583 221.278 131.789 221.49C131.994 221.702 132.273 221.827 132.569 221.837ZM138.443 222.793C138.738 222.783 139.018 222.658 139.223 222.446C139.428 222.234 139.543 221.95 139.543 221.655C139.543 221.36 139.428 221.076 139.223 220.864C139.018 220.651 138.738 220.527 138.443 220.517C138.148 220.527 137.868 220.651 137.663 220.864C137.458 221.076 137.343 221.36 137.343 221.655C137.343 221.95 137.458 222.234 137.663 222.446C137.868 222.658 138.148 222.783 138.443 222.793ZM144.454 220.198C144.75 220.188 145.029 220.064 145.234 219.851C145.44 219.639 145.554 219.355 145.554 219.06C145.554 218.765 145.44 218.481 145.234 218.269C145.029 218.057 144.75 217.932 144.454 217.922C144.159 217.932 143.88 218.057 143.674 218.269C143.469 218.481 143.355 218.765 143.355 219.06C143.355 219.355 143.469 219.639 143.674 219.851C143.88 220.064 144.159 220.188 144.454 220.198ZM149.646 221.427C149.941 221.417 150.221 221.293 150.426 221.08C150.631 220.868 150.746 220.584 150.746 220.289C150.746 219.994 150.631 219.71 150.426 219.498C150.221 219.286 149.941 219.161 149.646 219.151C149.351 219.161 149.071 219.286 148.866 219.498C148.661 219.71 148.546 219.994 148.546 220.289C148.546 220.584 148.661 220.868 148.866 221.08C149.071 221.293 149.351 221.417 149.646 221.427ZM154.291 224.022C154.586 224.012 154.866 223.887 155.071 223.675C155.276 223.463 155.391 223.179 155.391 222.884C155.391 222.589 155.276 222.305 155.071 222.093C154.866 221.88 154.586 221.756 154.291 221.746C153.996 221.756 153.716 221.88 153.511 222.093C153.306 222.305 153.191 222.589 153.191 222.884C153.191 223.179 153.306 223.463 153.511 223.675C153.716 223.887 153.996 224.012 154.291 224.022ZM158.663 228.801C158.958 228.791 159.238 228.667 159.443 228.454C159.648 228.242 159.763 227.959 159.763 227.663C159.763 227.368 159.648 227.085 159.443 226.872C159.238 226.66 158.958 226.536 158.663 226.525C158.368 226.536 158.088 226.66 157.883 226.872C157.678 227.085 157.563 227.368 157.563 227.663C157.563 227.959 157.678 228.242 157.883 228.454C158.088 228.667 158.368 228.791 158.663 228.801ZM164.264 227.982C164.559 227.972 164.839 227.847 165.044 227.635C165.249 227.423 165.364 227.139 165.364 226.844C165.364 226.549 165.249 226.265 165.044 226.053C164.839 225.841 164.559 225.716 164.264 225.706C163.969 225.716 163.689 225.841 163.484 226.053C163.279 226.265 163.164 226.549 163.164 226.844C163.164 227.139 163.279 227.423 163.484 227.635C163.689 227.847 163.969 227.972 164.264 227.982ZM169.866 226.48C170.161 226.47 170.44 226.345 170.646 226.133C170.851 225.921 170.965 225.637 170.965 225.342C170.965 225.047 170.851 224.763 170.646 224.551C170.44 224.338 170.161 224.214 169.866 224.204C169.57 224.214 169.291 224.338 169.086 224.551C168.88 224.763 168.766 225.047 168.766 225.342C168.766 225.637 168.88 225.921 169.086 226.133C169.291 226.345 169.57 226.47 169.866 226.48ZM174.374 224.431C174.669 224.421 174.949 224.297 175.154 224.085C175.359 223.872 175.474 223.589 175.474 223.293C175.474 222.998 175.359 222.715 175.154 222.502C174.949 222.29 174.669 222.166 174.374 222.155C174.079 222.166 173.799 222.29 173.594 222.502C173.389 222.715 173.274 222.998 173.274 223.293C173.274 223.589 173.389 223.872 173.594 224.085C173.799 224.297 174.079 224.421 174.374 224.431ZM179.292 221.017C179.587 221.007 179.867 220.883 180.072 220.671C180.277 220.458 180.392 220.175 180.392 219.879C180.392 219.584 180.277 219.301 180.072 219.088C179.867 218.876 179.587 218.752 179.292 218.741C178.997 218.752 178.717 218.876 178.512 219.088C178.307 219.301 178.193 219.584 178.193 219.879C178.193 220.175 178.307 220.458 178.512 220.671C178.717 220.883 178.997 221.007 179.292 221.017ZM183.527 216.921C183.823 216.91 184.102 216.786 184.307 216.574C184.513 216.361 184.627 216.078 184.627 215.783C184.627 215.487 184.513 215.204 184.307 214.991C184.102 214.779 183.823 214.655 183.527 214.645C183.232 214.655 182.953 214.779 182.747 214.991C182.542 215.204 182.428 215.487 182.428 215.783C182.428 216.078 182.542 216.361 182.747 216.574C182.953 216.786 183.232 216.91 183.527 216.921ZM186.943 212.824C187.238 212.814 187.518 212.689 187.723 212.477C187.928 212.265 188.043 211.981 188.043 211.686C188.043 211.391 187.928 211.107 187.723 210.895C187.518 210.682 187.238 210.558 186.943 210.548C186.648 210.558 186.368 210.682 186.163 210.895C185.958 211.107 185.843 211.391 185.843 211.686C185.843 211.981 185.958 212.265 186.163 212.477C186.368 212.689 186.648 212.814 186.943 212.824Z" fill="white"/>
<path d="M267.987 90.0412C267.547 92.1428 267.002 94.2209 266.353 96.2679C265.717 98.332 264.921 100.343 263.971 102.283C263.025 104.254 261.842 106.102 260.447 107.785C259.026 109.527 257.217 110.912 255.166 111.831C253.049 112.752 250.692 112.971 248.441 112.455C246.202 111.922 244.171 110.737 242.605 109.051L242.018 108.427L241.514 107.781C241.182 107.348 240.834 106.926 240.53 106.475L239.594 105.139L238.719 103.766C237.584 101.924 236.554 100.019 235.633 98.0607C233.788 94.1661 232.252 90.1324 231.039 85.997C229.816 81.879 228.856 77.6871 228.166 73.447C227.489 69.2056 227.094 64.9239 226.984 60.6301C226.916 58.474 226.98 56.3158 227.178 54.1677C227.3 53.0917 227.426 52.0133 227.654 50.943C227.854 49.8332 228.188 48.7517 228.649 47.7223L228.602 47.8247C228.865 47.0887 229.189 46.3763 229.572 45.6951C229.949 45.0141 230.386 44.3674 230.876 43.7625C231.373 43.1471 231.935 42.5872 232.553 42.0928C233.185 41.5923 233.88 41.175 234.618 40.8511L234.435 40.9602C235.055 40.4125 235.63 39.8149 236.152 39.1731C236.665 38.5534 237.096 37.8704 237.435 37.1408C237.587 36.8048 237.696 36.4504 237.757 36.0865C237.791 35.6279 237.849 35.1714 237.931 34.719L238.067 34.2993C238.134 34.1438 238.216 33.9946 238.31 33.8532C238.433 33.6729 238.593 33.5198 238.778 33.4036C238.963 33.2874 239.17 33.2105 239.387 33.1777C239.795 33.1288 240.208 33.2259 240.551 33.4519C240.714 33.5542 240.86 33.6809 240.984 33.8275C241.184 34.0511 241.3 34.3374 241.311 34.6371L239.684 34.5916C239.706 34.2674 239.769 33.9474 239.873 33.6393C239.984 33.2853 240.171 32.96 240.422 32.686C240.74 32.3532 241.172 32.1537 241.632 32.1278C242.012 32.1131 242.391 32.1846 242.74 32.3369L241.587 32.952C241.633 32.7136 241.7 32.4796 241.787 32.2527C241.886 31.978 242.033 31.7231 242.222 31.5C242.371 31.3264 242.56 31.1918 242.773 31.108C243.032 31.0067 243.317 30.994 243.583 31.0718C243.921 31.1797 244.222 31.3805 244.451 31.6512L243.338 31.5096C243.62 31.3225 243.933 31.1873 244.262 31.1105C244.481 31.0617 244.707 31.0552 244.928 31.0914C245.213 31.1384 245.477 31.2713 245.684 31.4724C245.978 31.7859 246.156 32.1914 246.187 32.6205C246.201 32.7744 246.208 32.929 246.206 33.0837L246.191 33.4434C246.143 34.3873 246.045 35.328 245.896 36.2613C245.669 38.2296 244.979 40.1162 243.882 41.7663C243.533 42.2267 243.259 42.497 242.949 42.8584L242.043 43.8826L240.231 45.9308L236.585 50.0074L236.794 49.2595C238.014 56.5773 240.088 63.727 242.972 70.5626C244.419 73.9752 246.083 77.3177 247.801 80.6291L250.4 85.5906L253.076 90.5664C253.085 90.5826 253.087 90.6015 253.082 90.6192C253.077 90.637 253.066 90.6522 253.05 90.6617C253.034 90.6712 253.015 90.6743 252.997 90.6703C252.979 90.6664 252.964 90.6557 252.953 90.6404L252.904 90.5664C251.911 89.0838 250.907 87.4313 249.941 85.8525C248.972 84.2528 247.999 82.6534 247.071 81.0276C245.212 77.779 243.394 74.4998 241.787 71.0899C240.212 67.6657 238.859 64.1436 237.738 60.5453C237.176 58.7465 236.666 56.9324 236.208 55.1028C235.768 53.2699 235.375 51.4267 235.031 49.5731C235.006 49.4431 235.011 49.3091 235.046 49.1813C235.081 49.0535 235.144 48.9353 235.231 48.8354L235.24 48.8249L238.856 44.7069L240.675 42.6578L241.584 41.6332C241.87 41.3034 242.236 40.9208 242.432 40.6477C243.337 39.2312 243.919 37.633 244.137 35.9665C244.288 35.0997 244.392 34.2254 244.449 33.3474L244.467 33.0238C244.474 32.9349 244.46 32.8784 244.462 32.8037C244.454 32.6836 244.398 32.6016 244.476 32.7035C244.519 32.7438 244.573 32.7718 244.63 32.7847C244.672 32.7847 244.648 32.785 244.617 32.7876C244.502 32.8174 244.391 32.8636 244.289 32.9247L244.263 32.9414C244.092 33.0488 243.889 33.0919 243.69 33.0629C243.491 33.0339 243.309 32.9346 243.176 32.7831C243.115 32.7137 243.013 32.6508 243.128 32.7057C243.213 32.7218 243.3 32.7154 243.382 32.6871C243.417 32.6735 243.45 32.6534 243.478 32.628C243.425 32.6995 243.383 32.7784 243.353 32.8621C243.302 32.9906 243.262 33.1228 243.232 33.2576C243.205 33.3765 243.154 33.4884 243.081 33.586C243.008 33.6836 242.916 33.7646 242.809 33.8236C242.702 33.8827 242.585 33.9184 242.463 33.9285C242.342 33.9385 242.22 33.9227 242.105 33.882L242.079 33.8727C241.97 33.8218 241.852 33.7923 241.731 33.7856C241.666 33.7914 241.669 33.7821 241.611 33.8303C241.526 33.9298 241.462 34.0456 241.424 34.1706C241.367 34.3365 241.329 34.5084 241.31 34.6829L239.682 34.6375C239.69 34.8757 239.758 34.87 239.735 34.8656C239.718 34.8455 239.698 34.8281 239.676 34.8139C239.617 34.7729 239.569 34.7742 239.6 34.773C239.634 34.7747 239.66 34.7258 239.611 34.7848C239.592 34.8117 239.568 34.8666 239.541 34.9108L239.472 35.1129C239.389 35.4432 239.394 35.7541 239.309 36.3393C239.22 36.8359 239.067 37.3187 238.853 37.7757C238.442 38.6248 237.919 39.4153 237.299 40.1262C236.702 40.825 236.046 41.4724 235.34 42.0615C235.292 42.1015 235.239 42.1346 235.182 42.1599L235.157 42.1707C234.529 42.4295 233.936 42.7668 233.392 43.1747C232.84 43.5952 232.334 44.0744 231.885 44.6038C231.429 45.1432 231.015 45.7166 230.647 46.319C230.279 46.9191 229.962 47.5484 229.697 48.2005C229.684 48.2348 229.667 48.2712 229.651 48.3032C229.215 49.2184 228.884 50.18 228.664 51.1698C228.419 52.1937 228.227 53.2295 228.088 54.2732C227.824 56.38 227.69 58.5011 227.687 60.6244C227.697 64.8901 228.029 69.149 228.681 73.3646C229.375 77.5738 230.422 81.7169 231.813 85.7499C233.178 89.7788 234.854 93.6958 236.825 97.4659C237.803 99.3477 238.86 101.18 239.997 102.962L240.862 104.286L241.773 105.574C242.069 106.01 242.405 106.412 242.726 106.826L243.211 107.445L243.726 107.987C245.074 109.476 246.834 110.53 248.783 111.016C250.735 111.483 252.785 111.328 254.644 110.571C256.527 109.759 258.207 108.541 259.566 107.006C260.965 105.442 262.167 103.712 263.146 101.855C264.142 99.9816 265.022 98.0486 265.781 96.0672C266.545 94.0794 267.2 92.0464 267.821 89.9991C267.824 89.9883 267.829 89.9782 267.836 89.9694C267.843 89.9606 267.852 89.9533 267.862 89.9479C267.872 89.9425 267.883 89.9391 267.894 89.9379C267.905 89.9367 267.917 89.9378 267.928 89.941C267.948 89.9473 267.966 89.961 267.977 89.9796C267.988 89.9981 267.992 90.02 267.987 90.0412ZM117.737 213.016C116.76 216.964 114.946 220.655 112.416 223.839C111.113 225.455 109.53 226.822 107.741 227.874C106.834 228.424 105.985 228.813 105.117 229.33L102.538 230.825C99.116 232.858 95.6678 234.882 92.2567 236.967C88.8302 239.028 85.4836 241.222 82.2112 243.516L82.3107 243.364C82.145 244.485 82.302 245.63 82.7632 246.666C83.2398 247.671 84.0538 248.477 85.0637 248.945C85.3102 249.072 85.5671 249.179 85.8315 249.263L86.6426 249.48C87.199 249.579 87.7603 249.646 88.3241 249.683C88.8971 249.669 89.4651 249.698 90.0366 249.651L91.751 249.469L91.5632 249.526C94.968 247.732 98.4014 245.998 101.864 244.326C105.327 242.645 108.797 240.987 112.402 239.556C113.3 239.195 114.221 238.865 115.155 238.55L115.885 238.341C116.141 238.257 116.404 238.197 116.671 238.162L117.111 238.103L117.329 238.078L117.485 238.071C117.698 238.073 117.911 238.06 118.122 238.032C119.931 237.77 121.667 237.14 123.222 236.18C124.815 235.228 126.235 234.011 127.419 232.581C128.592 231.116 129.494 229.453 130.084 227.671L130.093 227.644L130.101 227.626C130.448 226.962 130.783 226.283 131.096 225.599C131.426 224.926 131.694 224.225 131.897 223.505L131.899 223.498C131.903 223.479 131.915 223.463 131.931 223.452C131.947 223.441 131.967 223.437 131.986 223.441C132.005 223.444 132.022 223.455 132.033 223.47C132.045 223.486 132.05 223.505 132.048 223.525C131.927 224.283 131.726 225.026 131.449 225.741C131.193 226.46 130.918 227.167 130.624 227.874L130.641 227.83C129.688 231.722 127.27 235.097 123.89 237.252C123.053 237.801 122.167 238.271 121.243 238.655C120.306 239.059 119.322 239.346 118.315 239.508C118.051 239.552 117.785 239.579 117.518 239.588L117.314 239.598L117.176 239.626L116.904 239.674C116.695 239.705 116.49 239.757 116.292 239.829L115.641 240.028C114.761 240.343 113.879 240.676 113.002 241.047C111.245 241.772 109.487 242.529 107.743 243.317C105.995 244.096 104.244 244.874 102.504 245.679L92.0819 250.558L92.0365 250.579C91.9916 250.6 91.9431 250.612 91.8937 250.615L90.0789 250.713C89.4731 250.727 88.8594 250.663 88.2532 250.64C87.6431 250.566 87.0377 250.457 86.44 250.313L85.5554 250.023C85.263 249.913 84.9801 249.779 84.7098 249.622C83.5902 249.031 82.7118 248.068 82.226 246.9C81.7617 245.75 81.627 244.493 81.837 243.27C81.8416 243.24 81.8523 243.212 81.8684 243.187C81.8846 243.161 81.9058 243.139 81.9308 243.122L81.9365 243.118C85.2586 240.885 88.5529 238.612 91.8196 236.299C95.1083 234.015 98.3899 231.71 101.846 229.659C103.538 228.607 105.392 227.679 107.109 226.744C108.797 225.802 110.312 224.578 111.588 223.127C112.895 221.657 114.044 220.053 115.017 218.344C116.021 216.628 116.882 214.832 117.591 212.974L117.593 212.97C117.6 212.952 117.613 212.937 117.631 212.929C117.648 212.92 117.668 212.919 117.687 212.925C117.705 212.931 117.721 212.943 117.73 212.96C117.739 212.977 117.742 212.997 117.737 213.016Z" fill="white"/>
<path d="M82.0737 243.317C82.0737 243.317 76.2719 252.373 88.5174 256.212C88.5174 256.212 95.7262 258.122 107.326 246.501C107.326 246.501 112.624 241.444 114.048 241.63L112.318 246.324L118.544 248.469L126.1 244.984L129.866 229.217C128.732 231.732 126.993 233.927 124.803 235.606C122.613 237.285 120.041 238.396 117.317 238.839C107.71 240.598 100.217 246.446 91.8225 250.042C91.8225 250.042 80.9835 251.944 82.0737 243.317Z" fill="white"/>
<path d="M89.787 238.115C89.787 238.115 97.0938 238.648 98.3197 246.849L105.29 243.549C105.29 243.549 104.005 233.494 95.096 234.649C95.096 234.649 92.1211 234.14 89.787 238.115ZM165.351 222.5C166.439 226.418 166.674 230.523 166.041 234.539C165.699 236.585 164.992 238.552 163.953 240.348C163.408 241.256 162.884 242.028 162.38 242.903L160.874 245.475C158.893 248.927 156.885 252.384 154.94 255.876C152.975 259.357 151.123 262.904 149.425 266.522L149.438 266.331C149.842 267.389 150.535 268.312 151.438 268.996C152.345 269.646 153.454 269.951 154.567 269.858C155.689 269.755 156.779 269.424 157.77 268.886C158.783 268.348 159.747 267.721 160.648 267.012L160.512 267.154C163.294 262.828 166.185 258.583 169.149 254.375C170.642 252.278 172.164 250.202 173.791 248.184C174.608 247.149 175.485 246.163 176.419 245.232C176.695 244.962 177 244.724 177.328 244.521C177.575 244.386 177.812 244.233 178.038 244.065C178.512 243.7 178.952 243.294 179.354 242.852C181 240.999 182.194 238.792 182.844 236.401C183.526 233.977 183.671 231.435 183.27 228.95C182.476 223.864 181.848 218.775 181.224 213.678C181.222 213.658 181.227 213.638 181.239 213.622C181.251 213.607 181.269 213.596 181.289 213.593C181.309 213.591 181.329 213.596 181.345 213.608C181.361 213.62 181.371 213.638 181.374 213.657C182.171 218.726 182.912 223.812 183.834 228.848C184.438 231.416 184.459 234.087 183.897 236.665C183.316 239.281 182.121 241.72 180.41 243.782C179.968 244.308 179.48 244.793 178.952 245.232C178.672 245.459 178.376 245.665 178.066 245.849C177.856 245.995 177.659 246.16 177.479 246.343C176.614 247.243 175.801 248.192 175.045 249.186C173.473 251.183 171.954 253.245 170.433 255.302C167.39 259.42 164.439 263.618 161.473 267.799L161.457 267.822C161.424 267.868 161.383 267.909 161.337 267.941C160.347 268.648 159.29 269.257 158.181 269.757C157.055 270.281 155.836 270.576 154.594 270.625C153.324 270.665 152.08 270.254 151.084 269.466C150.114 268.688 149.377 267.659 148.954 266.49C148.943 266.459 148.939 266.426 148.941 266.393C148.943 266.361 148.952 266.328 148.967 266.299C150.785 262.733 152.525 259.133 154.233 255.51C155.973 251.905 157.697 248.285 159.698 244.8C160.657 243.054 161.809 241.331 162.878 239.695C163.874 238.036 164.583 236.221 164.976 234.327C165.403 232.406 165.614 230.444 165.606 228.476C165.636 226.488 165.502 224.501 165.203 222.535L165.202 222.531C165.2 222.512 165.204 222.492 165.215 222.476C165.226 222.46 165.243 222.449 165.262 222.445C165.281 222.441 165.301 222.445 165.317 222.455C165.334 222.465 165.346 222.481 165.351 222.5Z" fill="white"/>
<path d="M149.196 266.41C149.196 266.41 148.597 277.147 161.149 274.473C161.149 274.473 168.366 272.594 172.752 256.774C172.752 256.774 174.879 249.768 176.211 249.23L177.012 254.168L183.489 252.976L188.355 246.229L183.881 230.647C184.13 233.395 183.695 236.161 182.613 238.699C181.532 241.238 179.839 243.468 177.684 245.193C170.184 251.445 166.534 260.22 160.993 267.476C160.993 267.476 152.489 274.459 149.196 266.41Z" fill="white"/>
<path d="M153.354 258.09C153.354 258.09 159.979 254.963 165.08 261.503L169.527 255.204C169.527 255.204 163.463 247.079 156.273 252.463C156.273 252.463 153.432 253.481 153.354 258.09ZM132.48 127.748C132.501 127.77 132.519 127.794 132.536 127.819L132.54 127.824L132.547 127.832L133.45 128.856C133.473 128.883 133.488 128.915 133.494 128.95C133.499 128.984 133.495 129.02 133.482 129.052C133.468 129.085 133.446 129.112 133.417 129.133C133.389 129.153 133.355 129.165 133.32 129.167L133.304 129.168C129.023 129.421 124.743 129.576 120.462 129.657L117.252 129.712C116.673 129.738 116.093 129.709 115.52 129.623C114.618 129.47 113.759 129.121 113.007 128.599C112.254 128.077 111.626 127.396 111.166 126.605C110.564 125.558 110.275 124.361 110.334 123.155C110.396 118.875 110.557 114.594 110.597 110.315C110.616 106.036 110.526 101.758 110.325 97.4812C110.28 96.9219 110.29 96.3596 110.355 95.8022C110.429 95.2247 110.587 94.6611 110.825 94.1297C111.301 93.044 112.08 92.1189 113.069 91.4654C114.073 90.8025 115.245 90.4408 116.447 90.4231L119.658 90.363L122.868 90.3218C124.715 90.3002 126.499 90.9961 127.843 92.2629C129.187 93.5297 129.987 95.2685 130.074 97.113C130.575 105.656 130.886 114.209 131.008 122.773L131.008 122.802L131.008 122.821C130.983 123.236 131.006 123.652 131.076 124.062C131.146 124.49 131.247 124.913 131.378 125.327C131.656 126.165 132.023 126.971 132.472 127.731C132.478 127.741 132.482 127.751 132.483 127.763C132.485 127.774 132.485 127.785 132.482 127.796C132.479 127.807 132.475 127.818 132.468 127.827C132.461 127.836 132.453 127.844 132.443 127.849C132.425 127.86 132.403 127.864 132.382 127.86C132.361 127.856 132.343 127.845 132.33 127.828C132.053 127.469 131.796 127.096 131.558 126.711C131.323 126.32 131.113 125.914 130.929 125.495C130.746 125.072 130.593 124.635 130.473 124.189C130.344 123.726 130.271 123.249 130.257 122.769L130.256 122.817C129.391 114.295 128.72 105.762 128.243 97.2179C128.201 96.2948 127.936 95.3957 127.469 94.5979C126.996 93.8025 126.326 93.1422 125.523 92.68C124.715 92.2145 123.801 91.9632 122.868 91.9498L119.658 91.9086L116.447 91.8485C115.487 91.8148 114.537 92.0526 113.707 92.5347C112.876 93.0169 112.199 93.7236 111.753 94.5737C111.521 95.005 111.357 95.4692 111.265 95.9501C111.178 96.4522 111.14 96.9617 111.153 97.4712C111.053 101.751 111.066 106.03 111.192 110.308C111.338 114.585 111.605 118.86 111.774 123.137C111.762 124.083 112.009 125.013 112.487 125.829C112.965 126.625 113.655 127.272 114.479 127.699C114.889 127.913 115.329 128.065 115.784 128.149C116.269 128.228 116.761 128.26 117.252 128.244L120.462 128.299C124.743 128.381 129.023 128.535 133.304 128.788L133.158 129.1L132.39 127.939L132.402 127.953C132.372 127.906 132.345 127.858 132.321 127.811C132.312 127.794 132.309 127.773 132.314 127.754C132.319 127.735 132.331 127.718 132.347 127.706C132.363 127.695 132.383 127.69 132.403 127.692C132.423 127.695 132.441 127.704 132.455 127.719L132.48 127.748Z" fill="white"/>
<path d="M153.325 148.404C153.671 148.956 153.936 149.554 154.112 150.181C154.286 150.776 154.406 151.386 154.471 152.003C154.539 152.619 154.551 153.241 154.506 153.859C154.467 154.509 154.333 155.15 154.109 155.762C153.761 155.211 153.495 154.613 153.319 153.986C153.146 153.39 153.026 152.78 152.962 152.163C152.896 151.547 152.885 150.925 152.93 150.307C152.97 149.657 153.103 149.016 153.325 148.404Z" fill="white"/>
</svg>
