<svg viewBox="14.428342865323437 -2.45 101.74494941675505 81.2675619" role="img" xmlns="http://www.w3.org/2000/svg" style="max-height: 500px" width="101.74494941675505" height="81.2675619"><path d="M34.132 11.558c-1.044.422-1.26 1.258-.682 2.643.707 1.692 3.269 2.147 3.831.681.221-.577-.663-.72-1.008-.162-.292.472-1.477.446-1.777-.039-.319-.517.492-1 1.689-1.007 1.238-.007 1.256-.776.04-1.732-1.022-.804-1.043-.808-2.094-.383m.097.591c-.513.513-.186 1.168.585 1.168 1.055 0 1.379-.34.889-.932-.42-.506-1.095-.614-1.473-.237m-4.958.456c-.115.186-.657.25-1.205.14-.547-.11-1.098-.033-1.225.171-.126.204-.461.281-.743.173-.651-.25-.645-.071.075 2.212.324 1.029.788 1.871 1.03 1.871.338 0 .313-.373-.107-1.605-.411-1.208-.447-1.704-.144-2.007.629-.629 1.536.141 2.125 1.805.61 1.726 1.262 1.958.894.318-.141-.627-.337-1.494-.435-1.928-.139-.614-.025-.789.52-.789.844 0 1.348.556 1.671 1.845.236.939.755 1.536 1.066 1.226.242-.242-.594-2.481-1.18-3.158-.571-.66-2-.828-2.342-.274m-10.964.928a14.369 14.369 0 0 0 .441 1.274c.187.454.083.615-.398.618-.358.002-.997.097-1.42.211-.635.17-.862-.017-1.307-1.082-.296-.708-.69-1.194-.876-1.078-.451.279 1.416 5.449 1.967 5.449.32 0 .33-.264.042-1.089-.437-1.254-.039-1.7 1.528-1.71.766-.004 1.012.224 1.352 1.254.244.739.545 1.13.729.946.41-.41-1.165-5.092-1.781-5.298-.315-.105-.405.059-.277.505m3.715.271c-1.091.541-1.217 1.937-.284 3.125 1.284 1.633 3.496 1.127 3.496-.799 0-1.904-1.651-3.099-3.212-2.325m.03.773c-.68.819.272 2.42 1.438 2.42 1.071 0 1.31-.942.538-2.12-.651-.993-1.317-1.094-1.976-.3M59.324 31.53c-2.765 1.255-3.745 4.691-2.201 7.717 2.065 4.047 8.631 5.401 11.198 2.309.407-.491.633-.451 2.167.384 2.285 1.243 2.599.794.394-.563l-1.742-1.072.364-1.364c.74-2.773-1.652-6.432-4.935-7.551-2.106-.717-3.434-.682-5.244.14m1.08.38c-.607.184-1.61.912-2.229 1.617-1.031 1.174-1.113 1.44-.97 3.157.274 3.301 3.102 5.804 6.558 5.804 4.105 0 6.251-3.616 4.339-7.314-1.279-2.473-5.044-4.07-7.698-3.264m72.705 23.702l-.107 1.64-1.007-1.459c-.554-.802-1.145-1.373-1.314-1.268s-.312.851-.318 1.658c-.012 1.584-.063 1.563-1.543-.634-.26-.386-.588-.589-.729-.453-.298.288 1.905 3.481 2.55 3.696.305.102.434-.354.434-1.531v-1.675l1.082 1.471c.595.809 1.226 1.471 1.402 1.471.176 0 .32-1.025.32-2.278 0-2.606-.608-3.111-.769-.638m-12.2-.596c0 .189.256.984.57 1.767s.502 1.491.42 1.574c-.082.082-.956-.555-1.941-1.417-1.679-1.469-2.551-1.914-2.555-1.303-.004.66 1.882 5.345 2.152 5.345.424 0 .382-.389-.226-2.113-.291-.825-.477-1.553-.412-1.617s.946.591 1.96 1.457c2.803 2.392 2.985 2.116 1.4-2.121-.633-1.691-1.366-2.534-1.366-1.57m3.417.736c-.748.435-.784 1.429-.102 2.749.955 1.847 3.694 1.649 3.694-.267 0-2.076-1.962-3.431-3.592-2.481m-11.83.992c0 .37-.096.922-.213 1.227-.136.354-.022.554.313.554.289 0 .633.434.766.964.31 1.242 1.172 2.19 1.992 2.19.878 0 .816-.458-.119-.881-.421-.19-.911-.79-1.088-1.332-.259-.794-.196-1.082.328-1.479.618-.468.609-.493-.172-.503-.521-.007-.888-.268-1.004-.712-.234-.894-.803-.914-.803-.029m12.078-.301c-.307.497.476 2.333 1.097 2.571.737.283 1.545-.135 1.545-.799 0-1.476-1.997-2.815-2.641-1.772m-24.447 1.95c-.11.11-.109.437.002.727.111.289-.018.668-.287.842-.39.251-.343.355.23.513.451.124.909.747 1.227 1.665.41 1.186.691 1.488 1.471 1.577.53.061.964-.057.964-.263 0-.205-.303-.374-.674-.374-.462 0-.804-.394-1.086-1.25-.362-1.097-.333-1.31.236-1.741.607-.459.586-.492-.315-.502-.6-.007-.964-.202-.964-.516 0-.566-.496-.984-.803-.678m8.601.013c-.62.25-.544 2.265.121 3.214.436.622.833.775 1.805.691.699-.06 1.409-.368 1.619-.703.509-.812-.071-1.309-.633-.542-.997 1.363-3.148-.034-2.531-1.643.235-.612 1.472-.743 1.813-.192.121.196.375.261.564.144.216-.134.191-.395-.067-.707-.4-.482-1.807-.619-2.69-.263m-4.651 1.003c-.538.648-.151 1.166.434.581.553-.553 1.676-.53 1.676.034 0 .247-.473.627-1.051.846-1.108.418-1.391 1.379-.631 2.14.503.503 1.907.557 2.198.086.114-.184.439-.246.722-.138.619.238.642-.095.114-1.665-.759-2.262-2.405-3.157-3.462-1.884m-7.519 1.203c-.114.184-.439.246-.722.138-.67-.257-.649.281.094 2.372.334.941.8 1.712 1.036 1.712.322 0 .3-.364-.092-1.474-.598-1.695-.455-2.381.497-2.381.831 0 1.246.508 1.788 2.19.374 1.161 1.07 1.822 1.07 1.016 0-.658-.832-2.718-1.331-3.294-.569-.658-2-.829-2.34-.278m-11.071.663c-.762.617-.778.727-.34 2.291.579 2.067 1.848 3.158 3.335 2.866 1.082-.212 1.933-1.024 1.933-1.842 0-.751-.858-.521-1.231.33-.863 1.967-3.069.602-3.12-1.931-.026-1.3.072-1.5.787-1.602.45-.064 1.121.159 1.492.494.371.336.791.492.935.348.388-.389-1.272-1.603-2.193-1.603-.439 0-1.159.292-1.599.648m20.086.078c-.434.166-.789.47-.789.675 0 .666 1.09.812 1.677.226.741-.741.179-1.311-.888-.901m-14.387.398c-.532.532-.535 1.398-.01 2.55.629 1.38 2.8 1.687 3.546.5.429-.681.095-2.173-.653-2.921-.651-.651-2.288-.725-2.883-.13m.631.455c-.348.419-.347.742.007 1.596.356.86.622 1.049 1.357.964.778-.09.902-.261.836-1.155-.043-.577-.349-1.247-.681-1.489-.775-.567-.989-.555-1.52.085" fill-rule="evenodd" fill="#dbdbdb"/><path d="M23.657 3.329C2.592 7.065 3.768 6.792 2.488 8.25c-1.792 2.041-1.747 2.881.511 9.503 2.727 8 3.131 8.76 5.236 9.851 2.439 1.264 2.79 1.232 20.503-1.857 9.349-1.63 17.629-3.137 18.4-3.348 1.822-.499 3.249-1.873 3.706-3.57.348-1.29-.055-3.082-1.692-7.526-.103-.28.169-.438.752-.438.503 0 .914-.158.914-.35s-.452-.35-1.004-.35c-.936 0-1.071-.186-1.976-2.716-.534-1.494-1.279-3.23-1.655-3.858-.79-1.321-3.056-2.727-4.827-2.995-.754-.114-7.577.941-17.699 2.736m10.475 8.229c-1.044.422-1.26 1.258-.682 2.643.707 1.692 3.269 2.147 3.831.681.221-.577-.663-.72-1.008-.162-.292.472-1.477.446-1.777-.039-.319-.517.492-1 1.689-1.007 1.238-.007 1.256-.776.04-1.732-1.022-.804-1.043-.808-2.094-.383m.097.591c-.513.51-.186 1.165.585 1.165 1.055 0 1.379-.34.889-.932-.42-.506-1.095-.614-1.473-.237m-4.958.456c-.115.186-.657.25-1.205.14-.547-.11-1.098-.033-1.225.171-.126.204-.461.281-.743.173-.651-.25-.645-.071.075 2.212.324 1.029.788 1.871 1.03 1.871.338 0 .313-.373-.107-1.605-.411-1.208-.447-1.704-.144-2.007.629-.629 1.536.141 2.125 1.805.61 1.726 1.262 1.958.894.318-.141-.627-.337-1.494-.435-1.928-.139-.614-.025-.789.52-.789.844 0 1.348.556 1.671 1.845.236.939.755 1.536 1.066 1.226.242-.242-.594-2.481-1.18-3.158-.571-.66-2-.828-2.342-.274m24.913-.048c-.15.243-.122.631.063.864.184.232.525 1.014.758 1.737.233.723.569 1.314.747 1.314.514 0 .374-.747-.491-2.616-.534-1.154-.896-1.591-1.077-1.299m-35.877.976a14.369 14.369 0 0 0 .441 1.274c.187.454.083.615-.398.618-.358.002-.997.097-1.42.211-.635.17-.862-.017-1.307-1.082-.296-.708-.69-1.194-.876-1.078-.451.279 1.416 5.449 1.967 5.449.32 0 .33-.264.042-1.089-.437-1.254-.039-1.7 1.528-1.71.766-.004 1.012.224 1.352 1.254.244.739.545 1.13.729.946.41-.41-1.165-5.092-1.781-5.298-.315-.105-.405.059-.277.505m3.715.271c-1.091.541-1.217 1.937-.284 3.125 1.284 1.633 3.496 1.127 3.496-.799 0-1.904-1.651-3.099-3.212-2.325m.03.773c-.68.819.272 2.42 1.438 2.42 1.071 0 1.31-.942.538-2.12-.651-.993-1.317-1.094-1.976-.3m34.995 5.945c-.289.289 1.123 4.36 1.513 4.36.439 0 .404-.316-.254-2.303-.618-1.866-.934-2.382-1.259-2.057m3.584 5.081c-2.988.545-6.254 1.167-7.259 1.383-3.37.725-4.917 3.237-3.961 6.428 1.561 5.209 4.794 13.77 5.532 14.647 1.84 2.187 4.18 2.778 8.164 2.062 1.048-.188 2.456-.418 3.131-.511 3.341-.459 8.949-1.679 9.847-2.143.556-.288 1.256-.898 1.556-1.355 1.189-1.815 1.033-2.849-1.56-10.322-1.362-3.926-2.8-7.66-3.194-8.299-.883-1.429-3.844-2.979-5.579-2.922-.685.022-3.69.486-6.678 1.031m-1.307 5.925c-2.765 1.255-3.745 4.691-2.201 7.717 2.065 4.047 8.631 5.401 11.198 2.309.407-.491.633-.451 2.167.384 2.285 1.243 2.599.794.394-.563l-1.742-1.072.364-1.364c.74-2.773-1.652-6.432-4.935-7.551-2.106-.717-3.434-.682-5.244.14m1.08.38c-.607.184-1.61.912-2.229 1.617-1.031 1.174-1.113 1.44-.97 3.157.274 3.301 3.102 5.804 6.558 5.804 4.105 0 6.251-3.616 4.339-7.314-1.279-2.473-5.044-4.07-7.698-3.264m45.788 16.829c-18.756 3.322-31.822 5.794-32.5 6.148-1.159.606-2.555 2.911-2.538 4.192.005.373.386 1.782.845 3.131.46 1.349.776 2.515.702 2.59-.117.118-.37-.453-1.039-2.349-.089-.253-.312-.368-.494-.255-.538.332.296 2.376 1.364 3.344.601.545 1.269 1.805 1.765 3.329 1.185 3.64 1.966 4.98 3.491 5.989 2.741 1.814 1.391 1.969 35.673-4.079 17.41-3.071 32.108-5.819 32.664-6.106 1.655-.856 2.473-2.18 2.471-4-.002-1.529-3.099-11.249-4.344-13.631-1.07-2.048-2.903-3.28-5.467-3.672-.779-.119-12.674 1.84-32.593 5.369m-37.445 7.338c.391 1.157.853 2.103 1.029 2.103.43 0 .41-.173-.272-2.335-.324-1.029-.787-1.871-1.028-1.871-.321 0-.248.564.271 2.103m64.363-.463l-.107 1.64-1.007-1.459c-.554-.802-1.145-1.373-1.314-1.268s-.312.851-.318 1.658c-.012 1.584-.063 1.563-1.543-.634-.26-.386-.588-.589-.729-.453-.298.288 1.905 3.481 2.55 3.696.305.102.434-.354.434-1.531v-1.675l1.082 1.471c.595.809 1.226 1.471 1.402 1.471.176 0 .32-1.025.32-2.278 0-2.606-.608-3.111-.769-.638m-12.2-.596c0 .189.256.984.57 1.767s.502 1.491.42 1.574c-.082.082-.956-.555-1.941-1.417-1.679-1.469-2.551-1.914-2.555-1.303-.004.66 1.882 5.345 2.152 5.345.424 0 .382-.389-.226-2.113-.291-.825-.477-1.553-.412-1.617s.946.591 1.96 1.457c2.803 2.392 2.985 2.116 1.4-2.121-.633-1.691-1.366-2.534-1.366-1.57m3.417.736c-.748.435-.784 1.429-.102 2.749.955 1.847 3.694 1.649 3.694-.267 0-2.076-1.962-3.431-3.592-2.481m-11.83.992c0 .37-.096.922-.213 1.227-.136.354-.022.554.313.554.289 0 .633.434.766.964.31 1.242 1.172 2.19 1.992 2.19.878 0 .816-.458-.119-.881-.421-.19-.911-.79-1.088-1.332-.259-.794-.196-1.082.328-1.479.618-.468.609-.493-.172-.503-.521-.007-.888-.268-1.004-.712-.234-.894-.803-.914-.803-.029m12.078-.301c-.307.497.476 2.333 1.097 2.571.737.283 1.545-.135 1.545-.799 0-1.476-1.997-2.815-2.641-1.772m-24.447 1.95c-.11.11-.109.437.002.727.111.289-.018.668-.287.842-.39.251-.343.355.23.513.451.124.909.747 1.227 1.665.41 1.186.691 1.488 1.471 1.577.53.061.964-.057.964-.263 0-.205-.303-.374-.674-.374-.462 0-.804-.394-1.086-1.25-.362-1.097-.333-1.31.236-1.741.607-.459.586-.492-.315-.502-.6-.007-.964-.202-.964-.516 0-.566-.496-.984-.803-.678m8.601.013c-.62.25-.544 2.265.121 3.214.436.622.833.775 1.805.691.699-.06 1.409-.368 1.619-.703.509-.812-.071-1.309-.633-.542-.997 1.363-3.148-.034-2.531-1.643.235-.612 1.472-.743 1.813-.192.121.196.375.261.564.144.216-.134.191-.395-.067-.707-.4-.482-1.807-.619-2.69-.263m-4.651 1.003c-.538.648-.151 1.166.434.581.553-.553 1.676-.53 1.676.034 0 .247-.473.627-1.051.846-1.108.418-1.391 1.379-.631 2.14.503.503 1.907.557 2.198.086.114-.184.439-.246.722-.138.619.238.642-.095.114-1.665-.759-2.262-2.405-3.157-3.462-1.884m-7.519 1.203c-.114.184-.439.246-.722.138-.67-.257-.649.281.094 2.372.334.941.8 1.712 1.036 1.712.322 0 .3-.364-.092-1.474-.598-1.695-.455-2.381.497-2.381.831 0 1.246.508 1.788 2.19.374 1.161 1.07 1.822 1.07 1.016 0-.658-.832-2.718-1.331-3.294-.569-.658-2-.829-2.34-.278m-11.071.663c-.762.617-.778.727-.34 2.291.579 2.067 1.848 3.158 3.335 2.866 1.082-.212 1.933-1.024 1.933-1.842 0-.751-.858-.521-1.231.33-.863 1.967-3.069.602-3.12-1.931-.026-1.3.072-1.5.787-1.602.45-.064 1.121.159 1.492.494.371.336.791.492.935.348.388-.389-1.272-1.603-2.193-1.603-.439 0-1.159.292-1.599.648m20.086.078c-.434.166-.789.47-.789.675 0 .666 1.09.812 1.677.226.741-.741.179-1.311-.888-.901m-14.387.398c-.532.532-.535 1.398-.01 2.55.629 1.38 2.8 1.687 3.546.5.429-.681.095-2.173-.653-2.921-.651-.651-2.288-.725-2.883-.13m.631.455c-.348.419-.347.742.007 1.596.356.86.622 1.049 1.357.964.778-.09.902-.261.836-1.155-.043-.577-.349-1.247-.681-1.489-.775-.567-.989-.555-1.52.085" fill-rule="evenodd" fill="#3c3c3c"/></svg>