<svg width="133" height="130" viewBox="0 0 133 130" fill="none" xmlns="http://www.w3.org/2000/svg"><defs><style>@keyframes draw-dash{0%{stroke-dashoffset:100}50%{stroke-dashoffset:0}100%{stroke-dashoffset:100}}.draw-line{animation:draw-dash 6s ease-in-out infinite}</style></defs><g transform="translate(8, 8)"><path d="M41 19h8c6.627 0 12 5.373 12 12v51.5c0 6.627 5.373 12 12 12h5.5" stroke="#515151" stroke-width=".7" stroke-dasharray="6 6" class="draw-line"/><rect x=".35" y=".35" width="39.3" height="39.3" rx="7.65" fill="#1e1e1e"/><rect x=".35" y=".35" width="39.3" height="39.3" rx="7.65" stroke="url(#a)" stroke-width=".7"/><g clip-path="url(#b)"><path d="M21.712 18.645a1.9 1.9 0 0 1-1.176-.384 1.73 1.73 0 0 1-.664-.97H5.549v-.904h14.324q.15-.587.663-.97a1.9 1.9 0 0 1 1.176-.385q.798 0 1.35.524a1.7 1.7 0 0 1 .551 1.282q0 .757-.551 1.282-.552.525-1.35.525" fill="#6d6d6d"/></g><path d="M23.615 22.256a.903.903 0 0 1 1.445-.722l7.224 5.42c.694.521.325 1.627-.542 1.627h-3.565a.9.9 0 0 0-.716.352l-2.227 2.904c-.525.684-1.62.313-1.62-.55z" fill="#6d6d6d"/><rect x="77.35" y="74.35" width="39.3" height="39.3" rx="7.65" fill="#1e1e1e"/><rect x="77.35" y="74.35" width="39.3" height="39.3" rx="7.65" stroke="url(#c)" stroke-width=".7"/><path d="m87.57 103.319 6.895-6.895m8.682-3.066-2.064 6.192a.65.65 0 0 1-.431.418l-12.651 3.76a.65.65 0 0 1-.802-.829l4.108-12.321a.65.65 0 0 1 .368-.396l5.836-2.403a.65.65 0 0 1 .708.141l4.771 4.773a.66.66 0 0 1 .157.665" stroke="#6d6d6d" stroke-linecap="round" stroke-linejoin="round"/><path d="m103.275 92.977 3.063-3.065a2.17 2.17 0 0 0 0-3.063l-2.296-2.299a2.17 2.17 0 0 0-1.533-.635 2.17 2.17 0 0 0-1.532.635l-3.064 3.065m-1.15 6.51a1.625 1.625 0 1 0-2.298 2.3 1.625 1.625 0 0 0 2.298-2.3" stroke="#6d6d6d" stroke-linecap="round" stroke-linejoin="round"/><rect x="43.35" y="40.35" width="33.3" height="33.3" rx="7.65" fill="#696969"/><rect x="43.35" y="40.35" width="33.3" height="33.3" rx="7.65" stroke="url(#d)" stroke-width=".7"/><path d="m58 52-.516 1.394c-.676 1.828-1.014 2.742-1.681 3.409s-1.581 1.005-3.409 1.681L51 59l1.394.516c1.828.676 2.742 1.015 3.409 1.681s1.005 1.581 1.681 3.409L58 66l.516-1.394c.676-1.828 1.015-2.742 1.681-3.409s1.581-1.005 3.409-1.681L65 59l-1.394-.516c-1.828-.676-2.742-1.014-3.409-1.681s-1.005-1.581-1.681-3.409zm8-4-.221.597c-.29.784-.435 1.176-.72 1.461-.286.286-.678.431-1.462.72L63 51l.598.221c.783.29 1.175.435 1.46.72.286.286.431.678.72 1.462L66 54l.221-.597c.29-.784.435-1.176.72-1.461.286-.286.678-.431 1.462-.72L69 51l-.598-.221c-.783-.29-1.175-.435-1.46-.72-.286-.286-.431-.678-.72-1.462z" stroke="#f1f1f1" stroke-width="1.5" stroke-linejoin="round"/></g><defs><linearGradient id="a" x1="20" y1="0" x2="20" y2="40" gradientUnits="userSpaceOnUse"><stop stop-color="gray"/><stop offset=".534" stop-color="#2f2f2f"/></linearGradient><linearGradient id="c" x1="97" y1="74" x2="97" y2="114" gradientUnits="userSpaceOnUse"><stop stop-color="gray"/><stop offset=".534" stop-color="#2f2f2f"/></linearGradient><linearGradient id="d" x1="60" y1="40" x2="60" y2="74" gradientUnits="userSpaceOnUse"><stop stop-color="gray"/><stop offset=".534" stop-color="#2f2f2f"/></linearGradient><clipPath id="b"><path fill="#fff" d="M5.549 6h21.677v21.677H5.549z"/></clipPath></defs></svg>
