<svg width="121" height="64" viewBox="0 0 121 64" fill="none" xmlns="http://www.w3.org/2000/svg"><defs><style>@keyframes ball-travel{0%{transform:translateX(0)}50%{transform:translateX(100px)}100%{transform:translateX(0)}}.ball-travel{animation:ball-travel 4s ease-in-out infinite}</style></defs><g transform="translate(8, 8)"><path d="M0 23.6a2.133 2.133 0 1 0 4.267 0A2.133 2.133 0 0 0 0 23.6m100 0a2.133 2.133 0 1 0 4.266 0 2.133 2.133 0 0 0-4.266 0m-97.867 0v.4h100v-.8h-100z" fill="#4e4e4e"/><circle cx="0" cy="23.6" r="2.5" fill="#f1f1f1" class="ball-travel"/><rect x="28.483" y=".35" width="47.3" height="47.3" rx="7.65" fill="#696969"/><rect x="28.483" y=".35" width="47.3" height="47.3" rx="7.65" stroke="url(#a)" stroke-width=".7"/><g><path d="M46.533 17a1.4 1.4 0 0 0-1.4 1.4V24h1.4v-2.8h1.4V24h1.4v-5.6a1.4 1.4 0 0 0-1.4-1.4zm0 1.4h1.4v1.4h-1.4m12.6 6.65V25.4a1.4 1.4 0 0 0-1.4-1.4h-2.8v7h2.8a1.4 1.4 0 0 0 1.4-1.4v-1.05a1.08 1.08 0 0 0-1.05-1.05 1.08 1.08 0 0 0 1.05-1.05m-1.4 3.15h-1.4v-1.4h1.4zm0-2.8h-1.4v-1.4h1.4m-9.947 5.327-1.106-.854 9.8-12.6 1.106.854z" fill="#f1f1f1"/></g></g><defs><linearGradient id="a" x1="52.133" y1="0" x2="52.133" y2="48" gradientUnits="userSpaceOnUse"><stop stop-color="gray"/><stop offset=".534" stop-color="#2f2f2f"/></linearGradient></defs></svg>
