<svg width="144" height="113" viewBox="0 0 144 113" fill="none" xmlns="http://www.w3.org/2000/svg"><defs><style>@keyframes ripple1{0%{r:47.7;opacity:1}50%{r:52;opacity:0.3}100%{r:47.7;opacity:1}}@keyframes ripple2{0%{r:56.267;opacity:1}50%{r:61;opacity:0.25}100%{r:56.267;opacity:1}}@keyframes ripple3{0%{r:40.7;opacity:1}50%{r:45;opacity:0.4}100%{r:40.7;opacity:1}}@keyframes ripple4{0%{r:32.7;opacity:1}50%{r:37;opacity:0.5}100%{r:32.7;opacity:1}}.ripple1{animation:ripple1 2s ease-in-out infinite}.ripple2{animation:ripple2 2s ease-in-out 0.2s infinite}.ripple3{animation:ripple3 2s ease-in-out 0.4s infinite}.ripple4{animation:ripple4 2s ease-in-out 0.6s infinite}</style></defs><g transform="translate(8, 8)"><circle cx="48" cy="48" r="47.7" class="ripple1" transform="matrix(.96593 -.25882 .58779 .80902 -12.55 27.134)" stroke="#292929" stroke-width=".6"/><circle cx="56.567" cy="56.567" r="56.267" class="ripple2" transform="matrix(.96593 -.25882 .58779 .80902 -23.919 16.939)" stroke="#292929" stroke-width=".6"/><circle cx="41" cy="41" r="40.7" class="ripple3" transform="matrix(.96593 -.25882 .58779 .80902 -5.55 34.134)" stroke="#353535" stroke-width=".6"/><circle cx="33" cy="33" r="32.7" class="ripple4" transform="matrix(.96593 -.25882 .58779 .80902 2.45 42.134)" fill="#292929" stroke="#424242" stroke-width=".6"/><g clip-path="url(#a)"><rect width="48" height="48" rx="24" transform="matrix(.96593 -.25882 .58779 .80902 11.45 51.134)" fill="#696969"/><g clip-path="url(#b)"><g clip-path="url(#c)"><path d="m41.7 65.468 2.977.205a13 13 0 0 1-.081-1.72q.018-.846.173-1.684l-1.656.16a.54.54 0 0 0-.282.084.4.4 0 0 0-.156.2zm4.114.513 4.395 1.554a9.5 9.5 0 0 0 1.504-1.718 9.2 9.2 0 0 0 1.093-2.16q.611-1.725.36-3.427-.253-1.7-1.558-3.667-2.252.705-3.513 1.868-1.258 1.162-1.87 2.887a9 9 0 0 0-.504 2.374 9.8 9.8 0 0 0 .093 2.29m3.608-3.262q-.684-.242-1.046-.74-.362-.5-.196-.97t.775-.632 1.29.079q.683.24 1.047.741.364.5.196.968-.167.471-.775.633-.609.163-1.29-.08m4.29 7.017.977-2.756a.4.4 0 0 0 .005-.253.54.54 0 0 0-.165-.243l-1.187-1.166q-.407.748-.927 1.415-.522.666-1.147 1.283zm-1.745-14.159q1.782 2.186 2.227 4.304.446 2.117-.311 4.257l-.067.185-.065.185 1.596 1.555q.316.306.432.641a.96.96 0 0 1 .004.648l-1.389 3.873-3.896-2.73-5.538-1.96-4.757-.347 1.364-3.867q.11-.312.408-.508.298-.197.736-.236l2.266-.2q.037-.102.056-.182t.057-.182q.758-2.14 2.438-3.499t4.44-1.937M44.54 69.492q.223-.627 1.037-.839t1.727.112 1.402 1.002q.49.681.268 1.307-.192.545-1.066 1.129-.873.585-2.221 1.08-.735-1.233-1.037-2.24-.3-1.006-.11-1.551m1.117.403q-.108.309.034.901.142.594.472 1.176.623-.246 1.103-.622.48-.377.589-.685.113-.32-.125-.658-.24-.337-.706-.502t-.86-.047q-.392.117-.507.437" fill="#f1f1f1"/></g></g></g><rect x=".544" y=".193" width="47.3" height="47.3" rx="23.65" transform="matrix(.96593 -.25882 .58779 .80902 11.356 51.311)" stroke="url(#d)" stroke-width=".7"/></g><defs><clipPath id="a"><rect width="48" height="48" rx="24" transform="matrix(.96593 -.25882 .58779 .80902 11.45 51.134)" fill="#fff"/></clipPath><clipPath id="b"><path fill="#fff" d="m30.095 57.736 23.182-6.212 14.107 19.417-23.182 6.211z"/></clipPath><clipPath id="c"><path fill="#fff" d="m30.095 57.736 23.182-6.212 14.107 19.417-23.182 6.211z"/></clipPath><linearGradient id="d" x1="24" y1="0" x2="24" y2="48" gradientUnits="userSpaceOnUse"><stop stop-color="gray"/><stop offset=".534" stop-color="#2f2f2f"/></linearGradient></defs></svg>
