<svg xmlns="http://www.w3.org/2000/svg" viewBox="0 0 23 26">
  <path d="m7.973 20.88v2.275c0 .482-.527.779-.946.526l-1.058-.679-.253-.143c-.018-.01-1.48-.856-4.659-2.694l-.252-.145c-.249-.144-.453-.349-.594-.598-.14-.246-.213-.525-.21-.803l-.001-5.664v-5.674c0-.301.085-.595.243-.848.157-.254.384-.462.619-.576l4.596-2.657.251-.146c.083-.048.083-.048.253-.145l4.402-2.542.257-.152c.267-.154.571-.228.878-.213.298.014.592.112.798.259l4.581 2.647.253.143c.019.011 1.546.894 4.656 2.693l.254.145c.249.144.453.349.594.598.139.245.211.524.209.803l.001 5.158c0 .477-.516.775-.929.536l-1.976-1.142c-.191-.111-.309-.315-.309-.536v-3.1l-4.024-2.327c-.034-.017-.113-.062-.33-.188l-3.855-2.231-4.01 2.317c-.038.025-.038.025-.061.039-.009.006-.104.061-.284.166l-3.853 2.225v9.495l4.026 2.328c.026.013.081.045.338.193l.083.074.068.092c.153.116.244.297.244.491zm11.658-5.846c0-.476.515-.774.928-.536l1.976 1.138c.192.111.31.315.31.537v1.884c0 .162-.063.317-.176.433l-.932.95c-.349.446-.862.624-1.32.36l-7.343-4.257-.002 8.033c.026.301-.098.596-.335.787-.232.187-.232.187-1.354 1.094-.168.156-.389.243-.619.243-.503 0-.91-.408-.91-.91l.001-11.108-1.237-.716-.626.36c-.03.021-.019.015-.651.379-.445.261-1.005.123-1.261-.319-.061-.105-.061-.105-.349-.602l-.345-.596c-.259-.447-.121-1.006.321-1.262.108-.062.108-.062.608-.349l1.506-.867.272-.153c.29-.206.673-.225.984-.046l.343.2 10.211 5.901z"/>
</svg>
