<svg xmlns="http://www.w3.org/2000/svg" xml:space="preserve" y="0" x="0" id="Layer_1" version="1.1" viewBox="79.1 0 111.6 93.43"><style>.st0{fill:#d5d5d5}</style><path d="M128.9 1.2 87.4 18.4c-2.3 1-2.3 4.2 0 5.2l41.8 16.6c3.7 1.4 7.7 1.4 11.4 0l41.8-16.6c2.3-1 2.4-4.2 0-5.2L140.8 1.2c-3.8-1.6-8.1-1.6-11.9 0m9.7 48v41.4c0 2 2 3.4 3.8 2.6l46.6-18c1.1-.4 1.7-1.4 1.7-2.6V31.2c0-2-2-3.4-3.8-2.6l-46.6 18c-1.1.4-1.7 1.4-1.7 2.6M79.1 31.3v38.9c0 2.1 2.4 3.4 4.2 2.5l29.1-14 1.4-.7L80 29.4c-.5.5-.9 1.1-.9 1.9" class="st0"/><path d="M127.5 46.3 83.2 28.7c-.9-.3-1.8-.2-2.5.2-.2.1-.5.3-.8.5L113.8 58l13.8-6.6c2.3-1.1 2.1-4.3-.1-5.1" class="st0"/></svg>