<svg xmlns="http://www.w3.org/2000/svg" fill="none" viewBox="6.58 3.67 30.84 36.66">
<path d="M36.465 16.0379C35.125 16.7488 34.0236 17.8379 33.2977 19.1698C32.5718 20.5017 32.2534 22.0175 32.3822 23.5289C32.4823 25.0516 33.0065 26.5159 33.8956 27.7561C34.7846 28.9964 36.003 29.9631 37.4128 30.5469C37.4196 30.6042 37.4196 30.662 37.4128 30.7192C36.4459 33.5113 34.9173 36.0757 32.9212 38.2542C32.1432 39.2136 31.0755 39.8954 29.8778 40.1976C28.9889 40.3519 28.0754 40.2774 27.2232 39.9812C26.3157 39.7007 25.4302 39.3341 24.5025 39.0737C22.8723 38.6872 21.1607 38.839 19.624 39.5064C18.8369 39.7936 18.0376 40.0381 17.226 40.2397C16.7361 40.3514 16.2284 40.3612 15.7345 40.2685C15.2406 40.1758 14.7711 39.9825 14.355 39.7007C13.3694 39.0619 12.4945 38.2668 11.7645 37.3467C9.17368 34.1904 7.48089 30.3944 6.864 26.3577C6.30266 23.6261 6.58066 20.7885 7.6615 18.2177C8.24436 16.7857 9.17591 15.522 10.3715 14.5416C11.567 13.5612 12.9887 12.8952 14.5072 12.6041C15.9013 12.339 17.3413 12.4588 18.6725 12.9506L21.5233 13.9222C22.0238 14.1147 22.5775 14.1147 23.078 13.9222C24.2858 13.458 25.5184 13.0614 26.7703 12.7342C28.4458 12.2499 30.2266 12.268 31.8919 12.7861C33.5572 13.3043 35.0338 14.2998 36.1387 15.6492L36.465 16.0379Z" fill="#D5D5D5"/>
<path d="M29.6835 3.6665C29.8055 4.79354 29.6579 5.93344 29.2526 6.99217C28.5056 8.92235 27.1187 10.5377 25.3238 11.5682C24.4293 12.1006 23.4057 12.3771 22.3648 12.3675C22.0843 12.3675 22.0201 12.3675 21.9981 12.0008C21.9519 10.2014 22.5406 8.44317 23.661 7.03434C25.019 5.23837 27.0261 4.04532 29.2526 3.7105L29.6835 3.6665Z" fill="#D5D5D5"/>
</svg>