<svg xmlns="http://www.w3.org/2000/svg" fill="none" viewBox="0 0 37.17 40">
<path d="M22.7493 10.3852C19.1544 10.3852 15.6113 11.9286 12.9063 14.9628V0H7.55341V25.1927C7.55341 33.3705 14.1828 40 22.3607 40C30.5387 40 37.1681 33.3705 37.1681 25.1927C37.1681 17.0149 30.9271 10.3852 22.7493 10.3852ZM22.3607 34.2968C17.3326 34.2968 13.2565 30.2207 13.2565 25.1927C13.2565 20.1647 17.3326 16.0885 22.3607 16.0885C27.3887 16.0885 31.4648 20.1646 31.4648 25.1927C31.4648 30.2208 27.3887 34.2968 22.3607 34.2968Z" fill="#D5D5D5"/>
<path d="M3.66162 32.6768C1.63916 32.6768 0 34.3162 0 36.3384C0 38.3605 1.63931 40 3.66162 40C5.68392 40 7.32323 38.3605 7.32323 36.3384C7.32323 34.3162 5.68392 32.6768 3.66162 32.6768Z" fill="#D5D5D5"/>
</svg>