<svg version="1.1" id="Layer_1" xmlns:x="ns_extend;" xmlns:i="ns_ai;" xmlns:graph="ns_graphs;" xmlns="http://www.w3.org/2000/svg" xmlns:xlink="http://www.w3.org/1999/xlink" x="0px" y="0px" viewBox="0 0 40 40" style="enable-background:new 0 0 40 40;" xml:space="preserve">
 <metadata>
  <sfw xmlns="ns_sfw;">
   <slices>
   </slices>
   <sliceSourceBounds bottomLeftOrigin="true" height="40" width="40" x="-10.4" y="-9">
   </sliceSourceBounds>
  </sfw>
 </metadata>
 <rect width="40" height="40" rx="4" ry="4" fill="#d5d5d5"></rect>
 <g transform="translate(20, 20) scale(0.6) translate(-21.2, -20)">
  <path d="M21.2,14.7c0.4-0.5,0.8-0.6,1.1-0.6s0.9,0.1,1.2,0.6c2.9,3.9,7.7,11.8,11.2,17.6c2.3,3.8,4.1,6.7,4.4,7
		c1.4,1.4,3.2,0.5,4.3-1c1.1-1.5,1.4-2.6,1.4-3.8c0-0.8-15.4-29.2-17-31.6c-1.5-2.3-2-2.9-4.5-2.9h-1.9c-2.5,0-2.9,0.6-4.4,2.9
		C15.4,5.2,0,33.7,0,34.5c0,1.2,0.3,2.2,1.4,3.8c1.1,1.6,2.9,2.4,4.3,1c0.4-0.4,2.1-3.3,4.4-7C13.6,26.5,18.4,18.6,21.2,14.7
		L21.2,14.7z">
  </path>
 </g>
</svg>