<svg xmlns="http://www.w3.org/2000/svg" fill="none" viewBox="0 0 27.37 40">
<path fill-rule="evenodd" clip-rule="evenodd" d="M5.69004 14.2634C4.16937 14.275 2.7156 14.8902 1.64854 15.9737C0.581482 17.0572 -0.0114552 18.5202 0.000167709 20.0409C0.0117907 21.5616 0.627021 23.0153 1.71052 24.0824C2.79401 25.1495 4.25702 25.7424 5.77769 25.7308H11.5128V14.2663L5.69004 14.2634ZM21.7736 14.2634C23.281 14.301 24.7129 14.9311 25.759 16.0172C26.805 17.1032 27.3811 18.5576 27.3622 20.0654C27.3434 21.5732 26.7312 23.0128 25.6583 24.0724C24.5855 25.1319 23.1383 25.7261 21.6304 25.7261C20.1226 25.7261 18.6754 25.1319 17.6025 24.0724C16.5297 23.0128 15.9175 21.5732 15.8986 20.0654C15.8798 18.5576 16.4558 17.1032 17.5019 16.0172C18.548 14.9311 19.9799 14.301 21.4873 14.2634H21.7736ZM22.4251 0.00292163C23.7358 0.00292165 24.9928 0.523588 25.9196 1.45038C26.8464 2.37717 27.3671 3.63417 27.3671 4.94485C27.3671 6.25554 26.8464 7.51254 25.9196 8.43933C24.9928 9.36612 23.7358 9.88679 22.4251 9.88679H15.8953V0L22.4251 0.00292163ZM0.0454524 4.94339C0.0454524 2.21459 2.26005 0 4.98885 0H11.5128V9.88387H4.98885C4.3397 9.88463 3.69677 9.75739 3.09686 9.50942C2.49694 9.26144 1.95181 8.8976 1.49266 8.43873C1.03351 7.97985 0.669349 7.43493 0.42102 6.83516C0.172692 6.23539 0.0450679 5.59254 0.0454524 4.94339ZM4.98885 30.1161C3.67816 30.1161 2.42116 30.6368 1.49437 31.5636C0.56758 32.4904 0.0469131 33.7474 0.0469131 35.0581C0.0469131 36.3687 0.56758 37.6257 1.49437 38.5525C2.42116 39.4793 3.67816 40 4.98885 40H5.77769C7.29874 40 8.7575 39.3958 9.83305 38.3202C10.9086 37.2447 11.5128 35.7859 11.5128 34.2648V30.1161H4.98885Z" fill="#D5D5D5"/>
</svg>
