<svg xmlns="http://www.w3.org/2000/svg" viewBox="0 0 400 400" class="size-8">
  <rect width="400" height="400" rx="4" ry="4" fill="#d5d5d5"/>
  <g fill="#1e1e1e" stroke="#1e1e1e" stroke-width="4" stroke-linejoin="round" stroke-linecap="round">
    <path d="M149.56 175.676c2.538-33.772 14.638-63.61 36.818-89.274 5.764-6.67 11.668-13.218 17.518-19.835 2.375 1.931 3.097 2.343 3.59 2.943 25.244 30.746 50.945 61.133 75.522 92.403 15.338 19.514 24.542 42.132 23.892 67.442-1.142 44.494-22.164 76.67-62.588 96.45-17.466-7.191-32.454-17.121-46.34-29.147.002-.756.01-1.188.305-1.81 15.083-25.671 15.814-51.827 2.626-77.897-10.65-21.053-27.648-35.02-51.052-40.837-.134-.118-.292-.438-.292-.438"/>
    <path d="M149.175 175.564c.384.112.542.432.568.938.267 9.757-.194 19.091.877 28.246 3.494 29.868 15.693 56.082 35.066 78.937 3.581 4.225 8.178 7.59 12.306 11.353-.01.432-.018.864-.283 1.823-9.67 14-21.627 24.45-36.71 31.182-21.835-8.143-38.84-22.448-50.905-42.088-20.5-33.374-21.832-68.176-5.865-103.818 1.91-4.264 4.54-6.6 9.415-7.5 11.843-2.186 23.486-1.835 35.53.927"/>
    <path d="M161.237 328.314c14.845-7.003 26.802-17.452 36.48-31.129 14.14 11.499 29.129 21.429 46.25 28.65-24.636 11.865-50.236 12.796-76.368 4.853-2.064-.628-4.083-1.4-6.362-2.374m37.04-33.467c-4.413-3.572-9.01-6.937-12.591-11.162-19.373-22.855-31.572-49.07-35.066-78.937-1.07-9.155-.61-18.49-.743-28.129 23.378 5.312 40.377 19.28 51.026 40.332 13.188 26.07 12.457 52.226-2.626 77.896"/>
  </g>
</svg>
