<svg xmlns="http://www.w3.org/2000/svg" fill="none" viewBox="0 0 36 36">
<path fill-rule="evenodd" clip-rule="evenodd" d="M29.5304 7.13867C30.3902 7.13867 31.186 7.59699 31.5892 8.34203C31.9755 9.05567 31.9591 9.89663 31.5464 10.5947L31.5323 10.6181L27.9146 16.5798C27.5055 17.2539 26.767 17.6747 25.9776 17.6837L25.9518 17.6838L21.8207 17.6838L23.5377 21.5562L23.5446 21.5676L23.5551 21.5859C23.9595 22.3058 23.9496 23.1618 23.5303 23.8711L23.5162 23.8947L19.8985 29.8563C19.4893 30.5305 18.7508 30.9512 17.9615 30.9602L17.9357 30.9604L12.8652 30.9603L9.22012 34.7477L9.21322 34.7547C8.87021 35.0982 8.40676 35.2898 7.92356 35.2898C7.80277 35.2898 7.6819 35.2778 7.56233 35.2538C6.97291 35.1352 6.4832 34.7368 6.24747 34.1873L6.24082 34.1716L4.32258 29.8337L4.31249 29.8171L4.30201 29.7992C4.30027 29.7961 4.2985 29.793 4.29665 29.7897C3.89228 29.0698 3.90207 28.2138 4.32137 27.5045L4.3355 27.4809L7.8443 21.6987L5.25884 15.8678L5.30622 15.844L5.3055 15.8405C5.19611 15.3042 5.28417 14.7449 5.56512 14.255L5.58064 14.2283L5.59498 14.2044L9.2127 8.24265C9.62186 7.56856 10.3604 7.14779 11.1497 7.13867H11.1755H29.5304ZM10.5345 30.915L6.69069 30.915L7.81966 33.4877L7.82244 33.4945C7.84115 33.5406 7.87142 33.5658 7.91648 33.5749C7.95667 33.5831 7.98919 33.5747 8.01994 33.5471L8.02532 33.5419L10.5345 30.915ZM21.5229 22.0702H9.90385C9.89102 22.0702 9.87819 22.0706 9.86538 22.0715L9.86186 22.0717L13.0477 29.2506H17.9351C18.136 29.2506 18.3296 29.1447 18.4396 28.9745L18.4483 28.9606L22.0713 22.9952C22.1794 22.8173 22.1913 22.6108 22.1057 22.425C22.0069 22.2108 21.7777 22.0702 21.5229 22.0702ZM8.69605 23.5443L5.82063 28.3186C5.70621 28.5087 5.69958 28.7312 5.80204 28.9271L5.81291 28.947L5.8187 28.9567L5.8303 28.9754L5.8533 29.0091L5.87897 29.042L5.90353 29.0696L5.90779 29.0741L5.9244 29.0907L5.93883 29.1042C6.02928 29.1851 6.14109 29.2345 6.26441 29.2471L6.29212 29.2495L6.30816 29.2503L6.32848 29.2506H11.2072L8.69605 23.5443ZM7.93994 17.6953L9.20279 20.5485L9.22739 20.5402C9.44548 20.4683 9.6735 20.4294 9.90401 20.4258L9.93861 20.4256L21.2012 20.4255L19.9928 17.6954L7.93994 17.6953ZM29.4983 8.80301H17.8378L21.0246 15.9835H25.9103C26.1116 15.9835 26.3053 15.8774 26.4154 15.7072L26.4241 15.6932L30.0473 9.72799C30.1553 9.55009 30.1673 9.34379 30.0817 9.15816C29.985 8.94832 29.7632 8.80903 29.5146 8.8032L29.4983 8.80301ZM16.0528 8.80301H11.1942C10.9944 8.80301 10.8017 8.90878 10.692 9.07879L10.6833 9.09271L7.06968 15.058C6.9618 15.2361 6.94987 15.4429 7.03542 15.6289C7.13178 15.8386 7.35237 15.9774 7.59952 15.9833L7.61568 15.9835H19.2312L16.0528 8.80301Z" fill="#d5d5d5"/>
</svg>
