<?xml version="1.0" encoding="UTF-8"?>
<svg id="Layer_1" data-name="Layer 1" xmlns="http://www.w3.org/2000/svg" viewBox="0 0 201 201">
  <defs>
    <style>
      .cls-1 {
        fill: #f77b68;
      }

      .cls-2 {
        fill: #f9a699;
      }

      .cls-3 {
        fill: #1e1e1e;
      }

      .cls-4 {
        fill: #d5d5d5;
      }
    </style>
  </defs>
  <path class="cls-2" d="M200,0h1v201H0v-1c.28-.87.62-.86,1,0l.7-2c65.68.4,131.12.16,196.3-.73V2.24s1.99-1.24,1.99-1.24c-.87-.28-.86-.62,0-1Z"/>
  <path class="cls-1" d="M200,0v1l-.7,2c-65.68-.4-131.12-.16-196.3.73v195.03s-1.99,1.24-1.99,1.24H0V0h200Z"/>
  <rect class="cls-4" x="1" y="1" width="199.01" height="199.01"/>
  <path class="cls-3" d="M114,107v16h-19.5c-20.47,0-37.31-25.24-36.51-44.46,2.1-50.48,78.76-52.03,84.02-4.05,1.29,11.78,1.16,39.1-.02,51-3.33,33.54-47.61,48.53-70.97,24.01l11.48-11.47c13.3,14.04,39.09,7.12,43.06-11.97,1.6-7.69,1.48-42.18.35-50.47-.87-6.38-6.25-13.13-11.6-16.4-24.56-15.04-51.44,13.47-35.15,37.15,2.64,3.84,11.8,10.67,16.33,10.67h18.5Z"/>
</svg>