<svg xmlns="http://www.w3.org/2000/svg" fill="#1E1E1E" viewBox="0 0 400 400" class="size-8"><rect width="400" height="400" rx="4" ry="4" fill="#d5d5d5"></rect><g transform="translate(200, 200) scale(1) translate(-200, -200)"><path fill="#1E1E1E" opacity="1.000000" stroke="none" d="M320.914246,230.978851 C315.295776,255.100693 303.030396,275.357574 284.912170,292.059326 C243.389694,330.335693 180.809708,335.471283 133.712311,304.613251 C85.798836,273.220520 65.697037,213.767273 84.727615,159.735626 C103.453377,106.569389 156.252853,72.775269 212.541046,77.925644 C233.897446,79.879761 253.351074,87.045837 271.190125,98.918434 C273.271606,100.303734 276.387817,100.998634 278.893494,100.741074 C294.385559,99.148705 307.987671,109.922905 309.238007,125.137047 C310.519989,140.736099 299.521088,153.543655 283.924255,154.613480 C268.824890,155.649185 255.670746,143.615646 255.395248,128.196198 C255.340591,125.137291 254.402435,123.425262 251.878067,121.809349 C219.657333,101.183876 177.249435,102.324730 146.512314,124.758034 C114.579628,148.063904 100.419289,187.428818 110.415085,225.106171 C120.319328,262.438354 152.208694,290.016937 190.439667,294.313019 C235.723465,299.401642 277.461578,272.179596 291.098755,228.689804 C291.532379,227.306900 292.243530,226.011002 293.365723,224.391724 C302.908813,226.398880 311.911530,228.688858 320.914246,230.978851z"/><path fill="#1E1E1E" opacity="1.000000" stroke="none" d="M179.522614,250.573334 C156.598053,239.303680 144.292770,217.233795 147.653732,193.861938 C151.053162,170.222763 168.572113,152.012650 191.980743,147.786179 C214.359451,143.745636 236.598404,154.261093 248.282913,174.408066 C259.401489,193.579254 257.194977,218.388657 242.836670,235.643814 C228.447769,252.935699 204.649765,259.560394 183.610657,252.126114 C182.355347,251.682526 181.112808,251.202774 179.522614,250.573334z"/><path fill="#1E1E1E" opacity="1.000000" stroke="none" d="M295.145111,193.073883 C294.074341,187.091064 293.003571,181.108246 291.851349,174.670334 C302.058685,173.311798 310.700348,169.247559 318.079895,160.207886 C319.950378,167.006912 321.495728,172.624191 322.620453,178.620972 C317.121857,182.626465 312.043915,186.252441 306.580017,189.912567 C302.511108,190.989090 298.828125,192.031494 295.145111,193.073883z"/><path fill="#1E1E1E" opacity="1.000000" stroke="none" d="M295.086548,193.529648 C298.828125,192.031494 302.511108,190.989090 306.664917,190.307617 C312.387634,190.731262 317.639740,190.811356 322.891052,190.777435 C323.057953,190.776352 323.217255,189.603073 323.380127,188.976257 C323.812256,195.447586 324.244415,201.918930 324.114990,208.642517 C321.867706,207.600067 320.195007,205.217590 318.494110,205.197342 C310.775696,205.105423 303.049316,205.679581 295.325806,206.014038 C295.226532,202.004501 295.127289,197.994949 295.086548,193.529648z"/><path fill="#1E1E1E" opacity="1.000000" stroke="none" d="M321.125885,230.657730 C311.911530,228.688858 302.908813,226.398880 293.529602,224.058258 C293.343628,221.930832 293.534119,219.854080 294.246826,217.315399 C297.325165,212.718842 301.150146,214.105469 304.835266,214.404312 C311.270874,214.926224 317.982544,218.633865 323.975922,213.000839 C323.096466,218.779434 322.217010,224.558014 321.125885,230.657730z"/><path fill="#1E1E1E" opacity="1.000000" stroke="none" d="M324.125549,212.619019 C317.982544,218.633865 311.270874,214.926224 304.835266,214.404312 C301.150146,214.105469 297.325165,212.718842 294.400909,216.927185 C294.359894,213.614304 294.686981,210.227722 295.169922,206.427582 C303.049316,205.679581 310.775696,205.105423 318.494110,205.197342 C320.195007,205.217590 321.867706,207.600067 323.941223,208.939301 C324.311096,210.068283 324.293121,211.152756 324.125549,212.619019z"/><path fill="#1E1E1E" opacity="1.000000" stroke="none" d="M323.301666,188.683655 C323.217255,189.603073 323.057953,190.776352 322.891052,190.777435 C317.639740,190.811356 312.387634,190.731262 307.050812,190.273483 C312.043915,186.252441 317.121857,182.626465 322.566345,179.018677 C323.029633,182.154907 323.126404,185.272980 323.301666,188.683655z"/></g></svg>