<?xml version="1.0" encoding="utf-8"?>
<!-- Generator: Adobe Adobe Illustrator 29.2.0, SVG Export Plug-In . SVG Version: 6.00 Build 0)  -->
<svg version="1.1" id="Layer_1" xmlns="http://www.w3.org/2000/svg" xmlns:xlink="http://www.w3.org/1999/xlink" x="0px" y="0px"
	 viewBox="0 0 500 500" style="enable-background:new 0 0 500 500;" xml:space="preserve">
<style type="text/css">
	.st0{fill:#D5D5D5;}
	.st1{fill:#1E1E1E;}
</style>
<path class="st0" d="M0,480V20C0,9,9,0,20,0h460c11,0,20,9,20,20v460c0,11-9,20-20,20H20C9,500,0,491,0,480z"/>
<path class="st1" d="M282.1,323.2c0,14-1.8,25.2-5.5,33.5c-3.7,8.3-8.5,14.2-14.6,17.7c-6.1,3.6-12.5,5.3-19.2,5.3
	c-5.5,0-10.3-0.9-14.4-2.7c-4.1-1.8-7.3-4.2-9.5-7.3c-2.2-3.1-3.3-6.7-3.3-10.8c0-4.1,1.2-7.1,3.5-9.5c2.3-2.4,5.5-3.6,9.6-3.6
	c3.4,0,6.1,0.8,8.2,2.5c2,1.7,3.9,4.5,5.5,8.4c2,3.6,3.6,6.1,4.8,7.6c1.2,1.5,2.8,2.3,4.5,2.3c2.7,0,4.7-1,6-3.1c1.3-2,2-4.8,2-8.1
	c0-3.6-0.6-7-1.7-10.3c-1.2-3.3-2.6-7.1-4.4-11.3c-1.8-4.3-3.3-9.3-4.4-15.2c-1.2-5.9-1.7-13-1.7-21.3v-78.4c0-6-0.3-10.5-0.8-13.5
	c-0.5-2.9-1.8-4.7-3.7-5.2c-2-0.5-5.2-0.1-9.6,1.3v-7.7l48.9-20.5V323.2z M279.1,154.8c3.6-3.8,5.3-8.6,5.3-14.3
	c0-5.7-1.8-10.5-5.3-14.4c-3.6-3.9-8.4-5.9-14.4-5.9c-6.1,0-11,2-14.8,5.9c-3.8,3.9-5.7,8.7-5.7,14.4c0,5.7,1.9,10.4,5.7,14.3
	c3.8,3.8,8.8,5.7,14.8,5.7C270.8,160.5,275.6,158.6,279.1,154.8z"/>
</svg>
