<svg xmlns="http://www.w3.org/2000/svg" fill="#1E1E1E" viewBox="0 0 400 400" class="size-8"><rect width="400" height="400" rx="4" ry="4" fill="#d5d5d5"></rect><g transform="translate(200, 200) scale(1) translate(-200, -200)"><path fill="#d5d5d5" stroke="#1E1E1E" stroke-width="2" opacity="1.000000" d="M165.999878,282.378235 C153.837112,282.374756 142.174225,282.407013 130.511642,282.360535 C95.358040,282.220428 65.144073,257.659729 57.744518,223.244324 C48.332306,179.468018 77.705750,137.743958 122.122902,131.849380 C124.092888,131.587952 126.114487,131.669006 128.112061,131.668640 C177.762070,131.659393 227.412125,131.624359 277.062103,131.672058 C314.295776,131.707840 345.769287,160.560287 350.533783,197.638062 C355.583435,236.934967 328.308105,276.380707 284.946930,282.095276 C281.663879,282.527985 278.293518,282.363861 274.963684,282.365417 C238.809082,282.382446 202.654480,282.377167 165.999878,282.378235z"/><path fill="#1E1E1E" opacity="1.000000" stroke="none" d="M148.133926,230.870270 C149.567200,234.165573 148.661972,237.825836 149.747406,241.177597 C151.941696,247.953339 149.431931,250.787064 142.338379,249.090714 C139.418198,248.392395 136.890015,248.302216 134.049408,250.085892 C137.755356,253.224014 141.306992,254.749268 145.744980,251.763779 C147.915512,250.303635 151.247787,249.556854 152.762955,251.350662 C155.881042,255.042099 158.445023,253.538300 161.844376,251.785294 C158.969147,251.468414 157.358124,249.156952 154.604767,249.301620 C153.258469,249.372375 152.157455,247.261505 153.605286,246.401245 C157.278534,244.218674 157.642456,240.203064 159.354431,236.804214 C167.027283,246.421341 167.027283,246.421341 161.780182,257.245941 C167.265091,255.695663 171.388199,250.271957 177.659927,253.552307 C176.081467,251.480804 174.089935,252.183685 172.447571,251.520966 C170.674866,250.805618 169.084198,249.511200 169.953857,247.890305 C171.701508,244.632965 171.564285,240.843201 173.250229,237.369919 C177.664291,238.909637 183.054810,239.341049 185.377640,242.986282 C189.764114,249.869980 195.840073,248.414215 202.323105,248.452332 C201.944153,247.562683 201.717850,246.991867 201.461151,246.435059 C199.413025,241.992508 194.489319,239.567505 192.953384,234.877808 C187.266708,217.514389 177.297409,203.026764 163.968826,190.700104 C157.570831,184.783081 152.078781,178.276260 148.620071,170.050430 C145.641251,162.965973 140.338501,158.092758 132.411209,156.604477 C126.460686,155.487335 120.791931,157.634552 118.280739,162.522141 C117.048874,164.919769 115.559059,166.970825 113.767876,168.975281 C111.080017,171.983200 109.096817,175.425919 111.147308,179.688339 C124.307388,178.639603 126.538757,180.216858 129.673538,192.617279 C129.958130,193.743027 130.245529,194.875656 130.412231,196.022446 C132.351685,209.363342 136.482285,221.584885 148.133926,230.870270 M235.692688,250.938019 C245.122589,253.294495 253.229294,250.528168 259.955139,243.971725 C266.004608,238.074646 272.739929,232.698669 276.595123,224.848160 C276.935364,224.155304 277.608429,223.417770 278.302826,223.138458 C287.511597,219.434418 293.407349,211.740051 299.794586,204.835861 C309.708984,194.119064 308.957703,178.612732 298.675415,168.990921 C288.604584,159.567001 273.219086,159.797455 263.077271,169.860367 C257.080048,175.810944 250.292480,181.137558 246.427399,188.985138 C246.088669,189.672867 245.377914,190.384048 244.674713,190.654129 C236.198349,193.909821 230.957870,201.071396 224.891266,207.156021 C210.031525,222.059967 215.067017,243.644455 235.692688,250.938019z"/><path fill="#1E1E1E" opacity="1.000000" stroke="none" d="M256.444092,220.422089 C259.200043,222.146744 261.528595,223.143692 263.356659,219.681442 C265.038025,216.496933 265.276184,214.123184 261.673920,211.707474 C253.433609,206.181458 252.237564,195.752930 258.889709,188.265411 C262.750153,183.920212 266.968384,179.855927 271.311218,175.985718 C276.662384,171.216965 285.187408,171.149277 290.699585,175.450348 C296.108551,179.670898 298.348877,187.735565 295.184448,193.916504 C291.568878,200.978516 285.039612,205.437073 278.761871,211.523239 C276.581879,203.737656 273.304596,197.740250 267.193359,193.703415 C262.198395,190.403946 260.306519,191.093369 258.775848,196.756073 C258.207458,198.858856 258.713379,200.001007 260.484802,201.322021 C270.589172,208.857300 271.217987,218.560440 262.334991,227.523895 C259.170319,230.717224 256.046722,233.958084 252.758820,237.021042 C246.216599,243.115707 237.103638,243.131638 231.179459,237.184311 C225.051453,231.032333 225.015488,221.752365 231.068924,215.168808 C234.984879,210.909927 238.868881,206.621658 243.651459,202.602966 C246.680023,209.957001 249.651230,216.389114 256.444092,220.422089z"/></g></svg>