<?xml version="1.0" encoding="utf-8"?>
<!-- Generator: Adobe Adobe Illustrator 29.2.0, SVG Export Plug-In . SVG Version: 6.00 Build 0)  -->
<svg version="1.1" id="Layer_4" xmlns:xlink="http://www.w3.org/1999/xlink"
	 xmlns="http://www.w3.org/2000/svg" x="0px" y="0px" viewBox="0 0 500 500"
	 style="enable-background:new 0 0 500 500;" xml:space="preserve">
<style type="text/css">
	.st0{fill:#D5D5D5;}
	.st1{fill:#1E1E1E;}
	.st2{fill:#141515;}
	.st3{fill:#FFFFFF;}
	.st4{clip-path:url(#SVGID_00000133512906625027379440000015594170811074809499_);fill:#141515;}
</style>
<path class="st0" d="M0,480V20C0,9,9,0,20,0h460c11,0,20,9,20,20v460c0,11-9,20-20,20H20C9,500,0,491,0,480z"/>
<g>
	<g>
		<path class="st1" d="M381.4,162.2L264,100.6c-12.8-6.8-33.4-6.8-46.1,0l-117.4,61.5c-5.2,3-9.5,6.8-9.5,12.8
			c0,2.4,0,150.7,0,150.7c0,4.5,3.3,8.9,9.5,12.2l116.8,61.2c14.1,7.4,33.4,6.8,47.4,0c5.2-2.7,115.2-60.7,116.8-61.2
			c6.5-3.3,9.5-7.7,9.5-12.2c0-3.3,0-145.4,0-150.7C390.9,167.2,384.7,164,381.4,162.2z"/>
		<path class="st2" d="M381.4,162.2L264,100.6c-12.8-6.8-33.4-6.8-46.1,0l-117.4,61.5c-5.2,3-9.5,6.8-9.5,12.8
			c0,5.9,4.3,10.1,9.5,12.8l117.4,61.5c12.8,6.8,33.4,6.8,46.1,0l117.4-61.5c3.6-1.8,9.5-5.1,9.5-12.8S384.7,164,381.4,162.2z"/>
		<path class="st2" d="M90.9,197.6c0.3,0.9,0.3,6.2,9.2,11l117.4,61.8c13.4,7.1,33,6.5,45.8,0.3c3.9-2.1,16.7-8.6,19-10.1
			c5.6-3,8.2,0.3,8.2,2.1c0,0.6,0,20.8,0,30.3c0,7.7-6.5,11.9-9.5,13.4c-5.9,3-11.5,6.2-17.3,9.2c-10.5,5.4-30.4,8.3-45.8,0.3
			L100.1,254c-1.3-0.9-9.2-4.8-9.2-12.2V197.6z"/>
		<g>
			<g>
				<g>
					<defs>
						<path id="SVGID_1_" d="M324.2,329.9V345l0,0l16.7-8.6v-15.2L324.2,329.9L324.2,329.9z M374.2,273.1L374.2,273.1l-16.7,8.6
							v15.2l0,0l16.7-8.6V273.1z M324.2,284.4v-15.2l-16.7,8.6l0,0V293l0,0L324.2,284.4z M249.9,335.5c-16.4,2.4-28.1-2.4-34-5.4
							c-4.6-2.4-8.5-0.9-8.2,3.3c0.3,5.1,4.3,9.5,7.9,11.6c5.2,3,17.3,7.7,33,5.6c5.2-0.6,8.8-4.8,8.8-9.5
							C257.7,336.7,252.8,334.9,249.9,335.5z M290.8,332.2v-15.2l0,0l-16.7,8.6v15.2l0,0L290.8,332.2z M224.4,379.2
							c5.2,1.5,10.8,2.4,16.7,2.4v-15.2c-5.9,0-11.5-0.9-16.7-2.4V379.2z M199.2,351.6L199.2,351.6l-16.7-8.6l0,0l0,0l0,0
							c-4.6-2.4-8.2-0.9-8.2,3.3s3.6,9.5,8.2,11.9l0,0l0,0l16.7,8.6l0,0l0,0l0,0c4.6,2.4,8.2,0.9,8.2-3.3l0,0l0,0
							C207.7,359.3,203.8,354,199.2,351.6z M390.9,288.5v14c0,7.4-7.9,11.3-9.5,12.5l-15.4,8c-2.9,1.8-7.2,1.8-8.2-1.8
							c-0.7-3.6,2-10.1,9.2-14c3.9-2.1,14.7-7.7,14.7-7.7C390.6,294.5,390.6,289.4,390.9,288.5z M390.9,197.6v14
							c0,7.4-7.9,11.3-9.5,12.5c0,0-2.9,1.5-7.2,3.9v-15.2c4.3-2.4,7.5-3.9,7.5-3.9C390.6,203.8,390.6,198.4,390.9,197.6z
							 M390.9,227.9v14c0,7.4-7.9,11.3-9.5,12.5l-32.1,16.9c-2.9,1.8-7.2,1.8-8.2-1.8c-0.7-3.6,2-10.1,9.2-14
							c3.9-2.1,31.4-16.7,31.4-16.7C390.6,234.1,390.6,228.8,390.9,227.9z M299.3,358.1c4.6-2.4,8.5-7.7,8.2-11.9
							c0-4.2-3.6-5.4-8.2-3.3l-35.7,18.7l0,0l0,0c-3.9,2.1-6.2,5.6-6.2,10.1c0,3.6,4.3,6.2,8.2,3.9L299.3,358.1z M307.5,315.9
							L307.5,315.9L307.5,315.9c0,4.2,3.6,5.6,8.2,3.3l0,0l0,0l0,0l16.7-8.6l0,0l0,0c4.6-2.4,8.2-7.7,8.2-11.9s-3.6-5.6-8.2-3.3l0,0
							l0,0l0,0l-16.4,8.3l0,0C311.4,306.4,307.5,311.7,307.5,315.9z M307.5,255.2L307.5,255.2L307.5,255.2c0,4.2,3.6,5.6,8.2,3.3
							l0,0l0,0l0,0l33.7-17.5l0,0l0,0c4.6-2.4,8.2-7.7,8.2-11.9s-3.6-5.6-8.2-3.3l0,0l0,0l0,0L316,243.3l0,0
							C311.4,245.7,307.5,251.1,307.5,255.2z"/>
					</defs>
					<clipPath id="SVGID_00000125579930489690371460000015583695495016024965_">
						<use xlink:href="#SVGID_1_"  style="overflow:visible;"/>
					</clipPath>
					<path style="clip-path:url(#SVGID_00000125579930489690371460000015583695495016024965_);fill:#141515;" d="M381.4,162.2
						L264,100.6c-12.8-6.8-33.4-6.8-46.1,0l-117.4,61.5c-5.2,3-9.5,6.8-9.5,12.8c0,2.4,0,150.7,0,150.7c0,4.5,3.3,8.9,9.5,12.2
						l116.8,61.2c14.1,7.4,33.4,6.8,47.4,0c5.2-2.7,115.2-60.7,116.8-61.2c6.5-3.3,9.5-7.7,9.5-12.2c0-3.3,0-145.4,0-150.7
						C390.9,167.2,384.7,164,381.4,162.2z"/>
				</g>
			</g>
		</g>
	</g>
</g>
</svg>
