<svg version="1.1" id="Vrstva_1" xmlns:x="ns_extend;" xmlns:i="ns_ai;" xmlns:graph="ns_graphs;" xmlns="http://www.w3.org/2000/svg" xmlns:xlink="http://www.w3.org/1999/xlink" x="0px" y="0px" viewBox="0 0 91.1 66.1" style="enable-background:new 0 0 91.1 66.1;" xml:space="preserve">
 <style type="text/css">
  .st0{clip-path:url(#SVGID_2_);}
	.st1{fill:#FFFFFF;}
	.st2{clip-path:url(#SVGID_4_);}
	.st3{clip-path:url(#SVGID_6_);}
 </style>
 <metadata>
  <sfw xmlns="ns_sfw;">
   <slices>
   </slices>
   <sliceSourceBounds bottomLeftOrigin="true" height="97" width="134.8" x="446.5" y="-15.7">
   </sliceSourceBounds>
  </sfw>
 </metadata>
 <g>
  <g>
   <defs>
    <path id="SVGID_1_" d="M72.8,1.7h15.8c1.2,0,2.2,1,2.2,2.2v58.4c0,1.2-1,2.2-2.2,2.2H72.8c-1.2,0-2.2-1-2.2-2.2V3.9
				C70.6,2.7,71.6,1.7,72.8,1.7z">
    </path>
   </defs>
   <clipPath id="SVGID_2_">
    <use href="#SVGID_1_" style="overflow:visible;">
    </use>
   </clipPath>
   <g class="st0">
    <rect x="60.4" y="0.2" transform="matrix(0.9383 -0.346 0.346 0.9383 -6.4704 29.975)" class="st1" width="40.6" height="65.8">
    </rect>
   </g>
  </g>
  <g>
   <defs>
    <path id="SVGID_3_" d="M26.4,2.5L0.2,54.7c-0.5,1.1-0.1,2.4,1,2.9l14.1,7.1c1.1,0.5,2.4,0.1,2.9-1l26.2-52.2
				c0.5-1.1,0.1-2.4-1-2.9L29.4,1.5c-0.3-0.2-0.6-0.2-1-0.2C27.6,1.3,26.8,1.8,26.4,2.5">
    </path>
   </defs>
   <clipPath id="SVGID_4_">
    <use xlink:href="#SVGID_3_" style="overflow:visible;">
    </use>
   </clipPath>
   <g class="st2">
    <rect x="-11.1" y="-5.1" transform="matrix(0.9179 -0.3968 0.3968 0.9179 -11.3727 11.6021)" class="st1" width="67" height="76.7">
    </rect>
   </g>
  </g>
  <g>
   <defs>
    <path id="SVGID_5_" d="M48.5,2.7L37.3,59.6c-0.2,1.2,0.5,2.3,1.7,2.6l15.5,3.1c1.2,0.2,2.3-0.5,2.6-1.7L68.3,6.7
				c0.2-1.2-0.5-2.3-1.7-2.6L51.1,1c-0.1,0-0.3,0-0.4,0C49.6,0.9,48.7,1.7,48.5,2.7">
    </path>
   </defs>
   <clipPath id="SVGID_6_">
    <use xlink:href="#SVGID_5_" style="overflow:visible;">
    </use>
   </clipPath>
   <g class="st3">
    <rect x="26.9" y="-2.5" transform="matrix(0.9384 -0.3455 0.3455 0.9384 -8.2258 20.2773)" class="st1" width="51.8" height="71.4">
    </rect>
   </g>
  </g>
 </g>
</svg>