<svg xmlns="http://www.w3.org/2000/svg" fill="none" viewBox="0 0 19.77 44">
<path d="M19.4032 17.5175C17.0859 7.2875 11.6079 3.92517 11.0194 2.64C10.506 1.91767 10.0477 0.891 9.67187 0C9.60587 0.9075 9.57104 1.25583 8.71304 2.17067C7.38754 3.20833 0.576702 8.921 0.0230357 20.5407C-0.493964 31.3793 7.85137 37.8382 8.98437 38.6613L9.1127 38.753C9.3484 40.4979 9.5501 42.2472 9.7177 44H10.5995C10.8102 42.1085 11.1224 40.2297 11.5345 38.3717C12.299 37.829 12.6419 37.5228 13.0929 37.1012C15.2288 35.1255 16.9263 32.7235 18.0755 30.0506C19.2247 27.3776 19.8001 24.4932 19.7644 21.5838C19.7827 20.0915 19.5755 18.5368 19.4032 17.5175ZM9.62054 32.5417C9.62054 32.5417 9.62054 17.3415 10.1247 17.3433C10.5152 17.3433 11.023 36.9508 11.023 36.9508C10.3245 36.8683 9.62054 33.7242 9.62054 32.5417Z" fill="#D5D5D5"/>
</svg>