<svg xmlns="http://www.w3.org/2000/svg" viewBox="0 0 496 496" xml:space="preserve">
  <rect x="0" y="0" width="496" height="496" fill="rgba(213, 213, 213, 1)" />
  <path
    d="M362.272 169.075c13.852-6.847 27.04-6.14 38.757 3.324 11.147 9.004 15.466 21.236 11.857 35.326-3.82 14.914-14.07 23.351-29.051 26.069-14.203 2.576-29.762-6.04-36.113-20.325-1.78-4.002-3.93-5.372-8.227-5.242-10.32.313-20.658.047-30.988.134-10.488.089-16.81 5.599-18.214 16.05-1.198 8.912-3.466 17.307-9.812 24.08-1.232 1.315-1.315 2.614-.07 3.957 6.686 7.218 8.632 16.232 10.073 25.574 1.268 8.218 6.994 13.69 14.28 14.623 4.005.513 6.683-.295 8.595-4.616 5.313-12.014 14.86-18.96 27.889-20.82 19.125-2.728 37.895 13.422 38.142 32.686.236 18.389-9.829 31.803-26.893 35.841-16.02 3.792-31.8-4.429-39.496-20.758-1.195-2.536-2.534-3.769-5.51-4.01-20.912-1.697-32.625-12.034-35.38-33.173-2.351-18.045-15.565-19.76-28.5-17.751-2.07.32-2.452 2.008-3.135 3.497-6.366 13.896-17.115 21.733-32.46 21.588-15.306-.144-26.08-8.016-32.115-22.081-.932-2.171-2.252-3.414-4.36-3.423a172 172 0 0 0-13.458.497c-2.778.207-2.86 2.946-3.737 4.806-6.546 13.872-20.626 21.815-35.873 20.175-14.028-1.51-26.387-12.657-29.654-26.747-4.012-17.305 5.84-34.999 22.59-40.572 17.293-5.753 35.846 2.09 42.874 18.637 1.751 4.124 3.822 5.853 8.084 5.21.813-.123 1.675-.1 2.494.01 6.196.827 9.983-.913 13.029-7.319 6.053-12.73 17.443-18.797 31.328-18.373 13.868.423 24.553 7.24 30.338 20.132 1.979 4.41 4.334 6.224 8.938 5.581 1.47-.205 2.995-.014 4.494-.029 10.673-.104 17.232-5.637 18.659-16.265 1.391-10.361 4.366-19.817 12.817-26.748 6.117-5.018 12.948-8.042 20.996-8.023 11.663.027 23.328-.12 34.99.014 3.423.04 5.472-.84 6.763-4.33 2.748-7.432 7.795-13.1 15.06-17.206m-12.3 148.502c9.454-3.981 13.841-12.513 10.811-21.028-3.027-8.51-11.893-13.08-20.397-10.513-8.186 2.47-13.314 10.968-11.457 18.984 2.241 9.677 10.077 14.586 21.042 12.557m19.607-131.613c-7.04 5.674-8.775 15.052-4.125 22.29 4.392 6.838 13.435 9.508 20.621 6.088 8.604-4.094 12.196-14.032 8.05-22.272-4.463-8.866-14.263-11.534-24.546-6.106M220.35 261.83c3.036-3.543 4.835-7.567 4.306-12.307-.759-6.8-4.023-11.854-10.662-14.28-6.353-2.322-13.918-.757-17.827 4.065-4.314 5.321-6.214 11.14-2.978 17.959 4.998 10.53 16.681 12.858 27.161 4.563m-80.99-11.264c-.23-1.31-.378-2.641-.704-3.927-1.967-7.764-8.559-12.686-16.544-12.402-7.702.274-14.33 5.772-15.67 12.998-1.44 7.77 2.434 15.296 9.66 18.402 9.896 4.252 21.744-1.427 23.258-15.071"
    fill="rgba(30, 30, 30, 1)"
  />
</svg>
