<svg xmlns="http://www.w3.org/2000/svg" fill="#1E1E1E" viewBox="0 0 400 400" class="size-8"><rect width="400" height="400" rx="4" ry="4" fill="#d5d5d5"></rect><g transform="translate(200, 200) scale(1) translate(-200, -200)"><path fill="#1E1E1E" opacity="1.000000" stroke="none" d="M267.289612,320.307465 C274.075500,308.604034 279.701141,296.456268 281.409760,282.575989 C271.747375,297.151215 260.123505,309.671844 245.414337,319.084991 C230.695160,328.504578 214.790405,334.505280 197.122818,335.639099 C211.970184,327.062012 224.888916,316.486298 235.688889,301.967438 C224.647675,305.030457 214.641251,307.806427 204.634827,310.582367 C204.347855,310.209412 204.060898,309.836426 203.773926,309.463470 C225.942322,292.030945 235.310776,269.641357 230.795166,241.737381 C222.954941,269.785980 206.020630,288.584595 177.013260,294.801392 C161.274338,298.174469 146.463226,294.813049 131.441528,286.721405 C135.011765,285.575378 137.434540,284.797638 138.657684,284.404999 C135.255661,277.738922 131.265015,271.427765 128.760269,264.573578 C126.407570,258.135498 127.204674,251.329956 131.662766,245.586777 C135.795364,240.262878 141.241760,237.938660 147.963226,239.421005 C152.691055,240.463669 154.026306,242.944046 152.588959,247.469101 C149.225876,258.056915 155.234711,266.642670 166.482910,266.928375 C168.106796,266.969635 170.368576,265.767731 171.303528,264.423553 C173.747803,260.909393 175.620529,256.997711 178.403381,252.025528 C178.661560,255.962616 178.852478,258.873871 179.043381,261.785156 C179.456421,262.092194 179.869461,262.399261 180.282486,262.706299 C182.851364,259.304321 185.722763,256.085663 187.920685,252.458878 C191.538727,246.488800 193.675339,245.853973 199.407852,250.041489 C200.833160,251.082657 202.100449,252.340149 204.298904,254.240234 C203.973907,251.528137 203.908203,249.780807 203.541992,248.098938 C194.033173,204.431198 152.092484,176.714310 108.374504,185.337204 C106.378487,185.730911 104.437950,187.444168 102.923851,188.986755 C100.914436,191.033905 99.350403,193.518204 97.594986,195.814667 C97.200119,195.655991 96.805244,195.497299 96.410378,195.338608 C96.410378,192.291077 96.410378,189.243546 96.410378,186.196014 C96.048965,186.016098 95.687553,185.836182 95.326141,185.656265 C93.800812,187.353271 92.275475,189.050278 90.767685,190.727768 C90.268768,190.416504 89.777901,190.240906 89.787041,190.097076 C90.115402,184.931427 87.031982,182.606735 83.254196,179.411011 C76.751190,173.909927 71.983040,166.368668 66.694717,159.615784 C61.768707,153.325546 69.774231,139.742081 79.128716,138.300308 C94.441010,135.940277 106.128586,128.365891 116.603668,117.277863 C130.403946,102.670044 148.867111,98.790352 168.102783,97.833855 C187.173080,96.885559 205.639633,99.679298 223.284058,107.230545 C224.922699,107.931831 226.643265,108.441689 228.878113,109.236992 C228.640900,107.317940 228.506119,106.044052 228.323120,104.777130 C227.293365,97.647751 229.705246,91.710083 235.595612,87.858177 C241.977493,83.684830 247.441299,79.214500 247.682281,70.857689 C266.973785,76.637901 279.503021,94.605370 280.421753,112.958084 C281.625641,137.007416 267.717102,153.760605 238.529465,162.892807 C247.953705,168.206345 267.306305,164.544174 278.200287,156.660049 C290.195099,147.979233 296.923279,136.198624 298.937531,120.375092 C319.053925,143.456650 331.314362,168.947433 335.378113,198.178329 C339.549622,228.184631 332.560089,255.632523 315.148407,281.223541 C314.464813,271.094910 313.827362,261.649536 313.189880,252.204147 C312.630951,252.080414 312.071991,251.956680 311.513062,251.832947 C305.483063,280.069458 291.982178,303.572601 268.220123,320.808319 C267.559418,320.575165 267.424530,320.441315 267.289612,320.307465z"/><path fill="#1E1E1E" opacity="1.000000" stroke="none" d="M226.265472,83.891510 C228.153183,77.056732 225.425461,71.931602 221.340164,67.288025 C227.412552,63.277664 238.178818,69.989120 239.525146,75.834778 C239.890305,77.420357 238.672653,79.873436 237.421066,81.223305 C234.845917,84.000702 231.119217,85.868202 229.048248,88.913788 C226.667160,92.415474 225.564301,96.786354 223.960693,100.648613 C220.797867,95.011826 223.686829,89.665955 226.265472,83.891510z"/><path fill="#1E1E1E" opacity="1.000000" stroke="none" d="M267.895905,320.910522 C267.630798,321.302704 267.164093,321.493378 266.697388,321.684021 C266.773560,321.341553 266.849701,320.999084 267.107727,320.482056 C267.424530,320.441315 267.559418,320.575165 267.895905,320.910522z"/></g></svg>