<svg width="61" height="37" viewBox="0 0 61 37" fill="none" xmlns="http://www.w3.org/2000/svg">
<path d="M40.3482 0.00140637C40.2904 0.000701572 40.2335 0.0152543 40.1832 0.0435939C40.1309 0.0742922 40.0873 0.117829 40.0565 0.170081C40.0258 0.222333 40.0088 0.281571 40.0074 0.342187V9.21563C40.0065 9.25927 39.9948 9.30202 39.9733 9.33999C39.9518 9.37797 39.9211 9.40998 39.8841 9.43312C39.8466 9.45323 39.8048 9.46375 39.7622 9.46375C39.7197 9.46375 39.6778 9.45323 39.6403 9.43312L38.2032 8.60203C38.0976 8.54168 37.9781 8.50994 37.8565 8.50994C37.7349 8.50994 37.6154 8.54168 37.5099 8.60203L31.7583 11.9466C31.6517 12.0065 31.5629 12.0936 31.5009 12.199C31.4388 12.3044 31.4057 12.4243 31.4049 12.5466V19.2216C31.4049 19.4667 31.5413 19.6997 31.7583 19.8225L37.5099 23.167C37.6153 23.2272 37.7346 23.2589 37.8561 23.2589C37.9775 23.2589 38.0968 23.2272 38.2022 23.167L43.9538 19.8225C44.1708 19.6997 44.3072 19.4667 44.3072 19.2211V2.58047C44.3072 2.32125 44.1713 2.08828 43.9538 1.96641L40.5225 0.0421876C40.4683 0.014824 40.4084 0.00038472 40.3477 0L40.3482 0.00140637ZM6.41535 8.33109C6.30753 8.33109 6.19972 8.37188 6.10503 8.42531L0.35347 11.7567C0.245147 11.8182 0.155253 11.9076 0.0931075 12.0156C0.0309618 12.1236 -0.00117357 12.2462 3.27542e-05 12.3708L0.0140953 21.3239C0.0140953 21.4467 0.0806578 21.57 0.189408 21.6248C0.239872 21.658 0.298941 21.6757 0.35933 21.6757C0.419718 21.6757 0.478787 21.658 0.529252 21.6248L3.94878 19.6594C4.05507 19.5991 4.14356 19.5118 4.20529 19.4064C4.26702 19.301 4.29981 19.1811 4.30035 19.0589V14.8683C4.30035 14.6231 4.43628 14.3902 4.65378 14.2673L6.10503 13.4213C6.21117 13.3568 6.3334 13.3238 6.45753 13.3261C6.57941 13.3261 6.70175 13.3528 6.79691 13.4213L8.24816 14.2673C8.46519 14.3902 8.60159 14.6231 8.60159 14.8687V19.0589C8.60159 19.3036 8.7366 19.537 8.95316 19.6589L12.345 21.6248C12.3977 21.6584 12.4588 21.6762 12.5213 21.6762C12.5837 21.6762 12.6449 21.6584 12.6975 21.6248C12.7517 21.5955 12.7968 21.5519 12.8279 21.4988C12.8591 21.4457 12.8751 21.385 12.8743 21.3234V12.3703C12.8743 12.1247 12.7383 11.8922 12.5208 11.7689L6.78331 8.42531C6.68666 8.37402 6.58094 8.34202 6.47206 8.33109H6.41535ZM53.6185 8.42813V8.42906L53.6175 8.43C53.4965 8.43057 53.3777 8.46238 53.2725 8.52234L47.521 11.865C47.3039 11.9888 47.1694 12.2203 47.1694 12.4664V19.1414C47.1694 19.387 47.3039 19.6195 47.521 19.7419L53.2303 23.0175C53.3332 23.0778 53.4503 23.1096 53.5695 23.1096C53.6887 23.1096 53.8058 23.0778 53.9086 23.0175L57.368 21.0802C57.422 21.0508 57.4669 21.0073 57.498 20.9542C57.5291 20.9012 57.5451 20.8407 57.5443 20.7792C57.545 20.7179 57.5291 20.6575 57.4981 20.6046C57.4671 20.5516 57.4223 20.5081 57.3685 20.4788L51.5888 17.1342C51.5359 17.1031 51.4919 17.059 51.4611 17.0059C51.4303 16.9528 51.4138 16.8927 51.413 16.8314V14.7431C51.4126 14.6821 51.4287 14.6221 51.4596 14.5695C51.4906 14.517 51.5352 14.4738 51.5888 14.4445L53.3958 13.4072C53.4485 13.3736 53.5096 13.3558 53.5721 13.3558C53.6345 13.3558 53.6956 13.3736 53.7483 13.4072L55.5502 14.4445C55.6027 14.4751 55.6464 14.5186 55.6774 14.5709C55.7083 14.6231 55.7253 14.6824 55.7269 14.7431V16.3809C55.7269 16.5042 55.7944 16.6266 55.9027 16.6809C55.9555 16.7147 56.0168 16.7326 56.0794 16.7326C56.142 16.7326 56.2034 16.7147 56.2561 16.6809L59.6733 14.6752C59.7784 14.6145 59.8654 14.527 59.9255 14.4217C59.9857 14.3163 60.0167 14.1969 60.0155 14.0756V12.4514C60.0155 12.2058 59.8777 11.9733 59.6733 11.85L53.9639 8.52188C53.8584 8.46095 53.7389 8.42848 53.6171 8.42766L53.6185 8.42813ZM22.1232 8.53781C22.043 8.55187 21.9638 8.57813 21.8916 8.62031L16.3275 11.8514L22.4916 23.2233C22.5247 23.2105 22.5568 23.1953 22.5877 23.1778L28.3346 19.8398C28.4166 19.792 28.4864 19.7288 28.5413 19.6547L22.1241 8.53594L22.1232 8.53781ZM22.7246 8.70188L26.5341 15.3066L28.3411 11.9639L28.3313 11.9573L22.725 8.70422L22.7246 8.70188ZM15.9652 12.1087C15.8584 12.235 15.7994 12.3948 15.7988 12.5602V19.2352C15.7994 19.3177 15.8136 19.3967 15.8414 19.4723L17.9625 15.7936L15.9647 12.1069L15.9652 12.1087ZM28.6402 12.3347L26.7919 15.7505L28.6786 19.0209V12.5616C28.678 12.4834 28.6652 12.4084 28.6402 12.3366V12.3347ZM37.8699 13.4142C37.9008 13.4142 37.9305 13.4213 37.9589 13.4353L39.9239 14.5823C39.9783 14.6095 40.0064 14.677 40.0064 14.7319V17.0255C40.0064 17.0939 39.9783 17.1492 39.9239 17.1764L37.9575 18.3225C37.93 18.3359 37.8998 18.3429 37.8692 18.3429C37.8386 18.3429 37.8083 18.3359 37.7808 18.3225L35.8144 17.1773C35.76 17.1502 35.7324 17.0812 35.7324 17.0264V14.7328C35.7324 14.6644 35.7605 14.61 35.8144 14.5828L37.7808 13.4353C37.8083 13.421 37.8389 13.4138 37.8699 13.4142ZM53.5964 14.3423C53.5723 14.3426 53.5489 14.3499 53.5289 14.3634L52.4293 15.0056C52.4085 15.0184 52.3914 15.0363 52.3796 15.0577C52.3679 15.0791 52.3619 15.1031 52.3622 15.1275V16.4119C52.3618 16.4362 52.3677 16.4602 52.3794 16.4816C52.3911 16.503 52.4081 16.5209 52.4288 16.5338L53.5289 17.1759C53.549 17.1893 53.5726 17.1965 53.5967 17.1965C53.6208 17.1965 53.6444 17.1893 53.6644 17.1759L54.7632 16.5338C54.7837 16.5207 54.8007 16.5027 54.8125 16.4814C54.8243 16.4601 54.8305 16.4362 54.8307 16.4119V15.128C54.831 15.1035 54.8249 15.0795 54.8131 15.0581C54.8012 15.0367 54.784 15.0188 54.7632 15.0061L53.6644 14.3639C53.6443 14.3504 53.6206 14.3433 53.5964 14.3433V14.3423ZM18.2058 16.2483L16.1368 19.8361L16.1433 19.8408L21.8855 23.1788C21.9177 23.1972 21.951 23.2128 21.9853 23.2256L18.2044 16.2506L18.2058 16.2483ZM29.648 22.0233C29.4478 22.0233 29.2482 22.0706 29.0785 22.1663L23.6644 25.3209C23.4908 25.4228 23.3469 25.5684 23.247 25.7431C23.147 25.9179 23.0946 26.1157 23.0949 26.317V32.6077C23.0949 33.0173 23.3119 33.3998 23.6644 33.6047L25.0899 34.4231C25.7813 34.7644 26.025 34.762 26.3368 34.762C27.3539 34.762 27.938 34.1353 27.938 33.0572V26.8509C27.9375 26.8078 27.9204 26.7665 27.8901 26.7358C27.8599 26.705 27.8189 26.6871 27.7758 26.6859H27.0844C27.0409 26.6865 26.9993 26.7041 26.9686 26.735C26.9378 26.7658 26.9204 26.8074 26.9199 26.8509V33.0619C26.9199 33.5395 26.4202 34.0177 25.62 33.6084L24.1407 32.7488C24.0863 32.7216 24.0591 32.6517 24.0591 32.5973V26.302C24.0591 26.2477 24.0863 26.1788 24.1407 26.152L29.55 23.0138C29.5908 22.9866 29.6583 22.9866 29.7141 23.0138L35.1235 26.152C35.1769 26.1802 35.2055 26.2345 35.2055 26.302V32.5927C35.2055 32.6606 35.1774 32.7169 35.123 32.7441L29.7089 35.8973C29.6682 35.9245 29.6007 35.9245 29.5449 35.8973L28.163 35.0644C28.1218 35.0372 28.0669 35.0241 28.0266 35.0503C27.6469 35.2697 27.5799 35.2978 27.2138 35.4206C27.1322 35.4478 26.9968 35.5013 27.2677 35.6512L29.0733 36.7308C29.2496 36.8259 29.4389 36.8798 29.6428 36.8798C29.8463 36.8798 30.0488 36.8259 30.2114 36.758L35.6255 33.6047C35.7994 33.5027 35.9435 33.3568 36.0434 33.1817C36.1434 33.0066 36.1956 32.8083 36.195 32.6067V26.3161C36.195 25.9064 35.978 25.5258 35.6255 25.3209L30.2114 22.1663C30.037 22.0714 29.8414 22.0223 29.6428 22.0238V22.0228L29.648 22.0233ZM38.0996 24.8967C37.8218 24.8978 37.5557 25.0092 37.36 25.2064C37.1643 25.4035 37.0548 25.6703 37.0557 25.9481C37.0549 26.2259 37.1644 26.4925 37.3602 26.6896C37.5559 26.8866 37.8218 26.9979 38.0996 26.9991C38.67 26.9991 39.1449 26.5209 39.1449 25.9481C39.1434 25.6708 39.033 25.4052 38.8374 25.2086C38.6419 25.012 38.3769 24.9001 38.0996 24.8972V24.8967ZM38.0855 25.073H38.0869C38.2026 25.0715 38.3174 25.0931 38.4246 25.1365C38.5319 25.1799 38.6294 25.2442 38.7116 25.3256C38.7937 25.4071 38.8588 25.5041 38.9031 25.611C38.9474 25.7178 38.97 25.8324 38.9696 25.9481C38.9696 26.4263 38.5753 26.8345 38.0869 26.8345C37.6125 26.8345 37.2178 26.4398 37.2178 25.9486C37.2178 25.4573 37.6257 25.0739 38.086 25.073M37.7063 25.3608V26.5608H37.9378V26.0859H38.1432C38.2247 26.0859 38.251 26.1131 38.265 26.1811C38.265 26.1952 38.3053 26.4947 38.3053 26.5491H38.5486C38.5205 26.4947 38.5083 26.3297 38.4947 26.2341C38.4816 26.0841 38.4685 25.9758 38.3053 25.9622C38.3869 25.9345 38.521 25.8942 38.521 25.6758C38.521 25.3617 38.2491 25.3617 38.1136 25.3617L37.7063 25.3608ZM37.9116 25.552H38.1C38.1685 25.552 38.2777 25.552 38.2777 25.7161C38.2777 25.77 38.25 25.8802 38.1 25.8802H37.9116V25.552ZM31.1288 26.4942C29.5819 26.4942 28.658 27.15 28.658 28.2558C28.658 29.4436 29.5805 29.7694 31.0594 29.9194C32.836 30.0975 32.9719 30.3572 32.9719 30.7116C32.9719 31.3256 32.4835 31.5844 31.3439 31.5844C29.9058 31.5844 29.5932 31.2295 29.4844 30.5063C29.4844 30.4242 29.4188 30.3703 29.3368 30.3703H28.6318C28.6101 30.3703 28.5887 30.3745 28.5687 30.3827C28.5487 30.391 28.5306 30.4031 28.5153 30.4184C28.5 30.4337 28.4879 30.4518 28.4796 30.4718C28.4714 30.4918 28.4672 30.5132 28.4672 30.5348C28.4672 31.463 28.9571 32.5542 31.3313 32.5542C33.0403 32.5542 34.0289 31.8717 34.0289 30.6698C34.0289 29.4966 33.2414 29.1816 31.5736 28.9631C29.8908 28.7447 29.715 28.6214 29.715 28.2263C29.715 27.8981 29.865 27.4622 31.1119 27.4622C32.2252 27.4622 32.6461 27.7083 32.8088 28.4588C32.8166 28.4926 32.8353 28.5229 32.8619 28.5452C32.8886 28.5674 32.9218 28.5804 32.9564 28.582H33.676C33.7168 28.582 33.7589 28.5553 33.7866 28.5281C33.8114 28.4915 33.8254 28.4486 33.8269 28.4044C33.7191 27.0942 32.8646 26.4938 31.1278 26.4938L31.1288 26.4942Z" fill="#D5D5D5"/>
</svg>
