<?xml version="1.0" encoding="utf-8"?>
<!-- Generator: Adobe Adobe Illustrator 29.2.0, SVG Export Plug-In . SVG Version: 6.00 Build 0)  -->
<svg version="1.1" id="Layer_1" xmlns="http://www.w3.org/2000/svg" xmlns:xlink="http://www.w3.org/1999/xlink" x="0px" y="0px"
	 viewBox="0 0 2014 2009" style="enable-background:new 0 0 2014 2009;" xml:space="preserve">
<style type="text/css">
	.st0{fill:#D5D5D5;}
	.st1{fill:#C8C8C8;}
	.st2{fill:#1E1E1E;}
</style>
<path class="st0" d="M2014,1004.5c0,554.6-450.9,1004.2-1007,1004.2c-174.4,0-338.4-44.2-481.4-122C212.5,1716.4,0,1385.2,0,1004.5
	C0,449.9,450.8,0.3,1007,0.3C1563.1,0.3,2014,449.9,2014,1004.5z"/>
<path class="st1" d="M1408.7,1290.2c-106.6,109.5-235.9,164.3-388,164.3c-92.8,0-179-15.7-259.9-61.2l-1,583l-7.7-2.1l-4.7-1.2
	l-5.6-3l-2.6-4.8l-2.4-5.4l2.7-3.4l-266.7-317l0.1-749.4c0-156.1,53.3-288.8,159.9-397.9c106.6-109.1,235.9-163.7,388-163.7
	c152.1,0,281.4,54.7,388,164.3c106.6,109.5,159.9,242.4,159.9,398.6C1568.6,1047.9,1515.3,1180.8,1408.7,1290.2z M1205.3,701.8
	c-50.6-52-112.1-78-184.6-78c-72.5,0-134,26-184.6,78c-50.6,52-75.9,115.3-75.9,189.8c0,74.5,25.3,137.8,75.9,189.8
	c50.6,52,112.1,78.1,184.6,78.1c72.4,0,133.9-26,184.6-78.1c50.6-52,75.9-115.3,75.9-189.8C1281.2,817.1,1255.9,753.9,1205.3,701.8z
	"/>
<path class="st2" d="M1387.7,1269.6c-106.6,109.5-235.9,164.3-388,164.3c-92.8,0-179.6-22.8-260.5-68.3l-0.1,607.6
	c0,0-19.7-5.4-45.3-13.7c-6.3-2-12.7-4.2-19.4-6.6c-3.2-1.1-4.7-1.8-8-2.7c-8.4-2.4-19-7-27.2-10.2c-27.5-10.7-49.8-20.8-50.3-21.1
	c-0.5-0.3-79.2-37.7-88.1-43.2c-7.9-5-15-8.8-21.1-13.2c-1.9-1.4-3.4-2.4-5.2-3.6c-14.4-9.9-22.5-15.6-22.5-15.6l-0.2-973.9
	c0-156.2,53.3-288.8,159.9-398c106.6-109.2,235.9-163.7,388-163.7c152.1,0,281.4,54.8,388,164.3
	c106.6,109.5,159.9,242.5,159.9,398.8C1547.6,1027.1,1494.3,1160,1387.7,1269.6z M1184.3,681c-50.6-52.1-112.1-78.1-184.6-78.1
	c-72.5,0-134,26-184.6,78.1c-50.6,52.1-75.9,115.3-75.9,189.9c0,74.5,25.3,137.8,75.9,189.8c50.6,52.1,112.1,78.1,184.6,78.1
	c72.4,0,134-26,184.6-78.1c50.6-52,75.9-115.3,75.9-189.8C1260.2,796.3,1234.9,733,1184.3,681z"/>
</svg>
