<svg width="32" height="36" viewBox="0 0 32 36" fill="none" xmlns="http://www.w3.org/2000/svg">
<path d="M0.602395 0.158379C0.785237 0.0537868 0.99239 -0.000832966 1.20303 9.60246e-06C1.41367 0.000852171 1.62038 0.0571274 1.80238 0.163179L20.6254 11.1431L14.8007 16.3846L4.06292e-07 3.06475V1.19997C-0.000173429 0.98869 0.0554384 0.781111 0.161214 0.598216C0.266989 0.415321 0.419178 0.263596 0.602395 0.158379ZM4.06292e-07 6.29512V29.7045L13.0079 17.9998L4.06292e-07 6.29512ZM4.06292e-07 32.9349V34.7997C-6.21706e-05 35.0108 0.055587 35.2182 0.161329 35.401C0.267071 35.5837 0.419162 35.7354 0.602245 35.8405C0.785328 35.9457 0.992921 36.0007 1.20406 36C1.4152 35.9993 1.62242 35.9429 1.80478 35.8364L20.6254 24.8566L14.8007 19.615L4.06292e-07 32.9349ZM22.8022 23.587L30.6021 19.0366C30.7834 18.931 30.9338 18.7796 31.0384 18.5977C31.1429 18.4158 31.1979 18.2096 31.1979 17.9998C31.1979 17.79 31.1429 17.5838 31.0384 17.4019C30.9338 17.22 30.7834 17.0687 30.6021 16.963L22.8022 12.4127L16.5934 17.9998L22.8022 23.587Z" fill="#D5D5D5"/>
</svg>
