<svg width="40" height="44" viewBox="0 0 40 44" fill="none" xmlns="http://www.w3.org/2000/svg">
<path d="M17.5976 18.5636C16.9247 18.9522 16.3821 19.5316 16.0384 20.2285C15.6947 20.9255 15.5654 21.7087 15.6668 22.4791C15.7683 23.2495 16.0959 23.9726 16.6082 24.5568C17.1205 25.1411 17.7946 25.5603 18.5452 25.7615C19.2958 25.9627 20.0891 25.9368 20.825 25.6871C21.5609 25.4374 22.2062 24.9751 22.6793 24.3587C23.1525 23.7422 23.4322 22.9994 23.4832 22.224C23.5341 21.4486 23.354 20.6755 22.9656 20.0024C22.7077 19.5554 22.3642 19.1636 21.9548 18.8494C21.5454 18.5352 21.0782 18.3046 20.5797 18.171C20.0812 18.0374 19.5613 18.0033 19.0496 18.0707C18.5379 18.138 18.0446 18.3055 17.5976 18.5636ZM35.2086 22.8272C34.9505 22.5324 34.6784 22.2369 34.3924 21.9406C34.5919 21.7294 34.7855 21.5189 34.9732 21.3092C38.5042 17.3404 39.9958 13.3584 38.6142 10.967C37.2898 8.6724 33.3496 7.9882 28.415 8.9474C27.9296 9.04273 27.4463 9.1498 26.9652 9.2686C26.8728 8.9518 26.7753 8.63647 26.6726 8.3226C24.9984 3.278 22.2946 -0.00219889 19.5314 1.10596e-06C16.8826 1.10596e-06 14.3218 3.0734 12.6872 7.8276C12.5259 8.29694 12.377 8.7692 12.2406 9.2444C11.9194 9.1652 11.5968 9.09187 11.2726 9.0244C6.06744 7.9574 1.87644 8.6614 0.497036 11.0572C-0.825164 13.3518 0.556436 17.1072 3.85864 20.8956C4.18717 21.2696 4.5245 21.6363 4.87064 21.9956C4.46144 22.4151 4.07644 22.8338 3.71564 23.2518C0.492637 26.9874 -0.809764 30.679 0.510236 32.9648C1.87424 35.3276 6.00584 36.0998 11.0372 35.1098C11.445 35.0291 11.8505 34.9382 12.2538 34.837C12.4005 35.3518 12.5626 35.8629 12.74 36.3704C14.368 41.0278 16.9134 44 19.5534 44C22.2814 44 25.0138 40.8034 26.6704 35.9502C26.801 35.5659 26.9249 35.1692 27.0422 34.76C27.5629 34.8891 28.0872 35.0035 28.6152 35.1032C33.4618 36.0206 37.3096 35.3012 38.6274 33.0132C39.9892 30.6482 38.5834 26.6838 35.2086 22.8272ZM2.12504 11.9944C2.97424 10.5204 6.39964 9.944 10.8942 10.868C11.1817 10.9267 11.4743 10.9927 11.772 11.066C11.3329 13.0072 11.0228 14.9754 10.8436 16.9576C9.22321 18.0979 7.67782 19.3413 6.21704 20.68C5.89584 20.3471 5.5827 20.0061 5.27764 19.657C2.44624 16.4142 1.32864 13.3782 2.12504 11.9944ZM10.6764 24.596C9.55444 23.7446 8.50944 22.8734 7.56124 21.9978C8.50724 21.1266 9.55224 20.2598 10.6742 19.4106C10.6332 20.2745 10.6134 21.1391 10.6148 22.0044C10.6148 22.8697 10.6354 23.7336 10.6764 24.596ZM10.6764 33.264C8.76976 33.6905 6.80062 33.7607 4.86844 33.4708C4.33883 33.4289 3.8234 33.279 3.35387 33.0304C2.88434 32.7819 2.47065 32.4398 2.13824 32.0254C1.33524 30.6394 2.38244 27.6738 5.13904 24.4794C5.48517 24.079 5.84304 23.6889 6.21264 23.309C7.67367 24.6564 9.22218 25.9058 10.848 27.049C11.03 29.0561 11.343 31.0492 11.7852 33.0154C11.4186 33.1078 11.0482 33.1914 10.6742 33.2662M26.2942 15.5804C25.5565 15.1155 24.81 14.6659 24.0546 14.2318C23.3096 13.8035 22.5564 13.3907 21.7952 12.9932C23.047 12.4656 24.3238 11.9994 25.621 11.5962C25.9131 12.9119 26.1378 14.2417 26.2942 15.5804ZM14.467 8.437C15.8662 4.367 17.9386 1.881 19.5358 1.881C21.2364 1.8788 23.4452 4.5606 24.8906 8.9144C24.9845 9.19893 25.0725 9.48493 25.1546 9.7724C23.2573 10.3606 21.4008 11.0735 19.5974 11.9064C17.8002 11.0627 15.948 10.3417 14.0534 9.7482C14.181 9.3082 14.3189 8.87113 14.467 8.437ZM13.587 11.5698C14.879 11.9752 16.1494 12.4466 17.393 12.9822C15.8501 13.7771 14.3482 14.6432 12.8874 15.5804C13.0634 14.1768 13.2988 12.8326 13.587 11.5698ZM12.8896 28.4218C13.6186 28.8897 14.3585 29.3392 15.1094 29.7704C15.875 30.2104 16.6502 30.6328 17.4348 31.0376C16.1821 31.5913 14.9014 32.0796 13.598 32.5006C13.2948 31.1543 13.0583 29.7937 12.8896 28.424M24.8928 35.3452C24.3092 37.2094 23.3858 38.9495 22.1692 40.4778C21.8689 40.9158 21.482 41.2878 21.0326 41.5708C20.5831 41.8538 20.0805 42.0419 19.5556 42.1234C17.9518 42.1234 15.908 39.7364 14.5176 35.7522C14.3534 35.2814 14.2023 34.8062 14.0644 34.3266C15.9681 33.7133 17.8278 32.9709 19.6304 32.1046C21.4496 32.9433 23.3213 33.6627 25.2338 34.2584C25.1282 34.6236 25.0146 34.9859 24.8928 35.3452ZM25.6892 32.4324C24.3745 32.0228 23.0808 31.5485 21.8128 31.0112C22.5594 30.6196 23.311 30.2053 24.0678 29.7682C24.8452 29.3194 25.602 28.8596 26.3382 28.3888C26.1918 29.747 25.9752 31.0966 25.6892 32.4324ZM26.6726 21.9978C26.6726 23.3339 26.6308 24.6686 26.5472 26.0018C25.4604 26.7381 24.3208 27.4509 23.1284 28.1402C21.9404 28.8251 20.7693 29.4529 19.615 30.0234C18.4021 29.4426 17.2126 28.8163 16.0466 28.1446C14.888 27.4773 13.7557 26.7667 12.6498 26.0128C12.5472 24.6781 12.4958 23.342 12.4958 22.0044C12.4958 20.6683 12.5457 19.3329 12.6454 17.9982C14.8562 16.4871 17.1788 15.1463 19.593 13.9876C20.7898 14.5699 21.9654 15.1939 23.1196 15.8598C24.2783 16.5257 25.415 17.2289 26.5296 17.9696C26.625 19.3101 26.6726 20.6529 26.6726 21.9978ZM28.7758 10.7932C33.0042 9.9726 36.1898 10.5248 36.9884 11.9086C37.8398 13.3826 36.621 16.6342 33.5696 20.0618C33.401 20.251 33.2264 20.4409 33.046 20.6316C31.5601 19.2878 29.9842 18.047 28.3292 16.918C28.1629 14.9577 27.8652 13.0107 27.4382 11.0902C27.8929 10.9787 28.3388 10.8797 28.7758 10.7932ZM28.4898 19.3402C29.6069 20.1547 30.6805 21.0271 31.7062 21.9538C30.6851 22.8953 29.6152 23.7824 28.5008 24.6114C28.5346 23.7402 28.5514 22.869 28.5514 21.9978C28.5514 21.1119 28.5309 20.2261 28.4898 19.3402ZM37.0016 32.076C36.2008 33.4642 33.112 34.0428 28.965 33.2596C28.4898 33.1701 28.0029 33.0631 27.5042 32.9384C27.9211 30.9931 28.2056 29.0218 28.3556 27.038C30.0072 25.8893 31.578 24.6287 33.057 23.265C33.3166 23.5334 33.563 23.8003 33.7962 24.0658C35.1199 25.5026 36.1664 27.1719 36.8828 28.9894C37.1121 29.4686 37.2409 29.9896 37.2614 30.5204C37.2818 31.0512 37.1934 31.5806 37.0016 32.076Z" fill="#D5D5D5"/>
</svg>
