<svg width="60" height="25" viewBox="0 0 60 25" fill="none" xmlns="http://www.w3.org/2000/svg">
<path d="M15.4594 1.94063L11.4 2.80313L11.3812 16.1531C11.3812 18.6188 13.2375 20.2125 15.7031 20.2125C17.0719 20.2125 18.075 19.9594 18.6281 19.6594V16.4906C18.0937 16.7063 15.4687 17.475 15.4687 15.0188V9.09375H18.6281V5.55H15.4687L15.4594 1.94063ZM23.8125 6.77813L23.5594 5.55H19.9594V19.9125H24.1125V10.2469C25.0969 8.95313 26.7562 9.20625 27.2906 9.375V5.55C26.7281 5.35313 24.7875 4.9875 23.8125 6.77813ZM32.4656 0L28.2844 0.890626V4.28438L32.4656 3.39375V0ZM4.2 9.77813C4.2 9.13125 4.74375 8.87813 5.61562 8.86875C6.88125 8.86875 8.49375 9.25313 9.75937 9.9375V6.01875C8.44245 5.50372 7.03899 5.24594 5.625 5.25938C2.25 5.25938 0 7.02188 0 9.96563C0 14.5781 6.32812 13.8281 6.32812 15.8156C6.32812 16.5844 5.6625 16.8375 4.73437 16.8375C3.35625 16.8375 1.575 16.2656 0.178125 15.5063V19.2563C1.725 19.9219 3.29062 20.2031 4.725 20.2031C8.18437 20.2031 10.5656 18.7219 10.5656 15.7219C10.5656 10.7625 4.2 11.6531 4.2 9.77813ZM59.9906 12.9C59.9906 8.63438 57.9281 5.26875 53.9719 5.26875C50.0156 5.26875 47.6063 8.63438 47.6063 12.8719C47.6063 17.8875 50.4469 20.2031 54.4969 20.2031C56.4844 20.2031 57.975 19.7531 59.1094 19.125V15.9938C57.975 16.5656 56.6719 16.9125 55.0219 16.9125C53.4 16.9125 51.975 16.3406 51.7875 14.3906H59.9344C59.9531 14.175 59.9906 13.3031 59.9906 12.9ZM51.75 11.325C51.75 9.45 52.9031 8.6625 53.9437 8.6625C54.9656 8.6625 56.0531 9.45 56.0531 11.325H51.75ZM41.1656 5.26875C39.5344 5.26875 38.4844 6.0375 37.9031 6.57188L37.6875 5.54063H34.0219V24.7406L38.1844 23.8594L38.1937 19.1531C38.7938 19.5938 39.6844 20.2031 41.1375 20.2031C44.1187 20.2031 46.8375 18.0281 46.8375 12.7406C46.8469 7.90313 44.0906 5.26875 41.1656 5.26875ZM40.1719 16.7531C39.1969 16.7531 38.6156 16.3969 38.2125 15.9656L38.1844 9.77813C38.6156 9.3 39.2156 8.95313 40.1719 8.95313C41.6906 8.95313 42.7406 10.6594 42.7406 12.8344C42.75 15.075 41.7188 16.7531 40.1719 16.7531ZM28.2937 19.9125H32.475V5.55H28.2937V19.9125Z" fill="#D5D5D5"/>
</svg>
