<svg width="40" height="40" viewBox="0 0 40 40" fill="none" xmlns="http://www.w3.org/2000/svg">
<path d="M18.333 14.9998C18.333 15.8839 17.9819 16.7317 17.3567 17.3569C16.7316 17.982 15.8838 18.3332 14.9997 18.3332C14.1157 18.3332 13.2678 17.982 12.6427 17.3569C12.0176 16.7317 11.6664 15.8839 11.6664 14.9998C11.6664 14.1158 12.0176 13.2679 12.6427 12.6428C13.2678 12.0177 14.1157 11.6665 14.9997 11.6665C15.8838 11.6665 16.7316 12.0177 17.3567 12.6428C17.9819 13.2679 18.333 14.1158 18.333 14.9998ZM28.333 14.9998C28.333 15.8839 27.9819 16.7317 27.3567 17.3569C26.7316 17.982 25.8838 18.3332 24.9997 18.3332C24.1157 18.3332 23.2678 17.982 22.6427 17.3569C22.0176 16.7317 21.6664 15.8839 21.6664 14.9998C21.6664 14.1158 22.0176 13.2679 22.6427 12.6428C23.2678 12.0177 24.1157 11.6665 24.9997 11.6665C25.8838 11.6665 26.7316 12.0177 27.3567 12.6428C27.9819 13.2679 28.333 14.1158 28.333 14.9998ZM24.9997 28.3332C25.8838 28.3332 26.7316 27.982 27.3567 27.3569C27.9819 26.7317 28.333 25.8839 28.333 24.9998C28.333 24.1158 27.9819 23.2679 27.3567 22.6428C26.7316 22.0177 25.8838 21.6665 24.9997 21.6665C24.1157 21.6665 23.2678 22.0177 22.6427 22.6428C22.0176 23.2679 21.6664 24.1158 21.6664 24.9998C21.6664 25.8839 22.0176 26.7317 22.6427 27.3569C23.2678 27.982 24.1157 28.3332 24.9997 28.3332ZM18.333 24.9998C18.333 25.8839 17.9819 26.7317 17.3567 27.3569C16.7316 27.982 15.8838 28.3332 14.9997 28.3332C14.1157 28.3332 13.2678 27.982 12.6427 27.3569C12.0176 26.7317 11.6664 25.8839 11.6664 24.9998C11.6664 24.1158 12.0176 23.2679 12.6427 22.6428C13.2678 22.0177 14.1157 21.6665 14.9997 21.6665C15.8838 21.6665 16.7316 22.0177 17.3567 22.6428C17.9819 23.2679 18.333 24.1158 18.333 24.9998Z" fill="#D5D5D5"/>
<path fill-rule="evenodd" clip-rule="evenodd" d="M40 20C40 31.045 31.045 40 20 40C8.955 40 0 31.045 0 20C0 8.955 8.955 0 20 0C31.045 0 40 8.955 40 20ZM35 20C35 21.9698 34.612 23.9204 33.8582 25.7403C33.1044 27.5601 31.9995 29.2137 30.6066 30.6066C29.2137 31.9995 27.5601 33.1044 25.7403 33.8582C23.9204 34.612 21.9698 35 20 35C18.0302 35 16.0796 34.612 14.2597 33.8582C12.4399 33.1044 10.7863 31.9995 9.3934 30.6066C8.00052 29.2137 6.89563 27.5601 6.14181 25.7403C5.38799 23.9204 5 21.9698 5 20C5 16.0218 6.58035 12.2064 9.3934 9.3934C12.2064 6.58035 16.0218 5 20 5C23.9782 5 27.7936 6.58035 30.6066 9.3934C33.4196 12.2064 35 16.0218 35 20Z" fill="#D5D5D5"/>
</svg>
