<?xml version="1.0" encoding="UTF-8"?>
<svg id="Layer_1" data-name="Layer 1" xmlns="http://www.w3.org/2000/svg" viewBox="0 0 400 400">
  <defs>
    <style>
      .cls-1 {
        fill: #1e1e1e;
      }

      .cls-2 {
        fill: #d5d5d5;
      }
    </style>
  </defs>
  <rect class="cls-2" width="400" height="400"/>
  <path class="cls-1" d="M272.76,121.26c11.91-1.56,23.25,3.94,29.47,14.01l50.55,103.45c6.56,19.16-6.06,38.56-26.24,40.31-32.13,2.78-68.35-2.05-100.91-.16-19.09-2.02-32.49-21.82-25.4-40.16l51.58-104.42c4.43-6.71,12.95-11.99,20.95-13.04Z"/>
  <path class="cls-1" d="M96.64,129.36c1.16,1.1,3.63,4.47,4.56,5.95,8.49,13.5,13.73,31.01,22.3,44.68l23.66-46.32c13-17.83,41.14-16.55,51.22,3.45,6.19,12.28,3.75,18.85-1.21,30.56-14.08,33.3-34.63,66.99-50.2,99.8-13.13,16.13-36.11,14.9-48.41-1.54l-50.43-102.57c-12.89-30.31,24.75-56.63,48.51-34.01Z"/>
</svg>