<svg width="55" height="22" viewBox="0 0 55 22" fill="none" xmlns="http://www.w3.org/2000/svg">
<path d="M33.8061 0.0171726C33.8061 1.13694 33.9848 2.82647 31.3414 3.78381C30.5233 4.0803 29.9707 4.61397 29.9707 4.61397C29.9707 1.94991 30.3763 0.985689 31.466 0.415064C32.3039 -0.024077 33.8061 0.0171726 33.8061 0.0171726ZM23.8545 3.07139L20.912 14.4719L18.4645 5.14163C17.8037 2.39249 16.6762 0.971078 14.3026 0.971078C11.9505 0.971078 10.8084 2.36155 10.1406 5.14163L7.69312 14.4719L4.75062 3.07139C4.27367 0.775141 2.05047 -0.217436 0 0.0403761L5.63492 21.3469C5.63492 21.3469 7.49375 21.4809 8.42445 21.0065C9.64648 20.3835 10.2274 19.9031 10.9673 17.0044C11.6265 14.4203 13.469 6.82858 13.6417 6.28803C14.0508 5.00413 14.5948 5.10124 14.9652 6.28803C15.1345 6.82944 16.9804 14.4203 17.6395 17.0044C18.3786 19.9031 18.9604 20.3835 20.1824 21.0065C21.1123 21.4809 22.972 21.3469 22.972 21.3469L28.6069 0.0403761C26.5083 -0.223452 24.3255 0.807797 23.8545 3.07139ZM33.8044 3.51913C33.8044 3.51913 33.452 4.06397 32.6477 4.51342C32.1312 4.80217 31.6353 4.99811 31.1034 5.25334C29.8023 5.87725 29.9707 6.45217 29.9707 8.27835V21.3469C29.9707 21.3469 31.393 21.5265 32.3228 21.0521C33.5199 20.4419 33.7949 19.8533 33.8061 17.2038V4.28999L33.8044 4.29084V3.51913ZM47.85 10.7448L55 0.110844C55 0.110844 51.9827 -0.403062 50.4883 0.957329C49.3453 1.99717 48.3905 3.49678 45.8322 7.18522C45.7918 7.24795 45.2951 8.091 44.709 7.18522C42.1919 3.55608 41.2027 2.00405 40.0529 0.957329C38.5584 -0.403062 35.5412 0.110844 35.5412 0.110844L42.6912 10.7448L35.5609 21.346C35.5609 21.346 38.7037 21.743 40.1973 20.3826C41.1847 19.4837 41.708 18.6321 44.7098 14.3051C45.2951 13.4011 45.7901 14.239 45.833 14.3051C48.3596 17.9472 49.2044 19.2947 50.3998 20.3826C51.8942 21.743 54.982 21.346 54.982 21.346L47.85 10.7448Z" fill="#D5D5D5"/>
</svg>
