<svg xmlns="http://www.w3.org/2000/svg" fill="none" viewBox="0 0 37.62 38.5">
<path d="M18.9582 0.0275C11.5407 0.0275 4.58009 4.4825 1.38197 11.5775H10.3851V12.595C7.61697 12.265 7.85884 13.7225 8.26197 15.2625L14.1745 30.3325L18.5013 19.965L16.5126 15.0975C15.787 13.805 15.787 12.3475 12.8038 12.485L12.8576 11.55H26.0532V12.6225C24.5213 12.705 22.6401 12.2375 23.6345 15.455L28.9826 29.7275L31.912 21.395C32.8795 17.9025 31.9657 14.5475 30.837 11.2475C30.2188 9.0475 30.4876 7.205 33.3363 6.4625C29.0095 1.98 23.9301 0 19.012 0L18.9582 0.0275ZM36.9107 13.2L28.3645 35.915C30.7295 33.825 33.1482 33.0825 36.1045 27.3075C38.0663 22.5225 37.8782 18.0675 36.9107 13.2ZM0.495094 13.5575C-0.338031 20.2675 -0.257406 22.22 1.81197 27.6925C4.49947 32.945 6.59572 34.045 9.55197 36.1075L0.495094 13.585V13.5575ZM19.3076 22.055L12.9651 37.62C17.4263 38.9125 21.4038 38.7475 25.032 37.3175L19.3076 22.055Z" fill="#D5D5D5"/>
</svg>
