<svg xmlns="http://www.w3.org/2000/svg" fill="none" viewBox="0 0 40 40">
<path d="M6.92835 2.4364e-05C6.01752 -0.00151519 5.11535 0.176862 4.27363 0.524914C3.43192 0.872967 2.66724 1.38384 2.02349 2.02821C1.37974 2.67258 0.869604 3.43775 0.522361 4.2798C0.175118 5.12184 -0.00239124 6.02418 2.43256e-05 6.93502V33.065C-0.00239124 33.9758 0.175118 34.8782 0.522361 35.7202C0.869604 36.5623 1.37974 37.3274 2.02349 37.9718C2.66724 38.6162 3.43192 39.127 4.27363 39.4751C5.11535 39.8231 6.01752 40.0015 6.92835 40H33.065C33.9764 40.0024 34.8793 39.8247 35.7218 39.477C36.5642 39.1293 37.3297 38.6186 37.9742 37.9742C38.6186 37.3297 39.1293 36.5642 39.477 35.7218C39.8247 34.8793 40.0024 33.9764 40 33.065V6.93502C40.0024 6.02362 39.8247 5.12073 39.477 4.27825C39.1293 3.43577 38.6186 2.6703 37.9742 2.02584C37.3297 1.38139 36.5642 0.870652 35.7218 0.522992C34.8793 0.175333 33.9764 -0.0023946 33.065 2.4364e-05H6.92835ZM24.6117 14.6017H24.6617C24.7924 14.5975 24.9226 14.619 25.045 14.665C25.1693 14.711 25.2831 14.7813 25.38 14.8717C25.5574 15.0685 25.6539 15.3251 25.65 15.59C25.6554 15.7227 25.6343 15.8552 25.5879 15.9797C25.5416 16.1042 25.4709 16.2181 25.38 16.315C25.2837 16.4078 25.1698 16.4803 25.045 16.5283C24.923 16.5766 24.7928 16.6004 24.6617 16.5983C24.5274 16.607 24.393 16.583 24.27 16.5283C24.1459 16.4788 24.033 16.4049 23.938 16.311C23.843 16.2171 23.7677 16.1051 23.7167 15.9817C23.6696 15.8567 23.6481 15.7235 23.6533 15.59C23.6506 15.4575 23.6742 15.3257 23.7229 15.2024C23.7715 15.0791 23.8442 14.9667 23.9367 14.8717C24.1198 14.7002 24.3608 14.6038 24.6117 14.6017ZM29.3667 17.2217C29.4155 17.2272 29.4683 17.2294 29.525 17.2283C30.0667 17.21 30.6017 17.335 31.0867 17.5933C31.4833 17.8333 31.805 18.185 32.0067 18.6083C32.22 19.0733 32.3217 19.5783 32.315 20.0883V20.41C32.3217 20.5316 32.3217 20.6534 32.315 20.775H28.1517C28.1567 21.1533 28.2767 21.525 28.4917 21.845C28.6245 21.9972 28.7909 22.1164 28.9778 22.193C29.1647 22.2697 29.3669 22.3018 29.5683 22.2867C29.856 22.3136 30.1434 22.2328 30.375 22.06C30.5551 21.9278 30.6892 21.7425 30.7583 21.53L32.2833 21.9583C32.1949 22.2871 32.0356 22.5926 31.8167 22.8533C31.5833 23.1183 31.2817 23.3267 30.9483 23.445C30.5029 23.6101 30.0297 23.6871 29.555 23.6717C28.9719 23.6918 28.3945 23.5505 27.8867 23.2633C27.4051 22.9965 27.018 22.5873 26.7783 22.0917C26.5133 21.5556 26.3834 20.9628 26.4 20.365C26.3506 19.5134 26.6379 18.6766 27.2 18.035C27.7937 17.5002 28.5677 17.2097 29.3667 17.2217ZM13.355 17.26C13.625 17.2667 13.8967 17.3033 14.155 17.3917C14.5 17.5 14.8217 17.6817 15.0933 17.915C15.5267 18.4183 15.7483 19.0683 15.7033 19.7283V23.5217H14.2167L14.035 22.3367H13.9267C13.82 22.6089 13.6689 22.8528 13.4733 23.0683C13.2987 23.2571 13.0863 23.407 12.85 23.5083C12.6125 23.6126 12.354 23.6599 12.095 23.6467C11.5772 23.6733 11.0665 23.5176 10.6517 23.2067C10.4631 23.0418 10.3154 22.8354 10.2203 22.6037C10.1251 22.3721 10.0851 22.1215 10.1033 21.8717C10.092 21.6258 10.1353 21.3805 10.23 21.1533C10.3183 20.9244 10.456 20.7179 10.6333 20.5483C11.1279 20.1658 11.7492 19.9853 12.3717 20.0433H13.9583V19.7417C13.9731 19.4708 13.8929 19.2032 13.7317 18.985C13.6361 18.8916 13.5212 18.8202 13.3951 18.7759C13.269 18.7315 13.1347 18.7153 13.0017 18.7283C12.7824 18.7159 12.564 18.7655 12.3717 18.8717C12.2193 18.972 12.1058 19.1213 12.05 19.295L10.4 19.055C10.4626 18.7115 10.6098 18.389 10.8283 18.1167C11.0617 17.8267 11.3633 17.6133 11.7167 17.4867C12.1517 17.335 12.6167 17.26 13.0833 17.2717C13.17 17.265 13.2606 17.2611 13.355 17.26ZM20.6617 17.2717C20.9517 17.2717 21.24 17.335 21.505 17.4617C21.8083 17.6 22.0717 17.8133 22.2683 18.085C22.6967 18.79 22.8967 19.6033 22.8533 20.4283C22.903 21.2739 22.6968 22.1149 22.2617 22.8417C22.0797 23.1183 21.8291 23.3431 21.5344 23.4941C21.2397 23.6451 20.9109 23.7172 20.58 23.7033C20.24 23.7033 19.9117 23.6283 19.61 23.4767C19.2681 23.3158 18.9874 23.0486 18.81 22.715C18.7338 22.5917 18.6701 22.461 18.62 22.325H18.545L18.5517 25.2983H16.7867V17.4433H18.2933L18.4883 18.785H18.5833C18.6967 18.4383 18.8783 18.1167 19.13 17.8517C19.3116 17.6639 19.5303 17.5159 19.7722 17.4172C20.0141 17.3185 20.2739 17.2712 20.535 17.2783H20.6617V17.2717ZM33.26 17.4117H34.765L34.9533 18.7533H35.0416C35.1188 18.4617 35.2518 18.1877 35.4333 17.9467C35.5707 17.7707 35.7501 17.632 35.955 17.5433C36.1576 17.4471 36.3811 17.4036 36.605 17.4167H36.995V19.1683H36.3266C36.1542 19.1309 35.9753 19.1354 35.805 19.1817C35.6337 19.2261 35.4772 19.3153 35.3517 19.44C35.2217 19.5591 35.1222 19.7077 35.0617 19.8733C35.0071 20.0421 34.9917 20.2211 35.0167 20.3967V23.5217H33.26V17.4117ZM4.06835 17.4167H9.50501V18.91L6.21668 21.84L6.27335 22.0283H9.56168L9.63168 23.5283H4.00002V22.0283L7.21835 19.105L7.14335 18.91H4.06835V17.4167ZM23.76 17.4167H25.5183V23.515H23.76V17.4167ZM29.4983 18.5567L29.53 18.5833C29.3318 18.5578 29.1304 18.5836 28.945 18.6583C28.7611 18.7327 28.5973 18.8491 28.4667 18.9983C28.2833 19.2567 28.1767 19.5583 28.1517 19.8683H30.7267C30.67 18.9917 30.2983 18.5567 29.4933 18.5567H29.4983ZM19.9683 18.8283C19.925 18.8283 19.8733 18.8283 19.83 18.835C19.6536 18.83 19.478 18.86 19.3133 18.9233C19.1496 18.9964 19.0035 19.1038 18.885 19.2383C18.6338 19.5698 18.5128 19.982 18.545 20.3967V20.5033C18.52 20.9317 18.64 21.3483 18.885 21.6883C18.9951 21.8317 19.1403 21.9442 19.3067 22.015C19.4697 22.0926 19.6498 22.1276 19.83 22.1167C20.0151 22.1334 20.2014 22.1014 20.3704 22.0239C20.5394 21.9465 20.6852 21.8262 20.7933 21.675C21.0267 21.3033 21.1333 20.875 21.1083 20.4417C21.134 20.0249 21.0285 19.6105 20.8067 19.2567C20.7058 19.1294 20.5787 19.0252 20.4341 18.9513C20.2894 18.8774 20.1306 18.8355 19.9683 18.8283ZM12.4533 20.9383C12.2901 20.946 12.1336 21.0055 12.0067 21.1083C11.9448 21.1676 11.8959 21.2391 11.8632 21.3183C11.8305 21.3975 11.8146 21.4827 11.8167 21.5683C11.8167 21.6572 11.8317 21.7433 11.8617 21.8267C11.8949 21.9089 11.9442 21.9837 12.0067 22.0467C12.1974 22.1867 12.4328 22.2519 12.6683 22.23V22.2367C13.0072 22.2497 13.3396 22.1422 13.6067 21.9333C13.7197 21.8418 13.8102 21.7255 13.8711 21.5934C13.9321 21.4614 13.9619 21.3171 13.9583 21.1717V20.9383H12.4533Z" fill="#D5D5D5"/>
</svg>